<?xml version="1.0" standalone="no"?><!DOCTYPE svg PUBLIC "-//W3C//DTD SVG 1.1//EN" "http://www.w3.org/Graphics/SVG/1.1/DTD/svg11.dtd" ><svg xmlns="http://www.w3.org/2000/svg"><metadata></metadata><defs><font id="FontForge 2.0 : Ligature Symbols : 31-1-2013" horiz-adv-x="3034"><font-face font-family="LigatureSymbols" font-weight="400" font-stretch="normal" units-per-em="1024" panose-1="2 0 5 3 0 0 0 0 0 0" ascent="859" descent="-227" x-height="0" bbox="-15 -227 3032 859" underline-thickness="51" underline-position="-127" unicode-range="U+0020-ff00" /><missing-glyph horiz-adv-x="476" d="M102 0 l272 0 l0 682 l-272 0 l0 -682 ZM136 34 l0 614 l204 0 l0 -614 l-204 0 Z" /><glyph glyph-name="space" unicode=" " d="" /><glyph glyph-name="exclam" unicode="!" d="M271 729 l73 0 l0 -570 l-73 0 l0 570 ZM269 77 l77 0 l0 -77 l-77 0 l0 77 Z" /><glyph glyph-name="quotedbl" unicode="&quot;" d="M176 763 l95 0 l0 -113 l-56 -118 l-36 18 l49 118 l-52 0 l0 95 ZM343 763 l95 0 l0 -113 l-56 -118 l-37 18 l50 118 l-52 0 l0 95 Z" /><glyph glyph-name="numbersign" unicode="#" d="M575 527 l0 -60 l-120 0 l-24 -161 l114 0 l0 -60 l-123 0 l-36 -246 l-60 0 l35 246 l-161 0 l-37 -246 l-61 0 l37 246 l-119 0 l0 60 l128 0 l24 161 l-121 0 l0 60 l130 0 l34 232 l60 0 l-33 -232 l161 0 l35 232 l61 0 l-35 -232 l111 0 ZM209 306 l162 0 l23 161 l-162 0 l-23 -161 Z" /><glyph glyph-name="dollar" unicode="$" d="M354 687 l0 -256 q92 -67 131 -125 q34 -53 36 -110 q1 -34 -14 -73 q-15 -39 -55.5 -76 q-40.5 -37 -97.5 -46 l0 -119 l-71 0 l0 117 q-116 15 -192 154 l63 37 q55 -104 129 -119 l0 319 q-87 67 -107 94 q-39 53 -39 113 q0 57 37 108.5 q37 51.5 109 61.5 l0 68 l71 0 l0 -69 q36 -7 69.5 -30 q33.5 -23 48.5 -40.5 q15 -17.5 37 -46.5 l-60 -45 q-16 21 -25.5 32.5 q-9.5 11.5 -29.5 27.5 q-20 16 -40 23 ZM283 485 l0 205 q-36 -9 -53 -36.5 q-17 -27.5 -17 -53.5 q0 -51 47 -95 q2 -3 23 -20 ZM354 333 l0 -257 q44 15 66 50.5 q22 35.5 21 67.5 q0 36 -24 72 q-23 31 -63 67 Z" /><glyph glyph-name="percent" unicode="%" d="M72 -51 l534 819 l77 0 l-536 -819 l-75 0 ZM184 753 q71 0 122 -51 q51 -51 51 -122 q0 -72 -51 -123 q-51 -51 -122 -51 q-72 0 -123 51 q-51 51 -51 123 q0 71 51 122 q51 51 123 51 ZM105.5 501 q32.5 -33 78.5 -33 q46 0 78.5 33 q32.5 33 32.5 79 q0 46 -32.5 78 q-32.5 32 -78.5 32 q-46 0 -78.5 -32 q-32.5 -32 -32.5 -78 q0 -46 32.5 -79 ZM586 326 q72 0 123 -51 q51 -51 51 -123 q0 -71 -51 -122.5 q-51 -51.5 -123 -51.5 q-71 0 -122 51.5 q-51 51.5 -51 122.5 q0 72 51 123 q51 51 122 51 ZM507.5 73.5 q32.5 -32.5 78.5 -32.5 q46 0 78.5 32.5 q32.5 32.5 32.5 78.5 q0 46 -32.5 78.5 q-32.5 32.5 -78.5 32.5 q-46 0 -78.5 -32.5 q-32.5 -32.5 -32.5 -78.5 q0 -46 32.5 -78.5 Z" /><glyph glyph-name="ampersand" unicode="&amp;" d="M596 220 l-49 52 q-39 -34 -93 -73 l-73 73 l-112 118 q78 66 103 107 q26 43 26 78 q0 33 -20 67 q-20 31 -59 49 q-40 19 -83 19 q-74 0 -122 -42 q-42 -36 -42 -91 q0 -33 17 -66 q16 -35 77 -108 q-103 -81 -141 -140 q-35 -56 -35 -110 q0 -73 52 -122 q51 -48 136 -48 q65 0 121 22 q58 21 150 96 l98 -100 l102 0 q-29 35 -65 70 q-39 39 -79 75 q39 27 91 74 ZM224 444 q-41 45 -69 94 q-11 19 -11 37 q0 26 25 46 q24 18 63 18 q43 0 67 -18 q25 -19 25 -44 q0 -22 -20 -51 q-23 -36 -80 -82 ZM282 273 l116 -119 q-82 -64 -136 -86 q-39 -17 -77 -17 q-51 0 -87 33 q-35 32 -35 74 q0 35 29 78 q25 37 123 111 q10 -12 33.5 -37 q23.5 -25 33.5 -37 Z" /><glyph glyph-name="quotesingle" unicode="&#39;" d="M260 763 l94 0 l0 -113 l-56 -118 l-36 18 l50 118 l-52 0 l0 95 Z" /><glyph glyph-name="parenleft" unicode="(" d="M398 818 l-81 0 q-50 -114 -75 -247 q-26 -136 -26 -273 q0 -125 22 -252 q23 -125 59 -209 l77 0 q-39 92 -62 215 q-21 123 -21 255 q0 146 28 277 q30 133 79 234 Z" /><glyph glyph-name="parenright" unicode=")" d="M216 -163 l81 0 q51 119 76 247 q25 131 25 273 q0 129 -21 251 q-20 116 -60 210 l-76 0 q38 -91 61 -216 q22 -127 22 -254 q0 -140 -29 -276 q-28 -132 -79 -235 Z" /><glyph glyph-name="asterisk" unicode="*" d="M444 700 l37 -62 l-158 -58 l158 -60 l-37 -62 l-129 108 l28 -167 l-73 0 l30 167 l-131 -108 l-36 62 l160 60 l-160 58 l36 62 l131 -108 l-30 167 l73 0 l-28 -167 l129 108 Z" /><glyph glyph-name="plus" unicode="+" d="M343 394 l217 0 l0 -71 l-217 0 l0 -218 l-72 0 l0 218 l-217 0 l0 71 l217 0 l0 217 l72 0 l0 -217 Z" /><glyph glyph-name="comma" unicode="," d="M300 116 l70 -33 l-94 -196 l-60 29 l84 200 Z" /><glyph glyph-name="hyphen" unicode="-" d="M444 406 l0 -73 l-274 0 l0 73 l274 0 Z" /><glyph glyph-name="period" unicode="." d="M269 77 l77 0 l0 -77 l-77 0 l0 77 Z" /><glyph glyph-name="slash" unicode="/" d="M116 -48 l306 854 l77 0 l-306 -854 l-77 0 Z" /><glyph glyph-name="zero" unicode="0" d="M288 755 q73 0 125.5 -36.5 q52.5 -36.5 79.5 -97 q27 -60.5 38.5 -122.5 q11.5 -62 11.5 -130 q0 -68 -11.5 -130 q-11.5 -62 -38.5 -122.5 q-27 -60.5 -79.5 -97 q-52.5 -36.5 -125.5 -36.5 q-59 0 -104 25.5 q-45 25.5 -71.5 64 q-26.5 38.5 -43.5 92 q-17 53.5 -22.5 102.5 q-5.5 49 -5.5 102 q0 53 5.5 102 q5.5 49 22 102.5 q16.5 53.5 43 92 q26.5 38.5 72 64 q45.5 25.5 104.5 25.5 ZM291 49 q55 0 94 32 q39 32 57 84.5 q18 52.5 25 101.5 q7 49 7 101 q0 52 -7 100.5 q-7 48.5 -25 101 q-18 52.5 -57 84.5 q-39 32 -94 32 q-180 0 -180 -318 q0 -319 180 -319 Z" /><glyph glyph-name="one" unicode="1" d="M61 735 l175 0 l0 -735 l-73 0 l0 664 l-102 0 l0 71 Z" /><glyph glyph-name="two" unicode="2" d="M464 386 l-267 -314 l325 0 l0 -72 l-481 0 l255 299 q117 135 128 152 q19 29 19 75 q0 65 -46 111.5 q-46 46.5 -112 46.5 q-65 0 -111.5 -46.5 q-46.5 -46.5 -46.5 -111.5 q0 -37 17 -71 l-74 0 q-13 37 -13 71 q0 94 67 161 q67 67 161 67 q87 0 151.5 -58 q64.5 -58 74.5 -144 q1 -8 1 -26 q0 -79 -48 -140 Z" /><glyph glyph-name="three" unicode="3" d="M156 563 l-72 0 q2 79 59 135.5 q57 56.5 136 56.5 q80 0 136.5 -57 q56.5 -57 56.5 -138 q0 -96 -78 -154 q51 -31 81.5 -83 q30.5 -52 30.5 -113 q0 -94 -66.5 -160.5 q-66.5 -66.5 -160.5 -66.5 q-92 0 -158 63 q-66 63 -70 154 l72 0 q4 -61 49 -104 q45 -43 107 -43 q64 0 109.5 46 q45.5 46 45.5 111 q0 65 -45.5 110.5 q-45.5 45.5 -109.5 45.5 l0 71 q51 0 86.5 36 q35.5 36 35.5 87 q0 51 -35.5 87 q-35.5 36 -86.5 36 q-51 0 -86.5 -35 q-35.5 -35 -36.5 -85 Z" /><glyph glyph-name="four" unicode="4" d="M439 775 l0 -494 l89 0 l0 -72 l-89 0 l0 -209 l-71 0 l0 209 l-327 0 l398 566 ZM179 281 l189 0 l0 267 l-189 -267 Z" /><glyph glyph-name="five" unicode="5" d="M254 663 l-36 -192 q30 9 65 9 q103 0 175.5 -73 q72.5 -73 72.5 -176 q0 -103 -72.5 -175.5 q-72.5 -72.5 -175.5 -72.5 q-86 0 -148.5 53 q-62.5 53 -83.5 137 l73 0 q20 -55 61.5 -88.5 q41.5 -33.5 98.5 -33.5 q74 0 126.5 52.5 q52.5 52.5 52.5 126.5 q0 74 -52.5 127 q-52.5 53 -126.5 53 q-32 0 -81 -14 q-49 -13 -78 -27 l70 366 l317 0 l0 -72 l-258 0 Z" /><glyph glyph-name="six" unicode="6" d="M424 725 l-187 -292 q28 4 42 4 q94 0 160.5 -66.5 q66.5 -66.5 66.5 -160.5 q0 -94 -66.5 -160.5 q-66.5 -66.5 -160.5 -66.5 q-79 0 -140.5 48.5 q-61.5 48.5 -80.5 122.5 q-7 24 -7 56 q0 61 33 117 l6 10 l272 427 l62 -39 ZM157 308 l-19 -28 q-16 -35 -16 -70 q0 -64 46 -110.5 q46 -46.5 111 -46.5 q64 0 109.5 46 q45.5 46 45.5 111 q0 65 -45.5 110.5 q-45.5 45.5 -109.5 45.5 q-74 0 -122 -58 Z" /><glyph glyph-name="seven" unicode="7" d="M61 664 l0 71 l467 0 l-394 -754 l-64 33 l340 650 l-349 0 Z" /><glyph glyph-name="eight" unicode="8" d="M394 406 q51 -31 81.5 -83 q30.5 -52 30.5 -113 q0 -94 -66.5 -160.5 q-66.5 -66.5 -160.5 -66.5 q-95 0 -161.5 66.5 q-66.5 66.5 -66.5 160.5 q0 61 30 113.5 q30 52.5 81 82.5 q-78 58 -78 154 q0 81 57 138 q57 57 138 57 q81 0 137 -57 q56 -57 56 -138 q0 -97 -78 -154 ZM192 647 q-36 -36 -36 -87 q0 -51 36 -87 q36 -36 87 -36 q51 0 86.5 36 q35.5 36 35.5 87 q0 51 -35.5 87 q-35.5 36 -86.5 36 q-51 0 -87 -36 ZM279 53 q64 0 109.5 46 q45.5 46 45.5 111 q0 65 -45.5 110.5 q-45.5 45.5 -109.5 45.5 q-65 0 -111 -46 q-46 -46 -46 -110 q0 -64 46 -110.5 q46 -46.5 111 -46.5 Z" /><glyph glyph-name="nine" unicode="9" d="M123 12 l186 292 q-26 -4 -41 -4 q-94 0 -160.5 66.5 q-66.5 66.5 -66.5 160.5 q0 95 66.5 161.5 q66.5 66.5 160.5 66.5 q78 0 139 -48.5 q61 -48.5 81 -122.5 q8 -34 8 -57 q0 -60 -33 -116 l-7 -11 l-273 -427 l-60 39 ZM389 429 l19 29 q16 32 16 69 q0 65 -46 111 q-46 46 -110 46 q-64 0 -110 -46 q-46 -46 -46 -111 q0 -64 45.5 -109.5 q45.5 -45.5 110.5 -45.5 q74 0 121 57 Z" /><glyph glyph-name="colon" unicode=":" d="M269 509 l77 0 l0 -77 l-77 0 l0 77 ZM269 82 l77 0 l0 -77 l-77 0 l0 77 Z" /><glyph glyph-name="semicolon" unicode=";" d="M297 509 l77 0 l0 -77 l-77 0 l0 77 ZM314 116 l70 -33 l-93 -196 l-61 29 l84 200 Z" /><glyph glyph-name="equal" unicode="=" d="M560 505 l0 -72 l-506 0 l0 72 l506 0 ZM560 286 l0 -73 l-506 0 l0 73 l506 0 Z" /><glyph glyph-name="question" unicode="?" d="M188 450 l-74 0 q-12 39 -12 71 q0 95 56.5 152.5 q56.5 57.5 150.5 57.5 q88 0 141 -46.5 q53 -46.5 63 -131.5 q1 -8 1 -26 q0 -84 -50 -135 q-51 -51 -97 -91 q-19 -17 -28.5 -45 q-9.5 -28 -11 -47.5 q-1.5 -19.5 -1.5 -51.5 l-77 0 q0 75 15 117 q15 42 44 71 q14 14 54.5 46.5 q40.5 32.5 54.5 50.5 q28 33 28 85 q0 65 -35.5 100.5 q-35.5 35.5 -100.5 35.5 q-65 0 -101.5 -38 q-36.5 -38 -36.5 -104 q0 -37 17 -71 ZM249 77 l77 0 l0 -77 l-77 0 l0 77 Z" /><glyph glyph-name="at" unicode="@" d="M524 541 l53 0 q-39 -221 -59 -332 q-9 -49 28 -44 q41 4 97 53 q12 11 20 20 q16 19 31 55.5 q15 36.5 23.5 88 q8.5 51.5 -11 112.5 q-19.5 61 -70.5 112 q-46 46 -107 68.5 q-61 22.5 -118.5 21 q-57.5 -1.5 -106 -13.5 q-48.5 -12 -83.5 -32 q-83 -48 -133 -146 q-50 -98 -29 -210 q12 -63 39.5 -115 q27.5 -52 62 -84.5 q34.5 -32.5 67.5 -51.5 q33 -19 64 -27 q125 -28 209 -3 q84 25 163 106 q8 0 25 0.5 q17 0.5 27 0.5 q-50 -76 -128.5 -119 q-78.5 -43 -155.5 -45 q-41 0 -69.5 2 q-28.5 2 -70 11 q-41.5 9 -81.5 31 q-40 22 -78 58 q-80 74 -108.5 179 q-28.5 105 -1.5 210 q27 104 101 180 q74 76 178 101 q117 28 236 -12 q119 -40 185 -156 q37 -65 36 -138.5 q-1 -73.5 -22.5 -123 q-21.5 -49.5 -51.5 -83.5 q-56 -63 -130 -92 q-77 -30 -92 16 q-6 18 -1 46 l3 18 q-64 -59 -139 -59 q-76 0 -124 58 q-48 58 -35 139 q13 81 79 139 q66 58 143 58 q78 0 124 -64 l11 67 ZM332 193 q47 0 88.5 30.5 q41.5 30.5 61.5 78.5 q9 45 14 74 q-3 50 -35 81.5 q-32 31.5 -81 31.5 q-56 0 -96.5 -42.5 q-40.5 -42.5 -50.5 -105.5 q-10 -63 16.5 -105.5 q26.5 -42.5 82.5 -42.5 Z" /><glyph glyph-name="A" unicode="a" d="M532 0 l-81 0 l-89 242 l-207 0 l-88 -242 l-82 0 l273 762 l274 -762 ZM258 526 l-77 -214 l155 0 l-78 214 Z" /><glyph glyph-name="B" unicode="b" d="M61 735 l175 0 q89 0 141 -71 q35 -46 35 -105 q0 -60 -35 -104 q-1 -2 -4.5 -7 q-3.5 -5 -5.5 -8 q51 -18 88 -58 q61 -64 61 -155 q0 -89 -61 -155 q-67 -72 -166 -72 l-228 0 l0 735 ZM133 455 l108 0 q41 2 70 32 q29 30 29 72 q0 42 -29 72.5 q-29 30.5 -70 32.5 l-108 0 l0 -209 ZM133 382 l0 -310 l158 0 q64 1 108.5 46 q44.5 45 44.5 109 q0 64 -44.5 109.5 q-44.5 45.5 -108.5 45.5 l-158 0 Z" /><glyph glyph-name="C" unicode="c" d="M721 579 l-63 -44 q-44 61 -113 96 q-69 35 -148 35 q-80 0 -149 -35.5 q-69 -35.5 -113 -95.5 q-60 -81 -60 -184 q0 -102 60 -183 q44 -60 113 -95 q69 -35 149 -35 q80 0 148.5 35 q68.5 35 112.5 95 l60 -41 q-44 -61 -110 -102.5 q-66 -41.5 -144 -54.5 q-115 -21 -220 22 q-105 43 -171 133 q-52 71 -67 158 q-28 158 70 294 q45 60 111 101 q66 41 143 54 q115 21 220.5 -21.5 q105.5 -42.5 170.5 -131.5 Z" /><glyph glyph-name="D" unicode="d" d="M72 735 l254 0 q122 0 218 -71 q69 -51 109 -128.5 q40 -77.5 40 -167.5 q0 -89 -40 -166.5 q-40 -77.5 -109 -129.5 q-98 -72 -218 -72 l-1 0 l-253 0 l0 735 ZM143 72 l189 0 q121 3 205.5 89 q84.5 86 84.5 207 q0 121 -84.5 207.5 q-84.5 86.5 -205.5 88.5 l-189 0 l0 -592 Z" /><glyph glyph-name="E" unicode="e" d="M516 735 l0 -71 l-383 0 l0 -209 l383 0 l0 -72 l-383 0 l0 -311 l383 0 l0 -72 l-455 0 l0 735 l455 0 Z" /><glyph glyph-name="F" unicode="f" d="M506 735 l0 -71 l-383 0 l0 -209 l383 0 l0 -72 l-383 0 l0 -383 l-72 0 l0 735 l455 0 Z" /><glyph glyph-name="G" unicode="g" d="M397 264 l0 73 l397 0 q-1 -35 -11 -73 q-27 -111 -113.5 -192 q-86.5 -81 -205.5 -102 q-115 -21 -220 22 q-105 43 -171 133 q-52 71 -67 158 q-28 157 67 288.5 q95 131.5 257 160.5 q115 21 220.5 -21.5 q105.5 -42.5 170.5 -131.5 l-63 -44 q-44 61 -113 96 q-69 35 -148 35 q-133 0 -227.5 -92.5 q-94.5 -92.5 -94.5 -222.5 q0 -101 60 -183 q44 -60 113 -95 q69 -35 149 -35 q109 0 195 63.5 q86 63.5 116 162.5 l-311 0 Z" /><glyph glyph-name="H" unicode="h" d="M516 455 l0 280 l72 0 l0 -735 l-72 0 l0 383 l-383 0 l0 -383 l-72 0 l0 735 l72 0 l0 -280 l383 0 Z" /><glyph glyph-name="I" unicode="i" d="M82 0 l0 735 l72 0 l0 -735 l-72 0 Z" /><glyph glyph-name="J" unicode="j" d="M337 206 l0 529 l72 0 l0 -527 q0 -99 -72 -166 q-66 -61 -156 -61 q-95 0 -161 66 l52 51 q44 -46 109 -46 q64 0 109.5 45 q45.5 45 46.5 109 Z" /><glyph glyph-name="K" unicode="k" d="M539 735 l-350 -331 l374 -404 l-94 0 l-326 351 l0 -351 l-71 0 l0 735 l71 0 l0 -280 l297 280 l99 0 Z" /><glyph glyph-name="L" unicode="l" d="M143 735 l0 -663 l383 0 l0 -72 l-454 0 l0 735 l71 0 Z" /><glyph glyph-name="M" unicode="m" d="M51 753 l310 -443 l310 443 l0 -753 l-73 0 l0 524 l-237 -339 l-237 339 l0 -524 l-73 0 l0 753 Z" /><glyph glyph-name="N" unicode="n" d="M506 185 l0 551 l72 0 l0 -756 l-455 570 l0 -550 l-72 0 l0 756 l455 -571 Z" /><glyph glyph-name="O" unicode="o" d="M788 431 q18 -104 -18.5 -201 q-36.5 -97 -117.5 -163.5 q-81 -66.5 -188 -85.5 q-162 -29 -296 62.5 q-134 91.5 -162 249.5 q-28 157 67 288.5 q95 131.5 257 160.5 q162 29 296 -62.5 q134 -91.5 162 -248.5 ZM397 48 q134 0 228.5 91.5 q94.5 91.5 94.5 221.5 q0 130 -95 222.5 q-95 92.5 -228 92.5 q-133 0 -227.5 -92.5 q-94.5 -92.5 -94.5 -222.5 q0 -130 94.5 -221.5 q94.5 -91.5 227.5 -91.5 Z" /><glyph glyph-name="P" unicode="p" d="M51 735 l279 0 q89 0 141 -71 q35 -48 35 -105 q0 -58 -35 -104 q-52 -72 -141 -72 l-207 0 l0 -383 l-72 0 l0 735 ZM123 455 l210 0 q42 1 71.5 31 q29.5 30 29.5 73 q0 42 -29.5 73 q-29.5 31 -71.5 32 l-210 0 l0 -209 Z" /><glyph glyph-name="Q" unicode="q" d="M676 -62 l-76 95 q-63 -38 -136 -50 q-162 -29 -296 62.5 q-134 91.5 -162 249.5 q-28 157 67 288.5 q95 131.5 257 160.5 q162 29 296 -62.5 q134 -91.5 162 -249.5 q18 -101 -17.5 -196 q-35.5 -95 -112.5 -161 l110 -137 l-92 0 ZM489 288 l124 -157 q50 43 78.5 104 q28.5 61 28.5 129 q0 130 -94.5 221.5 q-94.5 91.5 -228.5 91.5 q-133 0 -227.5 -91.5 q-94.5 -91.5 -94.5 -221.5 q0 -130 94.5 -222.5 q94.5 -92.5 227.5 -92.5 q80 0 158 40 l-158 199 l92 0 Z" /><glyph glyph-name="R" unicode="r" d="M350 383 l-104 0 l297 -383 l-91 0 l-297 383 l-12 0 l0 -383 l-71 0 l0 735 l278 0 q90 0 142 -71 q34 -46 34 -105 q0 -59 -34 -104 q-52 -72 -142 -72 ZM353 664 l-210 0 l0 -209 l210 0 q42 1 72 31 q30 30 30 73 q0 42 -30 72.5 q-30 30.5 -72 32.5 Z" /><glyph glyph-name="S" unicode="s" d="M114 172 l-63 -37 q15 -28 30.5 -49 q15.5 -21 42.5 -48.5 q27 -27.5 65.5 -42.5 q38.5 -15 83.5 -15 q54 0 97 21 q43 21 66.5 52.5 q23.5 31.5 34.5 64 q11 32.5 10 59.5 q-2 60 -35 111 q-36 55 -131 126 q-88 65 -95 73 q-46 46 -46 96 q0 32 24 62.5 q24 30.5 76 30.5 q32 0 61 -17 q29 -17 41.5 -31.5 q12.5 -14.5 33.5 -41.5 l59 46 q-18 24 -31.5 39 q-13.5 15 -38 37 q-24.5 22 -56 33 q-31.5 11 -67.5 11 q-61 0 -103.5 -29.5 q-42.5 -29.5 -59 -66.5 q-16.5 -37 -16.5 -76 q0 -60 39 -113 q23 -31 115 -100 q92 -70 126 -118 q23 -33 25 -73 q1 -41 -34 -83 q-35 -42 -102 -42 q-86 0 -152 121 Z" /><glyph glyph-name="T" unicode="t" d="M10 735 l455 0 l0 -71 l-192 0 l0 -664 l-71 0 l0 664 l-192 0 l0 71 Z" /><glyph glyph-name="U" unicode="u" d="M588 735 l0 -491 q0 -104 -72 -181 q-77 -82 -191 -82 q-115 0 -192 82 q-72 77 -72 181 l0 491 l72 0 l0 -492 q1 -79 57 -135 q56 -56 135 -56 q79 0 134.5 56 q55.5 56 56.5 134 l0 493 l72 0 Z" /><glyph glyph-name="V" unicode="v" d="M579 735 l-275 -762 l-273 762 l82 0 l191 -526 l193 526 l82 0 Z" /><glyph glyph-name="W" unicode="w" d="M696 209 l141 526 l82 0 l-212 -762 l-232 580 l-232 -580 l-212 762 l82 0 l140 -526 l222 550 l221 -550 Z" /><glyph glyph-name="X" unicode="x" d="M566 735 l-219 -357 l232 -378 l-84 0 l-190 308 l-189 -308 l-85 0 l231 378 l-219 357 l84 0 l178 -289 l177 289 l84 0 Z" /><glyph glyph-name="Y" unicode="y" d="M293 446 l177 289 l85 0 l-226 -368 l0 -367 l-72 0 l0 368 l-226 367 l85 0 l177 -289 Z" /><glyph glyph-name="Z" unicode="z" d="M54 735 l469 0 l-379 -663 l365 0 l0 -72 l-489 0 l379 664 l-345 0 l0 71 Z" /><glyph glyph-name="bracketleft" unicode="[" d="M391 856 l0 -73 l-96 0 l0 -809 l96 0 l0 -72 l-168 0 l0 954 l168 0 Z" /><glyph glyph-name="backslash" unicode="\" d="M51 806 l82 0 l477 -854 l-83 0 l-476 854 Z" /><glyph glyph-name="bracketright" unicode="]" d="M223 783 l0 73 l168 0 l0 -954 l-168 0 l0 72 l96 0 l0 809 l-96 0 Z" /><glyph glyph-name="asciicircum" unicode="^" d="M37 254 l230 505 l6 11 l68 0 l6 -11 l231 -505 l-79 0 l-192 419 l-191 -419 l-79 0 Z" /><glyph glyph-name="underscore" unicode="_" d="M45 -83 l524 0 l0 -60 l-524 0 l0 60 Z" /><glyph glyph-name="a" unicode="a" d="M511 432 l0 94 l72 0 l0 -526 l-72 0 l0 74 q-83 -91 -206 -91 q-115 0 -200 79.5 q-85 79.5 -85 190.5 q0 111 85 190.5 q85 79.5 200 79.5 q123 0 206 -91 ZM511 247 l0 12 q-3 83 -63 140.5 q-60 57.5 -144 57.5 q-87 0 -151 -60 q-64 -60 -64 -144 q0 -84 64 -144 q64 -60 151 -60 q84 0 144 57.5 q60 57.5 63 140.5 Z" /><glyph glyph-name="b" unicode="b" d="M133 754 l0 -324 q41 44 97.5 70 q56.5 26 118.5 26 q114 0 194.5 -79 q80.5 -79 80.5 -191 q0 -112 -80.5 -191 q-80.5 -79 -194.5 -79 q-62 0 -118.5 26 q-56.5 26 -97.5 70 l0 -82 l-72 0 l0 754 l72 0 ZM348 52 q86 0 146.5 59.5 q60.5 59.5 60.5 144.5 q0 85 -60.5 144.5 q-60.5 59.5 -146.5 59.5 q-87 0 -151 -60 q-64 -60 -64 -144 q0 -84 64 -144 q64 -60 151 -60 Z" /><glyph glyph-name="c" unicode="c" d="M548 412 l-56 -39 q-63 84 -167 84 q-51 0 -97 -23 q-46 -23 -77 -62 q-41 -54 -41 -119 q0 -65 41 -119 q31 -39 77 -62 q46 -23 97 -23 q104 0 167 84 l56 -39 q-38 -52 -96.5 -81.5 q-58.5 -29.5 -125.5 -29.5 q-68 0 -129.5 30 q-61.5 30 -100.5 82 q-55 71 -55 158 q0 87 55 158 q39 52 100.5 82 q61.5 30 129.5 30 q67 0 125.5 -29.5 q58.5 -29.5 96.5 -81.5 Z" /><glyph glyph-name="d" unicode="d" d="M521 430 l0 324 l72 0 l0 -754 l-72 0 l0 82 q-41 -44 -97.5 -70 q-56.5 -26 -118.5 -26 q-114 0 -194 79 q-80 79 -80 191 q0 112 80 191 q80 79 194 79 q62 0 118.5 -26 q56.5 -26 97.5 -70 ZM306 52 q87 0 151 60 q64 60 64 144 q0 84 -64 144 q-64 60 -151 60 q-86 0 -146.5 -59.5 q-60.5 -59.5 -60.5 -144.5 q0 -85 60.5 -144.5 q60.5 -59.5 146.5 -59.5 Z" /><glyph glyph-name="e" unicode="e" d="M600 255 l-490 0 q0 0 0 -2 q0 -84 64 -144 q64 -60 151 -60 q60 0 110 31.5 q50 31.5 76 83.5 l61 -29 q-34 -69 -100 -110.5 q-66 -41.5 -146 -41.5 q-115 0 -200 79.5 q-85 79.5 -85 190.5 q0 61 29 117 q36 69 105.5 111 q69.5 42 150.5 42 q96 0 170.5 -59 q74.5 -59 96.5 -149 q7 -33 7 -60 ZM121 315 l400 0 q-21 63 -74.5 102.5 q-53.5 39.5 -121.5 39.5 q-61 0 -114 -32 q-53 -32 -80 -84 q-4 -8 -10 -26 Z" /><glyph glyph-name="f" unicode="f" d="M306 749 l0 -78 q-17 11 -39 11 q-29 0 -49.5 -20.5 q-20.5 -20.5 -21.5 -49.5 l0 -86 l110 0 l0 -60 l-110 0 l0 -466 l-72 0 l0 466 l-73 0 l0 60 l73 0 l0 84 q0 39 19.5 72 q19.5 33 52.5 52 q37 20 71 20 q19 0 39 -5 Z" /><glyph glyph-name="g" unicode="g" d="M46 -43 l75 0 q27 -53 80 -85.5 q53 -32.5 115 -32.5 q77 0 135 49 q58 49 70 123 q1 4 1 68 q-82 -93 -207 -93 q-115 0 -199.5 79 q-84.5 79 -84.5 191 q0 112 84.5 191 q84.5 79 199.5 79 q123 0 207 -92 l-1 92 l72 0 l0 -484 q0 -22 -3 -42 q-17 -97 -94 -162 q-77 -65 -179 -65 q-91 0 -166 51.5 q-75 51.5 -105 132.5 ZM314 52 q86 0 146.5 59.5 q60.5 59.5 60.5 144.5 q0 85 -60.5 144.5 q-60.5 59.5 -146.5 59.5 q-87 0 -151 -60 q-64 -60 -64 -144 q0 -84 64 -144 q64 -60 151 -60 Z" /><glyph glyph-name="h" unicode="h" d="M133 754 l0 -292 q31 30 77.5 47 q46.5 17 93.5 17 q85 0 152 -64 q71 -68 71 -168 l0 -294 l-71 0 l0 298 q-2 67 -44.5 112 q-42.5 45 -107.5 45 q-66 0 -118 -46.5 q-52 -46.5 -53 -110.5 l0 -298 l-72 0 l0 754 l72 0 Z" /><glyph glyph-name="i" unicode="i" d="M164 608 l-82 0 l0 82 l82 0 l0 -82 ZM159 0 l-72 0 l0 526 l72 0 l0 -526 Z" /><glyph glyph-name="j" unicode="j" d="M198 608 l-82 0 l0 82 l82 0 l0 -82 ZM121 -86 l0 612 l73 0 l0 -610 q0 -39 -20 -72 q-20 -33 -53 -52 q-32 -19 -72 -19 q-19 0 -39 5 l0 78 q19 -12 39 -12 q29 0 50 20.5 q21 20.5 22 49.5 Z" /><glyph glyph-name="k" unicode="k" d="M472 526 l-274 -238 l319 -288 l-107 0 l-268 241 l-9 -9 l0 -232 l-72 0 l0 754 l72 0 l0 -426 l229 198 l110 0 Z" /><glyph glyph-name="l" unicode="l" d="M82 0 l0 754 l72 0 l0 -754 l-72 0 Z" /><glyph glyph-name="m" unicode="m" d="M102 526 l0 -64 q31 30 77.5 47 q46.5 17 93.5 17 q85 0 152 -64 q23 -23 36 -44 q31 49 87.5 78.5 q56.5 29.5 119.5 29.5 q83 0 150 -64 q73 -68 73 -168 l0 -294 l-73 0 l0 298 q-2 67 -43.5 112 q-41.5 45 -106.5 45 q-67 0 -118.5 -47 q-51.5 -47 -52.5 -112 l0 -296 l-72 0 l0 298 q-2 67 -44.5 112 q-42.5 45 -107.5 45 q-66 0 -118 -46.5 q-52 -46.5 -53 -110.5 l0 -298 l-71 0 l0 526 l71 0 Z" /><glyph glyph-name="n" unicode="n" d="M103 526 l0 -64 q31 30 77.5 47 q46.5 17 93.5 17 q84 0 151 -64 q72 -69 72 -168 l0 -294 l-72 0 l0 298 q-2 66 -44.5 111.5 q-42.5 45.5 -106.5 45.5 q-67 0 -118.5 -46.5 q-51.5 -46.5 -52.5 -110.5 l0 -298 l-72 0 l0 526 l72 0 Z" /><glyph glyph-name="o" unicode="o" d="M305 541 q114 0 194.5 -79.5 q80.5 -79.5 80.5 -191.5 q0 -112 -80.5 -191 q-80.5 -79 -194.5 -79 q-115 0 -200 79.5 q-85 79.5 -85 190.5 q0 112 85 191.5 q85 79.5 200 79.5 ZM304 67 q86 0 146.5 59 q60.5 59 60.5 144 q0 85 -60.5 144.5 q-60.5 59.5 -146.5 59.5 q-87 0 -151 -60 q-64 -60 -64 -144 q0 -84 64 -143.5 q64 -59.5 151 -59.5 Z" /><glyph glyph-name="p" unicode="p" d="M133 541 l0 -97 q41 45 97.5 71 q56.5 26 118.5 26 q114 0 194.5 -79.5 q80.5 -79.5 80.5 -191.5 q0 -112 -80.5 -191 q-80.5 -79 -194.5 -79 q-62 0 -118.5 26 q-56.5 26 -97.5 70 l0 -309 l-72 0 l0 754 l72 0 ZM348 67 q86 0 146.5 59 q60.5 59 60.5 144 q0 85 -60.5 144.5 q-60.5 59.5 -146.5 59.5 q-87 0 -151 -60 q-64 -60 -64 -144 q0 -84 64 -143.5 q64 -59.5 151 -59.5 Z" /><glyph glyph-name="q" unicode="q" d="M521 444 l0 97 l72 0 l0 -754 l-72 0 l0 309 q-41 -44 -97.5 -70 q-56.5 -26 -118.5 -26 q-114 0 -194 79 q-80 79 -80 191 q0 113 80 192 q80 79 194 79 q62 0 118.5 -26 q56.5 -26 97.5 -71 ZM306 67 q87 0 151 59.5 q64 59.5 64 143.5 q0 84 -64 144 q-64 60 -151 60 q-86 0 -146.5 -59.5 q-60.5 -59.5 -60.5 -144.5 q0 -85 60.5 -144 q60.5 -59 146.5 -59 Z" /><glyph glyph-name="r" unicode="r" d="M143 526 l0 -64 q67 64 161 64 q25 0 55 -7 l0 -75 q-31 11 -55 11 q-65 0 -112.5 -46 q-47.5 -46 -48.5 -111 l0 -298 l-71 0 l0 526 l71 0 Z" /><glyph glyph-name="s" unicode="s" d="M321 434 l45 47 q-76 74 -151 74 q-63 0 -107 -41 q-42 -42 -42 -103 q0 -45 26 -85 q23 -33 101 -75 q72 -38 88 -57 q19 -23 19 -55 q0 -35 -30 -63 q-30 -27 -71 -27 q-59 0 -114 61 l-44 -51 q27 -36 71 -56 q45 -20 90 -20 q70 0 117 46 q48 48 48 113 q0 46 -28 86 q-26 36 -107 78 q-63 32 -84 58 q-20 25 -20 50 q0 30 25 53 q25 22 58 22 q55 0 110 -55 Z" /><glyph glyph-name="t" unicode="t" d="M205 526 l91 0 l0 -60 l-91 0 l0 -466 l-72 0 l0 466 l-92 0 l0 60 l92 0 l0 228 l72 0 l0 -228 Z" /><glyph glyph-name="u" unicode="u" d="M445 0 l0 47 q-31 -30 -78 -47 q-47 -17 -94 -17 q-83 0 -150 64 q-72 70 -72 168 l0 311 l72 0 l0 -315 q2 -66 44 -111.5 q42 -45.5 106 -45.5 q67 0 118.5 46 q51.5 46 53.5 111 l0 315 l72 0 l0 -526 l-72 0 Z" /><glyph glyph-name="v" unicode="v" d="M269 159 l169 367 l79 0 l-248 -539 l-249 539 l79 0 l170 -367 Z" /><glyph glyph-name="w" unicode="w" d="M610 167 l156 362 l79 0 l-234 -542 l-179 406 l-178 -406 l-234 542 l79 0 l156 -362 l177 405 l178 -405 Z" /><glyph glyph-name="x" unicode="x" d="M539 526 l-204 -252 l222 -274 l-93 0 l-175 217 l-176 -217 l-93 0 l223 274 l-204 252 l93 0 l157 -194 l156 194 l94 0 Z" /><glyph glyph-name="y" unicode="y" d="M280 160 l169 366 l78 0 l-347 -753 l-80 0 l140 301 l-209 452 l79 0 l170 -366 Z" /><glyph glyph-name="z" unicode="z" d="M48 526 l492 0 l-378 -466 l352 0 l0 -60 l-494 0 l378 466 l-350 0 l0 60 Z" /><glyph glyph-name="braceleft" unicode="{" d="M452 859 l-28 0 q-43 0 -63 -5 q-32 -9 -54 -31 q-21 -23 -31 -56 q-10 -40 -10 -118 q-2 -103 -2 -105 q-3 -47 -15 -73 q-12 -25 -37 -40 q-18 -10 -49 -12 l0 -81 q35 -1 59 -19 q26 -19 34 -51 q10 -37 10 -124 q0 -85 5 -122 q6 -47 26 -75 q23 -29 54 -40 q20 -8 73 -8 l28 0 l0 77 q-48 0 -65 7 q-15 6 -21 15 q-11 16 -14 42 q-2 22 -2 114 q0 106 -24 154 q-24 48 -80 71 q51 23 71 56 q24 36 30 94 q3 33 3 149 q0 63 18 84 q16 18 68 18 l16 0 l0 79 Z" /><glyph glyph-name="bar" unicode="|" d="M271 856 l72 0 l0 -954 l-72 0 l0 954 Z" /><glyph glyph-name="braceright" unicode="}" d="M452 338 l0 81 q-38 2 -61 19 q-24 18 -33 50 q-10 31 -10 125 q-2 99 -5 123 q-6 47 -27 74 q-21 30 -53 40 q-22 9 -73 9 l-27 0 l0 -79 l15 0 q46 0 60 -10 q15 -10 21 -37 q4 -16 4 -129 q0 -101 24 -151 q23 -47 81 -74 q-45 -19 -69 -53 q-25 -35 -32 -95 q-4 -44 -4 -152 q0 -66 -16 -83 q-18 -20 -69 -20 l-15 0 l0 -77 l27 0 q47 0 63 5 q34 9 53 30 q21 20 32 57 q10 40 10 118 q2 103 2 105 q1 45 16 73 q13 25 36 40 q19 11 50 11 Z" /><glyph glyph-name="asciitilde" unicode="~" d="M561 329 l0 82 q-61 -39 -84 -49 q-22 -8 -43 -8 q-14 0 -39 7 q-14 4 -81 35 q-84 40 -134 40 q-26 0 -47 -8 q-19 -6 -80 -39 l0 -81 q53 33 83 43 q24 10 48 10 q16 0 34 -6 q22 -7 85 -36 q80 -37 132 -37 q25 0 46 8 q20 7 80 39 Z" /><glyph glyph-name="less" unicode="&lt;" d="M565 98 l-505 232 l-11 6 l0 67 l11 7 l505 230 l0 -79 l-418 -191 l418 -192 l0 -80 Z" /><glyph glyph-name="periodcentered" unicode="·" d="M269 343 l77 0 l0 -77 l-77 0 l0 77 Z" /><glyph glyph-name="greater" unicode="&gt;" d="M49 640 l505 -230 l11 -7 l0 -67 l-11 -6 l-505 -232 l0 80 l418 192 l-418 191 l0 79 Z" /><glyph glyph-name="addstar" unicode="&#xe000;" d="M78 33 l561 0 q32 0 55 23 q23 23 23 55 l0 393 q0 32 -23 55 q-23 23 -55 23 l-561 0 q-32 0 -55 -23 q-23 -23 -23 -55 l0 -393 q0 -32 23 -55 q23 -23 55 -23 ZM42 111 l0 393 q0 14 11 24.5 q11 10.5 25 10.5 l561 0 q14 0 25 -10.5 q11 -10.5 11 -24.5 l0 -393 q0 -14 -11 -24.5 q-11 -10.5 -25 -10.5 l-561 0 q-14 0 -25 10.5 q-11 10.5 -11 24.5 ZM136 130 l114 60 l114 -60 l-22 127 l92 89 l-127 20 l-57 114 l-56 -114 l-128 -20 l92 -89 l-22 -127 ZM562 307 l80 0 l0 -45 l-80 0 l0 -81 l-46 0 l0 81 l-81 0 l0 45 l81 0 l0 81 l46 0 l0 -81 Z" /><glyph glyph-name="adjust" unicode="&#xe001;" d="M105 561 q105 105 253 105 q148 0 253.5 -105 q105.5 -105 105.5 -254 q0 -148 -105 -253 q-105 -105 -254 -105 q-148 0 -253 104.5 q-105 104.5 -105 253.5 q0 149 105 254 ZM358 603 l0 -592 q123 0 209.5 86.5 q86.5 86.5 86.5 209.5 q0 123 -86.5 209.5 q-86.5 86.5 -209.5 86.5 Z" /><glyph glyph-name="album" unicode="&#xe002;" d="M81 666 l434 0 q34 0 57.5 -24 q23.5 -24 23.5 -57 l0 -475 q0 -32 -23 -55.5 q-23 -23.5 -55 -25.5 l0 54 q10 2 17 9.5 q7 7.5 7 17.5 l0 475 q0 10 -8 18 q-8 8 -19 8 l-434 0 q-11 0 -19 -8 q-8 -8 -8 -18 q10 2 18 2 q9 0 14 -1 l325 -49 q33 -6 54.5 -32.5 q21.5 -26.5 21.5 -59.5 l0 -423 q0 -32 -20 -52.5 q-20 -20.5 -51 -20.5 q-10 0 -15 1 l-324 49 q-32 6 -54.5 32.5 q-22.5 26.5 -22.5 58.5 l0 495 q0 33 24 57 q24 24 57 24 ZM97 411 l285 -42 l7 49 l-285 42 l-7 -49 ZM157 368 l-4 -30 l158 -24 l4 30 l-158 24 Z" /><glyph glyph-name="alignadjust" unicode="&#xe003;" d="M29 604 l609 0 q11 0 19.5 -8 q8.5 -8 8.5 -19 l0 -41 q0 -12 -8.5 -20.5 q-8.5 -8.5 -19.5 -8.5 l-609 0 q-12 0 -20.5 8.5 q-8.5 8.5 -8.5 20.5 l0 41 q0 11 8.5 19 q8.5 8 20.5 8 ZM29 438 l609 0 q11 0 19.5 -8 q8.5 -8 8.5 -18 l0 -42 q0 -11 -8.5 -19.5 q-8.5 -8.5 -19.5 -8.5 l-609 0 q-12 0 -20.5 8.5 q-8.5 8.5 -8.5 19.5 l0 42 q0 11 8.5 18.5 q8.5 7.5 20.5 7.5 ZM29 272 l609 0 q11 0 19.5 -8 q8.5 -8 8.5 -18 l0 -42 q0 -11 -8.5 -19.5 q-8.5 -8.5 -19.5 -8.5 l-609 0 q-12 0 -20.5 8.5 q-8.5 8.5 -8.5 19.5 l0 42 q0 11 8.5 18.5 q8.5 7.5 20.5 7.5 ZM29 108 l609 0 q11 0 19.5 -8.5 q8.5 -8.5 8.5 -19.5 l0 -41 q0 -12 -8.5 -20.5 q-8.5 -8.5 -19.5 -8.5 l-609 0 q-12 0 -20.5 8.5 q-8.5 8.5 -8.5 20.5 l0 41 q0 11 8.5 19.5 q8.5 8.5 20.5 8.5 Z" /><glyph glyph-name="aligncenter" unicode="&#xe004;" d="M500 507 l-333 0 q-12 0 -20.5 8.5 q-8.5 8.5 -8.5 19.5 l0 42 q0 11 8.5 19 q8.5 8 20.5 8 l333 0 q10 0 18.5 -8 q8.5 -8 8.5 -19 l0 -42 q0 -11 -8 -19.5 q-8 -8.5 -19 -8.5 ZM610 345 l-555 0 q-11 0 -19 8 q-8 8 -8 20 l0 41 q0 12 8 19.5 q8 7.5 19 7.5 l555 0 q12 0 20 -7.5 q8 -7.5 8 -19.5 l0 -41 q0 -12 -8.5 -20 q-8.5 -8 -19.5 -8 ZM527 182 l-388 0 q-12 0 -20 8.5 q-8 8.5 -8 19.5 l0 42 q0 11 8 19.5 q8 8.5 20 8.5 l388 0 q11 0 19.5 -8.5 q8.5 -8.5 8.5 -19.5 l0 -42 q0 -11 -8.5 -19.5 q-8.5 -8.5 -19.5 -8.5 ZM29 108 l609 0 q11 0 19.5 -8.5 q8.5 -8.5 8.5 -19.5 l0 -41 q0 -12 -8.5 -20.5 q-8.5 -8.5 -19.5 -8.5 l-609 0 q-12 0 -20.5 8.5 q-8.5 8.5 -8.5 20.5 l0 41 q0 11 8.5 19.5 q8.5 8.5 20.5 8.5 Z" /><glyph glyph-name="alignleft" unicode="&#xe005;" d="M0 577 l0 -42 q0 -11 8.5 -19.5 q8.5 -8.5 20.5 -8.5 l331 0 q11 0 19.5 8.5 q8.5 8.5 8.5 19.5 l0 42 q0 11 -8.5 19 q-8.5 8 -19.5 8 l-331 0 q-12 0 -20.5 -8 q-8.5 -8 -8.5 -19 ZM0 414 l0 -41 q0 -12 8.5 -20 q8.5 -8 20.5 -8 l554 0 q11 0 19 8 q8 8 8 20 l0 41 q0 11 -8 19 q-8 8 -19 8 l-554 0 q-12 0 -20.5 -8 q-8.5 -8 -8.5 -19 ZM0 252 l0 -42 q0 -11 8.5 -19.5 q8.5 -8.5 20.5 -8.5 l388 0 q10 0 18 8.5 q8 8.5 8 19.5 l0 42 q0 11 -8 19.5 q-8 8.5 -18 8.5 l-388 0 q-12 0 -20.5 -8.5 q-8.5 -8.5 -8.5 -19.5 ZM0 80 l0 -41 q0 -12 8.5 -20.5 q8.5 -8.5 20.5 -8.5 l609 0 q11 0 19.5 8.5 q8.5 8.5 8.5 20.5 l0 41 q0 11 -8.5 19.5 q-8.5 8.5 -19.5 8.5 l-609 0 q-12 0 -20.5 -8.5 q-8.5 -8.5 -8.5 -19.5 Z" /><glyph glyph-name="alignright" unicode="&#xe006;" d="M638 507 l-333 0 q-11 0 -19 8.5 q-8 8.5 -8 19.5 l0 42 q0 11 8 19 q8 8 19 8 l333 0 q11 0 19.5 -8 q8.5 -8 8.5 -19 l0 -42 q0 -11 -8.5 -19.5 q-8.5 -8.5 -19.5 -8.5 ZM638 345 l-555 0 q-11 0 -19.5 8 q-8.5 8 -8.5 20 l0 41 q0 12 8 19.5 q8 7.5 20 7.5 l555 0 q12 0 20 -7.5 q8 -7.5 8 -19.5 l0 -41 q0 -12 -8.5 -20 q-8.5 -8 -19.5 -8 ZM638 182 l-388 0 q-11 0 -19.5 8.5 q-8.5 8.5 -8.5 19.5 l0 42 q0 11 8.5 19.5 q8.5 8.5 19.5 8.5 l388 0 q11 0 19.5 -8.5 q8.5 -8.5 8.5 -19.5 l0 -42 q0 -11 -8.5 -19.5 q-8.5 -8.5 -19.5 -8.5 ZM29 108 l609 0 q11 0 19.5 -8.5 q8.5 -8.5 8.5 -19.5 l0 -41 q0 -12 -8.5 -20.5 q-8.5 -8.5 -19.5 -8.5 l-609 0 q-12 0 -20.5 8.5 q-8.5 8.5 -8.5 20.5 l0 41 q0 11 8.5 19.5 q8.5 8.5 20.5 8.5 Z" /><glyph glyph-name="amazon" unicode="&#xe007;" d="M525 438 l0 -155 q0 -11 2 -21.5 q2 -10.5 3.5 -17.5 q1.5 -7 7 -16.5 q5.5 -9.5 7.5 -13 q2 -3.5 9 -13.5 q7 -10 9 -12 q11 -16 -1 -26 q-5 -4 -35 -30.5 q-30 -26.5 -41 -36.5 l-1 1 q-10 -10 -23 -3 q-28 24 -58 67 q-41 -42 -75.5 -57.5 q-34.5 -15.5 -88.5 -15.5 q-66 0 -108 41 q-42 41 -42 116 q0 116 107 163 q19 8 46 14.5 q27 6.5 45 9 q18 2.5 52.5 6 q34.5 3.5 44.5 4.5 l0 14 q0 54 -12 71 q-18 27 -57 27 q-30 0 -51.5 -15 q-21.5 -15 -27.5 -45 q-4 -17 -18 -19 l-97 10 q-18 5 -14 22 q15 81 77.5 116.5 q62.5 35.5 145.5 35.5 q98 0 150 -49 q8 -8 14.5 -15.5 q6.5 -7.5 11 -17.5 q4.5 -10 8 -17 q3.5 -7 5.5 -19.5 q2 -12.5 3 -18.5 q1 -6 1.5 -21 q0.5 -15 0.5 -20 q0 -5 0 -22 q0 -17 0 -21 ZM385 341 l0 21 q-148 0 -148 -101 q0 -33 16 -52.5 q16 -19.5 44 -19.5 q45 0 70 45 q18 33 18 107 ZM681 150 q12 -11 -8 -93 q-1 -5 2.5 -6.5 q3.5 -1.5 7.5 3.5 q17 19 26.5 48.5 q9.5 29.5 8 49 q-1.5 19.5 -5.5 27.5 q-6 6 -27.5 6.5 q-21.5 0.5 -50.5 -8.5 q-29 -9 -48 -26 q-3 -3 -3.5 -6 q-0.5 -3 1.5 -4.5 q2 -1.5 5 -0.5 q83 19 92 10 ZM653 108 q9 8 2.5 15 q-6.5 7 -15.5 2 q-132 -78 -261 -96 q-172 -23 -369 58 q-7 3 -9.5 -2 q-2.5 -5 3.5 -9 q184 -128 372 -103 q73 10 148.5 46.5 q75.5 36.5 128.5 88.5 Z" /><glyph glyph-name="android" unicode="&#xe008;" d="M466 680 l-39 -55 q47 -22 76.5 -61 q29.5 -39 33.5 -85 l-416 0 q4 47 33 85.5 q29 38.5 76 60.5 l-39 55 q-3 6 2 10 q5 3 10 -2 l40 -58 q42 16 86 16 q43 0 86 -16 l40 58 q4 6 9 2 q5 -4 2 -10 ZM241 537 q10 0 16.5 6.5 q6.5 6.5 6.5 16.5 q0 9 -6.5 16 q-6.5 7 -16.5 7 q-9 0 -16 -7 q-7 -7 -7 -16 q0 -10 7 -16.5 q7 -6.5 16 -6.5 ZM419 537 q10 0 16.5 6.5 q6.5 6.5 6.5 16.5 q0 9 -6.5 16 q-6.5 7 -16.5 7 q-9 0 -16 -7 q-7 -7 -7 -16 q0 -10 7 -16.5 q7 -6.5 16 -6.5 ZM0 218 l0 185 q0 20 13.5 34 q13.5 14 33.5 14 q19 0 32.5 -14 q13.5 -14 13.5 -34 l0 -185 q0 -20 -13.5 -34 q-13.5 -14 -32.5 -14 q-20 0 -33.5 14 q-13.5 14 -13.5 34 ZM563 218 l0 185 q0 20 14 34 q14 14 33 14 q19 0 33 -14 q14 -14 14 -34 l0 -185 q0 -20 -13.5 -34 q-13.5 -14 -33.5 -14 q-20 0 -33.5 14 q-13.5 14 -13.5 34 ZM122 111 l0 339 l416 0 l0 -339 q0 -15 -11 -26 q-11 -11 -26 -11 l-41 0 l0 -105 q0 -19 -14 -33 q-14 -14 -33 -14 q-19 0 -33 14 q-14 14 -14 33 l0 105 l-73 0 l0 -105 q0 -20 -13.5 -33.5 q-13.5 -13.5 -32.5 -13.5 q-20 0 -33.5 13.5 q-13.5 13.5 -13.5 33.5 l0 105 l-42 0 q-14 0 -25 11 q-11 11 -11 26 Z" /><glyph glyph-name="app" unicode="&#xe009;" d="M577 244 l-3 -2 q-26 -14 -29 -14 q-3 -1 -7 -3 q-42 78 -57 104 q-23 43 -80.5 174.5 q-57.5 131.5 -61.5 144.5 q-4 18 7 24 q1 1 5 1 q8 0 17 -7 q3 -3 35.5 -52 q32.5 -49 77 -121.5 q44.5 -72.5 73.5 -124.5 q17 -30 29.5 -54 q12.5 -24 19 -35 q6.5 -11 7.5 -14 q-4 -2 -6 -4 q-5 -7 -24 -16 l-1 0 l-2 -1 ZM353 544 l13 -7 q16 -9 20.5 -26.5 q4.5 -17.5 -4.5 -33.5 l-87 50 q13 22 37 22 q14 0 21 -5 ZM368 453 l1 -1 q2 -1 2.5 -4 q0.5 -3 -0.5 -4 q-1 -3 -5 -3 l-4 0 l-1 1 l-3 -5 l1 0 q5 -3 3 -8 q-3 -3 -5 -3 q-2 0 -3 1 l-1 1 l-6 -11 l1 -1 q4 -2 2 -7 q-2 -3 -5 -3 q-2 0 -3 1 l-1 0 l-3 -5 l1 -1 q5 -3 2 -8 q-1 -3 -4 -3 q-1 0 -1 0 l-2 1 l-1 1 l-3 -4 l-4 -7 l-87 50 l4 7 l3 4 l-1 1 q-2 1 -3 4 q-1 3 1 4 q1 3 4 3 q2 0 3 -1 l1 0 l3 4 l-1 1 q-5 3 -2 8 q1 3 5 3 l1 -1 q1 0 2 0 l1 -1 l6 11 l-1 0 q-5 3 -2 8 q1 3 4 3 q1 0 3 -1 l1 -1 l3 6 l-1 1 q-2 1 -3 3.5 q-1 2.5 1 3.5 q1 3 5 3 l4 0 l1 -1 l4 7 l87 -50 l-4 -7 ZM56 115 l172 298 l87 -51 l-172 -297 l-4 -7 q-18 7 -44 22 q-26 17 -42 29 l1 3 l2 3 ZM0 159 l0 149 l133 0 l-87 -149 l-46 0 ZM521 191 l14 -21 l5 -5 l3 -6 l-311 0 l87 149 l139 0 q55 -99 55 -102 q3 -5 5 -6 l3 -9 ZM657 239 l-9 21 q-4 6 -5 7 q-2 6 -3 8 l-8 16 q-6 10 -10 17 l146 0 l0 -149 l-75 0 l-1 2 q0 2 0 3 l-11 23 q-3 6 -4 7 q0 3 -2 7 l-10 23 q-1 1 -3 3 q-2 2 -2 3 q0 1 -1 3 q-1 2 -1.5 3.5 q-0.5 1.5 -0.5 2.5 ZM653 174 l10 -20 l1 -3 q-15 -13 -28 -20 l-31 -13 l-3 4 l-11 18 l0 8 l-8 6 l-15 21 l0 7 l-7 5 l-8 13 l-5 8 q11 2 37 16 q1 0 1 0.5 q0 0.5 1 0.5 q1 0 1 0.5 q0 0.5 1 0.5 q25 13 31 22 l4 -9 l6 -13 l0 -11 l7 -4 l10 -23 l-1 -10 l7 -4 ZM670 129 l84 -126 q8 -15 2 -31 q-6 -16 -21 -24 q-11 -6 -22 -6 q-23 0 -35 19 l-61 139 q21 9 29 13 q19 12 24 16 ZM32 -42 l-5 -9 q-1 -3 -7 -3 l-1 0 q-2 0 -2 1 q-1 0 -1 0.5 q0 0.5 -1 0.5 q-3 3 -1 8 l5 9 l29 122 q20 -15 37 -25 q17 -10 38 -18 l-91 -86 Z" /><glyph glyph-name="apple" unicode="&#xe00a;" d="M426 588 q13 36 13 59 q0 1 -0.5 4 q-0.5 3 -0.5 4 q0 3 -2 11 q-73 -16 -107 -65 q-32 -46 -34 -111 q25 3 44 8 q23 8 47 30 q27 27 40 60 ZM369 488 q-42 -14 -62 -14 q-13 0 -59 12 q-47 14 -77 14 q-73 0 -123 -63 q-48 -63 -48 -161 q0 -106 63 -217 q64 -110 130 -110 q18 0 57 14 q36 14 61 14 q29 0 65 -13 q38 -13 61 -13 q55 0 111 83 q18 27 32 55 q11 22 21 52 q-40 12 -69 55 q-29 44 -29 96 q0 48 27 89 q19 24 50 51 q-10 14 -22 25 q-14 12 -22 18 q-44 28 -93 28 q-26 0 -74 -15 Z" /><glyph glyph-name="arrowdown" unicode="&#xe00b;" d="M466 654 l-215 0 q-19 0 -32 -13 q-13 -13 -13 -33 l0 -250 l-170 0 q-24 0 -34 -22 q-2 -10 -2 -12 q0 -16 10 -26 l324 -323 q9 -11 24 -11 q15 0 26 11 l323 323 q17 15 7.5 37.5 q-9.5 22.5 -33.5 22.5 l-171 0 l0 250 q0 20 -12.5 33 q-12.5 13 -31.5 13 Z" /><glyph glyph-name="arrowleft" unicode="&#xe00c;" d="M689 206 l0 215 q0 19 -12.5 32 q-12.5 13 -32.5 13 l-250 0 l0 170 q0 23 -22 34 q-10 2 -14 2 q-15 0 -24 -10 l-324 -324 q-10 -9 -10 -24 q0 -15 10 -26 l324 -324 q15 -17 37.5 -7.5 q22.5 9.5 22.5 33.5 l0 172 l250 0 q20 0 32.5 12.5 q12.5 12.5 12.5 31.5 Z" /><glyph glyph-name="arrowright" unicode="&#xe00d;" d="M0 410 l0 -215 q0 -20 13 -32.5 q13 -12.5 33 -12.5 l250 0 l0 -172 q0 -23 22 -33 q8 -2 13 -2 q15 0 25 10 l323 325 q11 9 11 24.5 q0 15.5 -11 25.5 l-323 322 q-15 17 -37.5 8 q-22.5 -9 -22.5 -33 l0 -171 l-250 0 q-20 0 -33 -12.5 q-13 -12.5 -13 -31.5 Z" /><glyph glyph-name="arrowup" unicode="&#xe00e;" d="M251 -40 l215 0 q19 0 32 13 q13 13 13 33 l0 250 l170 0 q25 0 34 23 q2 5 2 12 q0 15 -10 25 l-324 323 q-8 11 -23.5 11 q-15.5 0 -26.5 -11 l-323 -323 q-17 -15 -7.5 -37.5 q9.5 -22.5 33.5 -22.5 l171 0 l0 -250 q0 -20 12.5 -33 q12.5 -13 31.5 -13 Z" /><glyph glyph-name="back" unicode="&#xe00f;" d="M489 589 l0 -563 l-489 281 l489 282 Z" /><glyph glyph-name="backspace" unicode="&#xe010;" d="M253 560 l452 0 q26 0 44.5 -18.5 q18.5 -18.5 18.5 -44.5 l0 -379 q0 -26 -18.5 -45 q-18.5 -19 -44.5 -19 l-452 0 l-253 253 l253 253 ZM566 152 l57 56 l-100 99 l100 99 l-57 57 l-99 -99 l-98 99 l-57 -56 l99 -100 l-99 -98 l57 -56 l99 98 l98 -99 Z" /><glyph glyph-name="bad" unicode="&#xe011;" d="M505 532 l0 37 l109 0 l0 70 q0 0 -371 0 q-10 0 -25 -11.5 q-15 -11.5 -24 -22.5 l-10 -11 l0 -319 q9 -7 23.5 -19 q14.5 -12 46.5 -48 q32 -36 48 -69 q16 -34 24.5 -75 q8.5 -41 9.5 -65 l0 -24 l94 0 q4 72 0 129 q-2 26 -8 58 q-6 32 -11 52 l-5 19 l260 0 l0 82 l-161 0 l0 37 l161 0 l0 73 l-161 0 l0 37 l130 0 l0 70 l-130 0 ZM0 590 l142 0 l0 -308 l-142 0 l0 308 Z" /><glyph glyph-name="ban" unicode="&#xe012;" d="M651 512 q74 -103 63.5 -234.5 q-10.5 -131.5 -103.5 -224.5 q-93 -93 -223.5 -103.5 q-130.5 -10.5 -234.5 63.5 q-31 23 -49 40 q-21 21 -39 49 q-74 103 -64 234.5 q10 131.5 103 224.5 q93 93 224 103.5 q131 10.5 235 -63.5 q26 -20 48 -40 q23 -23 40 -49 ZM129 167 l370 370 q-77 48 -171 37.5 q-94 -10.5 -160 -76.5 q-67 -67 -77 -161 q-10 -94 38 -170 ZM587 447 l-370 -369 q77 -48 171 -37.5 q94 10.5 160 76.5 q67 67 77 160.5 q10 93.5 -38 169.5 Z" /><glyph glyph-name="barcode" unicode="&#xe013;" d="M0 10 l25 0 l0 594 l-25 0 l0 -594 ZM75 10 l49 0 l0 594 l-49 0 l0 -594 ZM173 10 l50 0 l0 594 l-50 0 l0 -594 ZM272 10 l100 0 l0 594 l-100 0 l0 -594 ZM421 10 l75 0 l0 594 l-75 0 l0 -594 ZM545 10 l50 0 l0 594 l-50 0 l0 -594 ZM644 10 l25 0 l0 594 l-25 0 l0 -594 ZM719 10 l49 0 l0 594 l-49 0 l0 -594 Z" /><glyph glyph-name="bell" unicode="&#xe014;" d="M282 11 l-205 0 q-31 0 -53.5 20 q-22.5 20 -23.5 50 q82 62 123 163 q29 75 38 202 q6 70 80 126 q41 29 80 42 q0 2 -1 4.5 q-1 2.5 -1 3.5 q0 27 19 45.5 q19 18.5 46 18.5 q27 0 46 -18.5 q19 -18.5 19 -45.5 q0 -1 -1 -4 q-1 -3 -1 -4 q39 -13 81 -41 q79 -57 79 -124 q7 -122 40 -204 q41 -103 121 -164 q-1 -30 -23.5 -50 q-22.5 -20 -53.5 -20 l-205 0 q-8 -36 -36 -59.5 q-28 -23.5 -65 -23.5 q-37 0 -66 23.5 q-29 23.5 -37 59.5 ZM103 81 l562 0 q-66 73 -94 168 q-25 80 -32 190 q-3 44 -58 83 q-46 34 -96 34 q-43 0 -97 -34 q-57 -36 -58 -80 q-5 -102 -31 -191 q-31 -96 -96 -170 ZM385 -40 q7 0 7 8 q0 9 -7 9 q-24 0 -40 16.5 q-16 16.5 -16 39.5 q0 9 -8 9 q-10 0 -10 -9 q0 -30 21.5 -51.5 q21.5 -21.5 52.5 -21.5 Z" /><glyph glyph-name="bicycle" unicode="&#xe015;" d="M573 428 l56 -60 q53 33 108 33 q76 0 130.5 -54.5 q54.5 -54.5 54.5 -130.5 q0 -76 -54.5 -130 q-54.5 -54 -130.5 -54 q-68 0 -119.5 43.5 q-51.5 43.5 -62.5 109.5 l-83 -5 l-1 0 q-7 0 -17 8 l-170 211 l-10 -21 q43 -25 69.5 -68 q26.5 -43 26.5 -94 q0 -76 -54.5 -130 q-54.5 -54 -131.5 -54 q-76 0 -130 54 q-54 54 -54 130 q0 76 54 130.5 q54 54.5 130 54.5 q21 0 46 -5 l42 110 l-115 31 q-8 2 -13 10 q-5 8 -3 16 q7 22 28 17 l138 -39 q12 -2 15 -12 q4 -8 1 -17 l-10 -23 l221 -42 l29 87 l-40 -3 l-1 0 q-9 0 -15.5 7 q-6.5 7 -6.5 16 q0 9 6.5 15.5 q6.5 6.5 15.5 7.5 l130 6 q9 0 16 -6.5 q7 -6.5 7 -15.5 q1 -9 -5.5 -15.5 q-6.5 -6.5 -15.5 -7.5 l-44 -2 l-37 -108 ZM463 249 l55 157 l-215 39 l160 -196 ZM503 226 l50 3 q3 61 44 108 l-41 44 l-53 -155 ZM166 225 l48 128 q-14 3 -30 3 q-58 0 -98.5 -41 q-40.5 -41 -40.5 -99 q0 -58 40.5 -98.5 q40.5 -40.5 98.5 -40.5 q58 0 99.5 40.5 q41.5 40.5 41.5 98.5 q0 38 -18 70 q-18 32 -49 50 l-50 -127 q-9 -19 -30 -12 q-19 9 -12 28 ZM737 195 l-137 -8 q11 -48 49 -79 q38 -31 88 -31 q58 0 99 40.5 q41 40.5 41 98.5 q0 58 -41 99 q-41 41 -99 41 q-45 0 -77 -22 l93 -103 q10 -13 4 -23 q-5 -13 -20 -13 ZM598 231 l91 5 l-62 68 q-26 -36 -29 -73 Z" /><glyph glyph-name="bold" unicode="&#xe01f;" d="M0 2 l0 -43 q53 2 82 3 q12 0 26 0.5 q14 0.5 16 0.5 q94 7 137 6 l90 -2 q114 0 184 32 q33 16 63 49 q22 22 33 53 q12 40 12 73 q0 62 -42 108.5 q-42 46.5 -121 64.5 q27 13 44 22 q24 13 25 14 q57 42 57 105 q0 30 -9 55 q-19 54 -77 82 q-22 13 -44 17 q-45 12 -87 12 l-35 0 q-13 0 -17 1 l-10 0 l-6 0 q-5 0 -8 -1 l-20 0 l-173 -5 l-119 -3 l2 -38 q42 -6 52 -6 q21 0 31 -7 q4 0 6 -4 q4 -13 5 -50 q2 -50 2 -120 q2 -57 3 -64 l0 -225 q0 -63 -5 -88 q-1 -10 -9 -22 q-26 -11 -56 -15 q-26 -4 -32 -5 ZM247 362 l0 79 q2 44 -1 127 q-2 14 -2 34 q34 7 59 7 q79 0 117 -35 q39 -33 39 -85 q0 -70 -40 -100.5 q-40 -30.5 -122 -30.5 q-30 0 -50 4 ZM247 166 l0 144 q20 4 46 4 q77 2 114 -14 q37 -14 60 -51 q23 -37 23 -88 q0 -44 -18 -82 q-18 -34 -55 -51 q-38 -18 -85 -18.5 q-47 -0.5 -79 14.5 q-4 11 -4 19 l-2 123 Z" /><glyph glyph-name="book" unicode="&#xe020;" d="M0 53 l0 432 q2 3 6.5 8.5 q4.5 5.5 21.5 19.5 q17 14 37.5 24.5 q20.5 10.5 55.5 19.5 q35 9 75 9 q40 0 74 -8 q34 -8 54 -19 q20 -11 34.5 -22.5 q14.5 -11.5 19.5 -19.5 l6 -8 q2 3 6 8.5 q4 5.5 19.5 18.5 q15.5 13 34.5 23 q19 10 53.5 18.5 q34.5 8.5 74.5 8.5 q40 0 74.5 -8.5 q34.5 -8.5 56 -20 q21.5 -11.5 37 -23.5 q15.5 -12 22.5 -20 l6 -9 l0 -432 q-11 8 -29.5 19.5 q-18.5 11.5 -70.5 31 q-52 19.5 -98 19.5 q-45 0 -91.5 -18.5 q-46.5 -18.5 -70.5 -37.5 l-24 -19 q-9 8 -26 20.5 q-17 12.5 -66 33.5 q-49 21 -94 21 q-46 0 -95.5 -17.5 q-49.5 -17.5 -76.5 -35.5 l-26 -17 ZM65 468 l0 -314 q41 31 139 31 q43 0 80 -14.5 q37 -14.5 52 -28.5 l16 -15 l0 327 q-8 6 -21.5 14 q-13.5 8 -54.5 22 q-41 14 -80 14 q-38 0 -71 -9 q-33 -9 -47 -18 l-13 -9 ZM416 454 l0 -327 q5 6 16 16 q11 10 49.5 26 q38.5 16 82.5 16 q44 0 79 -7.5 q35 -7.5 47 -15.5 l13 -8 l0 314 q-45 36 -131 36 q-39 0 -78 -12.5 q-39 -12.5 -58 -25.5 l-20 -12 Z" /><glyph glyph-name="bookmark" unicode="&#xe021;" d="M39 640 l495 0 q30 0 50.5 -22 q20.5 -22 20.5 -53 l0 -506 q0 -38 -21.5 -61.5 q-21.5 -23.5 -55.5 -23.5 l-485 0 q-21 0 -32 12.5 q-11 12.5 -11 25.5 l0 591 q0 15 10.5 26 q10.5 11 28.5 11 ZM134 16 l394 0 q35 0 35 43 l0 506 q0 12 -8.5 22.5 q-8.5 10.5 -20.5 10.5 l-47 0 l0 -383 l-138 44 l-134 -44 l0 383 l-81 0 l0 -582 ZM278 438 l0 -37 l55 0 l0 -56 l37 0 l0 56 l55 0 l0 37 l-55 0 l0 56 l-37 0 l0 -56 l-55 0 Z" /><glyph glyph-name="building" unicode="&#xe023;" d="M41 655 l525 0 q17 0 29 -12 q12 -12 12 -29 l0 -592 q0 -17 -12 -29 q-12 -12 -29 -12 l-135 0 l0 133 l-255 0 l0 -133 l-135 0 q-17 0 -29 12 q-12 12 -12 29 l0 592 q0 17 12 29 q12 12 29 12 ZM90 521 l427 0 l0 50 l-427 0 l0 -50 ZM90 406 l427 0 l0 50 l-427 0 l0 -50 ZM90 291 l427 0 l0 50 l-427 0 l0 -50 ZM90 176 l427 0 l0 50 l-427 0 l0 -50 ZM290 -41 l-87 0 l0 128 l87 0 l0 -128 ZM404 -41 l-87 0 l0 128 l87 0 l0 -128 Z" /><glyph glyph-name="bus" unicode="&#xe024;" d="M0 106 l0 434 q0 24 19 43 q1 1 10 7 q0 0 1 0 q73 56 183 79 q60 11 120 11 q60 0 120 -11 q110 -23 183 -79 l1 0 q6 -4 9 -7 q20 -20 20 -43 l0 -434 q0 -24 -14.5 -41.5 q-14.5 -17.5 -36.5 -22.5 l0 -58 q0 -20 -14.5 -35 q-14.5 -15 -34.5 -15 q-21 0 -35.5 15 q-14.5 15 -14.5 35 l0 56 l-366 0 l0 -56 q0 -20 -15 -35 q-15 -15 -35 -15 q-21 0 -35.5 15 q-14.5 15 -14.5 35 l0 58 q-22 5 -36 22.5 q-14 17.5 -14 41.5 ZM500 605 l-334 0 q-14 0 -23.5 -9.5 q-9.5 -9.5 -9.5 -23.5 q0 -13 10 -22.5 q10 -9.5 23 -9.5 l334 0 q13 0 22.5 9.5 q9.5 9.5 9.5 22.5 q0 14 -9.5 23.5 q-9.5 9.5 -22.5 9.5 ZM100 273 l465 0 q13 0 23 10 q10 10 10 24 l0 165 q0 14 -10 24 q-10 10 -23 10 l-465 0 q-13 0 -22.5 -10 q-9.5 -10 -9.5 -24 l0 -165 q0 -14 9.5 -24 q9.5 -10 22.5 -10 ZM98.5 121.5 q15.5 -15.5 37.5 -15.5 q22 0 37 15.5 q15 15.5 15 37.5 q0 22 -15 37.5 q-15 15.5 -37 15.5 q-22 0 -37.5 -15 q-15.5 -15 -15.5 -38 q0 -22 15.5 -37.5 ZM492 121.5 q15 -15.5 37 -15.5 q22 0 38 15.5 q16 15.5 16 37.5 q0 22 -15.5 37.5 q-15.5 15.5 -38.5 15.5 q-22 0 -37 -15.5 q-15 -15.5 -15 -37.5 q0 -22 15 -37.5 Z" /><glyph glyph-name="camera" unicode="&#xe026;" d="M585 540 l68 0 q35 0 59.5 -24.5 q24.5 -24.5 24.5 -59.5 l0 -364 q0 -34 -24.5 -59 q-24.5 -25 -59.5 -25 l-569 0 q-34 0 -59 25 q-25 25 -25 59 l0 364 q0 35 24.5 59.5 q24.5 24.5 59.5 24.5 l69 0 q42 66 76 66 l279 0 q35 0 77 -66 ZM366 114 q77 0 132 55 q55 55 55 132 q0 78 -55 133 q-55 55 -132 55 q-78 0 -133.5 -55 q-55.5 -55 -55.5 -133 q0 -77 55.5 -132 q55.5 -55 133.5 -55 ZM369 414 q46 0 79 -33 q33 -33 33 -80 q0 -46 -33 -79 q-33 -33 -79 -33 q-46 0 -79.5 33 q-33.5 33 -33.5 79 q0 47 33 80 q33 33 80 33 Z" /><glyph glyph-name="car" unicode="&#xe027;" d="M638 589 l114 -229 q1 -2 4 -10 q12 -31 12 -59 l0 -109 q0 -25 -15.5 -44.5 q-15.5 -19.5 -39.5 -25.5 l0 -64 q0 -23 -16 -39 q-16 -16 -39 -16 q-23 0 -39 16 q-16 16 -16 39 l0 62 l-438 0 l0 -62 q0 -23 -16 -39 q-16 -16 -39 -16 q-23 0 -39 16 q-16 16 -16 39 l0 64 q-24 6 -39.5 25.5 q-15.5 19.5 -15.5 44.5 l0 109 q0 28 12 59 q3 8 4 10 l114 229 q7 13 22.5 23 q15.5 10 30.5 10 l402 0 q15 0 30.5 -10 q15.5 -10 22.5 -23 ZM177 520 l-61 -139 q-3 -5 -3 -15 l542 0 q0 10 -3 15 l-61 139 q-6 14 -21.5 24 q-15.5 10 -29.5 10 l-312 0 q-14 0 -29.5 -10 q-15.5 -10 -21.5 -24 ZM108.5 199 q17.5 -17 41.5 -17 q24 0 40.5 17 q16.5 17 16.5 42 q0 24 -16.5 40.5 q-16.5 16.5 -40.5 16.5 q-24 0 -41.5 -16.5 q-17.5 -16.5 -17.5 -40.5 q0 -25 17.5 -42 ZM577.5 199 q16.5 -17 40.5 -17 q24 0 41.5 17 q17.5 17 17.5 42 q0 24 -17.5 40.5 q-17.5 16.5 -41.5 16.5 q-24 0 -40.5 -16.5 q-16.5 -16.5 -16.5 -40.5 q0 -25 16.5 -42 Z" /><glyph glyph-name="category" unicode="&#xe028;" d="M83 666 l-55 -56 l496 0 l-55 56 l-386 0 ZM551 390 l-551 0 l0 193 l551 0 l0 -193 ZM386 445 l0 55 l-220 0 l0 -55 l27 0 l0 28 l165 0 l0 -28 l28 0 ZM551 169 l-551 0 l0 193 l551 0 l0 -193 ZM386 224 l0 56 l-220 0 l0 -56 l27 0 l0 28 l165 0 l0 -28 l28 0 ZM551 -51 l-551 0 l0 192 l551 0 l0 -192 ZM386 4 l0 55 l-220 0 l0 -55 l27 0 l0 28 l165 0 l0 -28 l28 0 Z" /><glyph glyph-name="check" unicode="&#xe029;" d="M620 657 l-304 -436 l-210 156 l-106 -147 l358 -273 l410 588 l-148 112 Z" /><glyph glyph-name="chrome" unicode="&#xe02c;" d="M680 466 l-322 0 q-42 0 -84 -25 q-71 -45 -74 -129 l-124 215 q51 65 124.5 102 q73.5 37 157.5 37 q104 0 191 -55 q87 -55 131 -145 ZM60 507 l160 -278 q0 -1 1 -1 l1 -2 q21 -37 62 -59 q40 -19 74 -19 q35 0 75 19 l-125 -215 q-131 19 -219.5 119.5 q-88.5 100.5 -88.5 235.5 q0 110 60 200 ZM442 441 l249 0 q26 -67 26 -134 q0 -148 -105 -253 q-105 -105 -254 -105 q-15 0 -23 1 l160 276 q1 0 1 1 q0 1 1 2 q20 37 20 78 l0 5 q-1 40 -21.5 74 q-20.5 34 -53.5 55 ZM273.5 222 q-34.5 35 -34.5 85 q0 50 34.5 85 q34.5 35 84.5 35 q50 0 85 -35 q35 -35 35 -85 q0 -50 -35 -85 q-35 -35 -85 -35 q-50 0 -84.5 35 Z" /><glyph glyph-name="cinnamon" unicode="&#xe02d;" d="M793 333 l26 -26 l-26 -17 l24 -37 l-41 -4 q0 0 16 -32 l-34 5 q0 0 -2 -52 l-19 14 l2 -26 l-26 14 l2 -35 l-10 9 q6 -41 10 -43 q0 0 -31 9 q0 0 -6 -43 l-21 11 l-4 -46 l-13 11 q10 -77 -22 -80 q-20 -2 -37.5 17 q-17.5 19 -23.5 42 l-3 5 q0 0 -31 -31 l-9 28 l-16 -20 q0 -50 -26 -56 q-41 -10 -70 57 q0 0 0 2 q-70 -13 -123 -15 q-2 -15 -12 -26 q-10 -11 -27 -11 q-20 0 -35.5 14 q-15.5 14 -18.5 32 q-2 1 -6 2.5 q-4 1.5 -6 2.5 q-10 -42 -28 -50 q-15 -6 -40.5 4 q-25.5 10 -27.5 27 q-1 5 -1 19 l-37 -13 q4 27 7 33 l-40 20 q13 13 23 20 q1 1 3 2.5 q2 1.5 3 2.5 l-36 18 q22 16 32 21 q-25 12 -32 16 q25 18 34 22 l-8 9 q-8 9 -16 18 l-9 9 q14 6 24 9 q-2 0 -6 6 q-4 6 -9 13.5 q-5 7.5 -8 10.5 q20 5 34 6 l-21 33 q33 1 36 1 l-14 32 q28 -3 36 -7 l-12 36 l29 -2 l-7 38 q39 -14 43 -16 q0 0 -3 25 q1 3 3 0 q21 -25 41 -40 q6 -3 48.5 -20.5 q42.5 -17.5 54.5 -20.5 q15 -5 60 21 q-58 15 -60 25 q0 1 31.5 14.5 q31.5 13.5 47.5 37.5 q12 19 18.5 40 q6.5 21 6.5 33 l1 12 l-14 15 l20 11 q-4 1 -10 10 q-6 9 -13 31 q-7 22 -8 50 q-1 10 -6 26 q-5 16 -9 27 l-4 11 l14 -7 l3 23 l18 -19 q3 2 6.5 7 q3.5 5 5.5 9 l1 4 q0 -12 4 -23 q10 -3 25 -10 q15 -7 34 -20 q19 -13 24 -25 q4 -11 10.5 -21 q6.5 -10 10 -15 q3.5 -5 3.5 -8 q1 3 5 7.5 q4 4.5 7 7.5 l4 3 l-3 -19 l87 -10 l3 20 l11 -10 q37 63 47 85 q4 10 13 20.5 q9 10.5 16 16.5 l6 5 l-16 -33 l45 26 q-23 -17 -20 -26 q12 -21 19.5 -80.5 q7.5 -59.5 -4.5 -82.5 q18 0 17 -3 q-8 -5 -8 -5 l-11 -7 q0 -8 5.5 -26.5 q5.5 -18.5 13.5 -28.5 q25 -31 33 -36 l59 -20 l-26 -20 ZM742 193 l-2 43 q25 -6 29 -4 q-1 6 -5.5 14.5 q-4.5 8.5 -4.5 11.5 l34 6 q-22 26 -22 29 q21 8 22 13 q1 1 -4 6 q-5 5 -12 11 q-7 6 -9 9 q19 13 24 16 q-13 3 -24 10 q-25 7 -41 39 q-1 2 -10 16 q-9 14 -17 29 q-8 15 -8 24 q6 20 9 46 q3 26 -1.5 61 q-4.5 35 -20.5 58 q-3 3 -6 2.5 q-3 -0.5 -6 -3.5 l-3 -2 q-4 -3 -27.5 -46.5 q-23.5 -43.5 -23.5 -50.5 q-10 0 -10 -5 q-16 3 -55.5 4 q-39.5 1 -57.5 -7 q-33 73 -70 94 q-16 9 -32 13 q-16 4 -24 4 l-7 -1 q0 -1 1 -14.5 q1 -13.5 3 -28 q2 -14.5 6 -32.5 q4 -18 11.5 -34 q7.5 -16 17.5 -26 q-8 -2 -13 -5 q-5 -3 -6 -5 l-1 -1 l13 -9 q0 -1 -4.5 -23 q-4.5 -22 -13.5 -48.5 q-9 -26.5 -22 -37.5 q-9 -8 -22 -17.5 q-13 -9.5 -21 -14.5 l-9 -5 q8 -11 39 -18 l15 10 l-7 -11 q12 -2 18 1 l-30 -24 l27 -8 l-17 -23 l23 -6 l-10 -17 q23 -2 34 -14 q1 -1 -1 -1 q3 -2 8 -5 q5 -3 6 -4 q-54 14 -60 13 l9 21 l-28 8 l21 24 l-30 8 q-49 -19 -77 -3 q-14 8 -37 16.5 q-23 8.5 -39.5 13 q-16.5 4.5 -16.5 5.5 q-8 7 -18.5 12 q-10.5 5 -17.5 6 l-6 2 l3 -32 q-24 0 -26 2 l9 -28 q-32 3 -32 3 q0 -2 8.5 -15 q8.5 -13 12.5 -15 l-39 0 l23 -31 l-33 -6 l28 -29 l-29 -7 q0 -2 13 -16 q13 -14 18 -14 q-8 -2 -15.5 -7.5 q-7.5 -5.5 -11.5 -10.5 l-4 -4 q28 -13 31 -13 l-30 -24 l33 -13 l-28 -24 q3 -1 8 -3.5 q5 -2.5 14.5 -5 q9.5 -2.5 13.5 -1.5 l-11 -27 l20 10 q2 27 8 29 q2 1 6 -5 q5 -13 2 -27.5 q-3 -14.5 2.5 -29.5 q5.5 -15 24.5 -19 q11 -3 18.5 2 q7.5 5 12.5 19.5 q5 14.5 6.5 22.5 q1.5 8 4.5 27 l6 1 q8 0 10 -6 q2 -3 0 -14 q38 -12 113 -11.5 q75 0.5 104 10.5 q-4 16 -3 30 q2 3 5 2.5 q3 -0.5 6 -3.5 l3 -3 q-3 -30 13 -64 q16 -34 39 -30 q13 3 19 17.5 q6 14.5 6 32.5 q0 18 0 36 l-34 -21 q1 0 -1.5 5 q-2.5 5 -5 14 q-2.5 9 -2.5 17 q11 -15 18 -21 q2 2 6.5 5 q4.5 3 9.5 7 q5 4 10 9 l16 -30 l18 20 l11 -23 l26 25 l18 -23 q18 26 18 29 q11 -18 12 -19 q2 0 6.5 9 q4.5 9 8.5 17 l4 9 l19 -11 l6 34 l18 -7 q9 36 11 41 q2 -1 8 -2 q6 -1 9 -3 q-3 2 -4 32 l-20 15 l-25 -41 l-27 28 q-28 -34 -37 -36 q-3 2 -4 7.5 q-1 5.5 -1 9.5 l1 5 l-33 -27 l-6 22 l-32 5 l37 9 l8 -21 l30 26 q5 -18 5 -21 q34 31 34 35 l25 -28 q3 3 12.5 22.5 q9.5 19.5 9.5 20.5 q23 -16 26 -23 l7 28 q2 -1 4.5 -3 q2.5 -2 8 -5.5 q5.5 -3.5 9.5 -5.5 q4 -2 4 -1 l-7 33 l23 -18 ZM684 496 l-19 3 q7 6 12 11 q-9 6 -24 4 q1 2 6.5 5.5 q5.5 3.5 10 6 q4.5 2.5 2.5 4.5 q-31 -5 -35 -16 q-1 0 -1 -2 q0 -2 -1 -2 q-8 12 -8 14 q0 5 15.5 32.5 q15.5 27.5 25.5 42.5 q6 8 13 -13 q15 -45 10 -88 q-2 -15 -7 -19 l-10 7 q1 1 3 2 q2 1 4.5 3.5 q2.5 2.5 2.5 4.5 ZM421 511 l-14 3 q-11 12 -18 35 q-7 23 -8 40 l-1 17 q21 -6 34 -10 q15 -8 28 -29.5 q13 -21.5 17.5 -34 q4.5 -12.5 6.5 -19.5 l-3 -2 q-28 16 -37 19 q8 -8 4 -6 q-11 6 -11 6 l19 -17 l-26 11 l9 -13 ZM633 433 l0 1 q-6 17 1 28 q4 6 11 6 q12 0 22 -17 q12 -23 0 -47 q-3 -7 -12 -7 q-10 0 -22 36 ZM525 465 q8 0 15 -6.5 q7 -6.5 8 -17.5 q4 -39 -12 -43 q-1 0 -3 -0.5 q-2 -0.5 -3 -0.5 q-12 0 -18 30 q-2 10 -4 14 q-2 12 3 17 q4 7 14 7 ZM540 436 q2 7 -3 14 q-1 0 -1 1 q-6 6 -6 -1 q1 -13 7 -18 q2 2 3 4 ZM735 329 q14 0 16 -13 q1 -5 -6 -11 q-11 -14 -31 -14 q-3 0 -6 0.5 q-3 0.5 -5 0.5 l-2 0 q-4 2 -5 4 l0 2 q-1 1 -2 3 q-1 2 -2 4 q-2 -2 -6 -4 q-6 -6 -15 -9 q-15 -6 -34 -6 q-46 0 -62 16 q-8 8 -6 15 q3 7 11 7 q1 0 3.5 -1 q2.5 -1 6 -2.5 q3.5 -1.5 7.5 -2.5 q17 -7 29 -9 q4 -1 12 -1 q24 0 38 8 q3 2 7 10 l0 7 q0 2 -0.5 6 q-0.5 4 -0.5 5 q-8 4 -11 7 q-3 3 -17 10 q-17 9 -17 18 q0 7 5 11 q11 8 43 8 q17 0 23 -3 q22 -9 23 -16 q2 -8 -9 -19 q-13 -11 -16 -12 l0 -5 l1 -11 q9 -15 14 -17 l1 1 q1 13 13 13 Z" /><glyph glyph-name="circle" unicode="&#xe02e;" d="M441 664 q115 0 195.5 -81 q80.5 -81 80.5 -195 q0 -107 -73 -186 q-73 -79 -178 -88 q-24 -72 -86 -117.5 q-62 -45.5 -140 -45.5 q-99 0 -169.5 70 q-70.5 70 -70.5 169 q0 80 47 142.5 q47 62.5 121 86.5 q11 103 89.5 174 q78.5 71 183.5 71 ZM132.5 530 q-22.5 -23 -54.5 -23 q-32 0 -55 23 q-23 23 -23 55 q0 32 23 55 q23 23 55 23 q32 0 54.5 -23 q22.5 -23 22.5 -55 q0 -32 -22.5 -55 ZM107 614 q-12 12 -29 12 q-17 0 -29 -12 q-12 -12 -12 -29 q0 -17 12 -29 q12 -12 29 -12 q17 0 29 12 q12 12 12 29 q0 17 -12 29 ZM478 188 q72 13 119.5 69.5 q47.5 56.5 47.5 130.5 q0 85 -59.5 144.5 q-59.5 59.5 -144.5 59.5 q-73 0 -128.5 -46.5 q-55.5 -46.5 -69.5 -116.5 q97 -1 166 -71 q69 -70 69 -168 l0 -2 ZM403 188 l0 2 q0 68 -47.5 115.5 q-47.5 47.5 -114.5 48.5 q11 -63 55.5 -109 q44.5 -46 106.5 -57 ZM240 27 q48 0 86.5 25 q38.5 25 60.5 66 q-83 17 -142.5 77.5 q-59.5 60.5 -73.5 143.5 q-43 -20 -69 -60 q-26 -40 -26 -89 q0 -68 48 -115.5 q48 -47.5 116 -47.5 Z" /><glyph glyph-name="clear" unicode="&#xe02f;" d="M438 524 l0 127 q0 17 -11 28.5 q-11 11.5 -28 11.5 l-30 0 q-17 0 -28 -11.5 q-11 -11.5 -11 -28.5 l0 -127 q0 -17 11.5 -28.5 q11.5 -11.5 27.5 -11.5 l30 0 q16 0 27.5 11.5 q11.5 11.5 11.5 28.5 ZM269 500 l-90 89 q-11 11 -28 11 q-17 0 -28 -11 l-21 -21 q-11 -11 -11 -28 q0 -17 11 -28 l89 -90 q11 -11 28.5 -11 q17.5 0 28.5 11 l21 21 q11 11 11 28.5 q0 17.5 -11 28.5 ZM577 422 l89 90 q11 11 11 28 q0 17 -11 28 l-21 21 q-11 11 -28 11 q-17 0 -28 -11 l-90 -89 q-11 -11 -11 -28.5 q0 -17.5 11 -28.5 l21 -21 q11 -11 28.5 -11 q17.5 0 28.5 11 ZM40 253 l127 0 q17 0 28.5 11.5 q11.5 11.5 11.5 27.5 l0 31 q0 16 -11.5 27 q-11.5 11 -28.5 11 l-127 0 q-17 0 -28.5 -11 q-11.5 -11 -11.5 -27 l0 -31 q0 -17 11.5 -28 q11.5 -11 28.5 -11 ZM601 253 l127 0 q17 0 28.5 11 q11.5 11 11.5 28 l0 31 q0 16 -11.5 27 q-11.5 11 -28.5 11 l-127 0 q-17 0 -28.5 -11 q-11.5 -11 -11.5 -27 l0 -31 q0 -16 11.5 -27.5 q11.5 -11.5 28.5 -11.5 ZM179 26 l90 89 q11 11 11 28 q0 17 -11 28 l-21 22 q-11 11 -28.5 11 q-17.5 0 -28.5 -11 l-89 -91 q-11 -11 -11 -28 q0 -17 11 -28 l21 -20 q11 -11 28 -11 q17 0 28 11 ZM666 102 l-89 91 q-11 11 -28.5 11 q-17.5 0 -28.5 -11 l-21 -22 q-11 -11 -11 -28 q0 -17 11 -28 l90 -89 q11 -11 28 -11 q17 0 28 11 l21 20 q11 11 11 28 q0 17 -11 28 ZM438 -37 l0 127 q0 17 -11.5 28.5 q-11.5 11.5 -27.5 11.5 l-30 0 q-16 0 -27.5 -11.5 q-11.5 -11.5 -11.5 -28.5 l0 -127 q0 -17 11 -28.5 q11 -11.5 28 -11.5 l30 0 q17 0 28 11.5 q11 11.5 11 28.5 Z" /><glyph glyph-name="clip" unicode="&#xe030;" d="M175 285 l280 280 q27 27 65 40 q83 27 150 -40 q67 -65 40 -149 q-12 -39 -40 -67 l-301 -301 q-22 -22 -53 -38.5 q-31 -16.5 -71.5 -25.5 q-40.5 -9 -88 6.5 q-47.5 15.5 -89.5 57.5 q-42 42 -57.5 89 q-15.5 47 -6.5 87.5 q9 40.5 25.5 71.5 q16.5 31 38.5 53 l323 324 q9 9 21.5 9 q12.5 0 21.5 -9 q9 -9 9 -21.5 q0 -12.5 -9 -21.5 l-322 -324 q-4 -3 -12.5 -13.5 q-8.5 -10.5 -19.5 -33.5 q-11 -23 -15.5 -48 q-4.5 -25 6.5 -57.5 q11 -32.5 41 -62.5 q36 -36 74.5 -45.5 q38.5 -9.5 69 3 q30.5 12.5 46.5 23 q16 10.5 25 19.5 l301 302 q17 17 25 41 q15 48 -25 88 q-61 61 -129 0 l-280 -279 q-22 -22 0 -44 q20 -20 43 0 l194 194 q9 8 22 8 q13 0 21 -8 q9 -9 9 -22 q0 -13 -9 -22 l-194 -193 q-15 -15 -35 -22.5 q-20 -7.5 -46 -3.5 q-26 4 -48 26 q-22 22 -26.5 48.5 q-4.5 26.5 3.5 46.5 q8 20 23 34 Z" /><glyph glyph-name="cloud" unicode="&#xe031;" d="M343 34 l-172 0 q-71 0 -121 50 q-50 50 -50 121 q0 52 28.5 94 q28.5 42 74.5 62 q0 3 -0.5 8 q-0.5 5 -0.5 7 q0 42 30.5 72 q30.5 30 72.5 30 q51 0 83 -42 q24 64 80.5 104.5 q56.5 40.5 126.5 40.5 q91 0 155.5 -64.5 q64.5 -64.5 66.5 -155.5 q46 -21 74 -62.5 q28 -41.5 28 -93.5 q0 -71 -50.5 -121 q-50.5 -50 -120.5 -50 l-167 0 l0 100 l81 0 q9 0 11.5 5 q2.5 5 -4.5 12 l-141 151 q-7 7 -16 7 q-10 0 -17 -7 l-141 -151 q-6 -7 -4.5 -12 q1.5 -5 11.5 -5 l82 0 l0 -100 Z" /><glyph glyph-name="code" unicode="&#xe032;" d="M159 309 l172 -173 l-83 -80 l-248 248 l254 254 l79 -78 l-174 -171 ZM609 305 l-172 173 l83 80 l248 -248 l-254 -254 l-79 78 l174 171 Z" /><glyph glyph-name="comment" unicode="&#xe034;" d="M80 645 l557 0 q33 0 56.5 -23.5 q23.5 -23.5 23.5 -56.5 l0 -338 q0 -33 -23.5 -56.5 q-23.5 -23.5 -56.5 -23.5 l-106 0 l5 -137 q0 -25 -12 -30 q-12 -5 -30 12 l-157 155 l-257 0 q-33 0 -56.5 23.5 q-23.5 23.5 -23.5 56.5 l0 338 q0 33 23.5 56.5 q23.5 23.5 56.5 23.5 Z" /><glyph glyph-name="comments" unicode="&#xe035;" d="M227 147 l-130 -87 q27 72 29 124 q-59 31 -92.5 79.5 q-33.5 48.5 -33.5 103.5 q0 94 91 160.5 q91 66.5 219 66.5 q105 0 188 -47 q83 -47 111 -119 q-21 3 -42 3 l-14 0 q-108 -5 -185 -65 q-86 -69 -83 -168 q2 -31 12 -58 q-30 0 -70 7 ZM708 20 l-85 46 q-28 -6 -55 -8 l-12 0 q-82 0 -140 41.5 q-58 41.5 -60 101.5 q-3 62 55.5 108.5 q58.5 46.5 144.5 49.5 l11 0 q82 0 140.5 -41 q58.5 -41 60.5 -101 q3 -74 -77 -123 q1 -16 5 -34.5 q4 -18.5 8 -29.5 l4 -10 Z" /><glyph glyph-name="compass" unicode="&#xe036;" d="M105 561 q105 105 253 105 q148 0 253.5 -105 q105.5 -105 105.5 -254 q0 -148 -105 -253 q-105 -105 -254 -105 q-148 0 -253 104.5 q-105 104.5 -105 253.5 q0 149 105 254 ZM163.5 112.5 q80.5 -80.5 194.5 -80.5 q114 0 195 80.5 q81 80.5 81 194.5 q0 114 -81 195 q-81 81 -195 81 q-114 0 -194.5 -81 q-80.5 -81 -80.5 -195 q0 -114 80.5 -194.5 ZM417 249 l-214 -97 l97 214 l214 97 l-97 -214 ZM242 190 l155 78 l-78 78 l-77 -156 Z" /><glyph glyph-name="cookpad" unicode="&#xe037;" d="M105 561 q105 105 253 105 q148 0 253.5 -105 q105.5 -105 105.5 -254 q0 -148 -105 -253 q-105 -105 -254 -105 q-148 0 -253 104.5 q-105 104.5 -105 253.5 q0 149 105 254 ZM131 80 q94 -94 227 -94 q133 0 227.5 94 q94.5 94 94.5 227 q0 133 -94.5 227.5 q-94.5 94.5 -227.5 94.5 q-133 0 -227 -94.5 q-94 -94.5 -94 -227.5 q0 -133 94 -227 ZM462 468 q-12 30 -40.5 49.5 q-28.5 19.5 -64.5 19.5 q-28 0 -55 -16 q-27 -16 -38 -36 q-58 26 -109.5 -9.5 q-51.5 -35.5 -51.5 -93.5 q0 -72 75 -109 q-3 -23 -9.5 -71.5 q-6.5 -48.5 -8.5 -69.5 q-5 -35 4 -45 q12 -3 80 -3 l244 0 q6 3 9.5 8.5 q3.5 5.5 4 10 q0.5 4.5 1.5 13 q1 8.5 1 11.5 q5 44 18 138 q54 -1 88.5 31 q34.5 32 34.5 83 q0 68 -60.5 99.5 q-60.5 31.5 -122.5 -10.5 ZM433 439 q0 -5 -3 -10 q-3 -5 -3 -8 q22 -15 32 -18 q8 24 32 39.5 q24 15.5 53 11.5 q29 -4 47 -29.5 q18 -25.5 16 -55.5 q-2 -26 -25 -46 q-23 -20 -57 -21 q6 41 -15 42 q-19 0 -24 -53 q-1 -3 -1 -5 q-2 -14 -4 -39.5 q-2 -25.5 -4 -34.5 l-198 0 q-3 0 -9.5 0 q-6.5 0 -9 0 q-2.5 0 -8.5 0 q-6 0 -8 -0.5 q-2 -0.5 -6.5 -2 q-4.5 -1.5 -5.5 -3 q-1 -1.5 -4 -4 q-3 -2.5 -2 -6 q1 -3.5 0 -8.5 q1 -3 2.5 -5.5 q1.5 -2.5 5 -4 q3.5 -1.5 7 -2.5 q3.5 -1 9 -1 q5.5 0 9 0 q3.5 0 10.5 0 q7 0 10 0 q174 0 193 -1 q-4 -38 -7 -53 l-268 0 q4 30 11.5 92 q7.5 62 11.5 92 q-35 2 -59 26 q-24 24 -20 61 q4 33 31.5 51 q27.5 18 60 13 q32.5 -5 49.5 -32 q2 29 20.5 50.5 q18.5 21.5 44.5 24.5 q30 4 54 -13 q24 -17 32 -47 Z" /><glyph glyph-name="copy" unicode="&#xe038;" d="M572 632 l105 -109 q19 -21 19 -49 l0 -323 q0 -12 -8 -20.5 q-8 -8.5 -20 -8.5 l-187 0 l0 49 l157 0 q9 0 9 9 l0 272 q0 9 -9 9 l-116 0 q-10 0 -10 9 l0 124 q0 9 -9 9 l-190 0 q-10 0 -10 -9 l0 -69 q-15 6 -33 6 l-15 0 l0 93 q0 12 8.5 20 q8.5 8 19.5 8 l242 0 q29 0 47 -20 ZM570 510 l42 0 q8 0 3 7 l-48 49 q-6 8 -6 -2 l0 -45 q0 -9 9 -9 ZM318 472 l104 -110 q19 -19 19 -48 l0 -323 q0 -12 -8 -20.5 q-8 -8.5 -19 -8.5 l-385 0 q-12 0 -20.5 8.5 q-8.5 8.5 -8.5 20.5 l0 473 q0 11 8.5 20 q8.5 9 20.5 9 l241 0 q27 0 48 -21 ZM58 11 l325 0 q10 0 10 9 l0 272 q0 9 -10 9 l-116 0 q-9 0 -9 9 l0 124 q0 9 -9 9 l-191 0 q-9 0 -9 -9 l0 -414 q0 -9 9 -9 ZM360 356 l-47 51 q-7 7 -7 -4 l0 -44 q0 -9 10 -9 l41 0 q4 0 5 2 q1 2 -2 4 Z" /><glyph glyph-name="crop" unicode="&#xe039;" d="M591 140 l126 0 l0 -65 l-126 0 l0 -126 l-66 0 l0 126 l-399 0 l0 399 l-126 0 l0 66 l126 0 l0 126 l65 0 l0 -126 l374 0 l74 73 l35 -35 l-83 -83 l0 -355 ZM191 166 l309 308 l-309 0 l0 -308 ZM525 429 l-288 -289 l288 0 l0 289 Z" /><glyph glyph-name="crown" unicode="&#xe03a;" d="M440.5 492.5 q-23.5 -23.5 -56.5 -23.5 q-33 0 -56.5 23.5 q-23.5 23.5 -23.5 56.5 q0 34 23.5 57 q23.5 23 56.5 23 q33 0 56.5 -23 q23.5 -23 23.5 -57 q0 -33 -23.5 -56.5 ZM65 502 q26 0 44.5 -19 q18.5 -19 18.5 -45 q0 -27 -18.5 -45.5 q-18.5 -18.5 -44.5 -18.5 q-27 0 -46 18.5 q-19 18.5 -19 45.5 q0 26 19 45 q19 19 46 19 ZM705 502 q26 0 44.5 -19 q18.5 -19 18.5 -45 q0 -27 -18.5 -45.5 q-18.5 -18.5 -44.5 -18.5 q-27 0 -46 18.5 q-19 18.5 -19 45.5 q0 26 19 45 q19 19 46 19 ZM135 60 l-53 290 q21 4 43 22 q65 -59 115 -59 q55 0 114 136 q18 -6 30 -6 q12 0 30 6 q59 -136 114 -136 q50 0 115 59 q22 -18 43 -22 l-53 -290 l-498 0 ZM124 35 l520 0 l0 -49 l-520 0 l0 49 Z" /><glyph glyph-name="cut" unicode="&#xe03b;" d="M184 258 l-4 0 q-66 0 -121 -53 q-59 -54 -59 -118 q0 -36 23 -57.5 q23 -21.5 60 -21.5 q64 0 122 53 q58 56 58 118 q0 12 -1 17 l32 28 l314 -161 q10 -4 15 -4 q4 0 16 2.5 q12 2.5 18 3.5 q25 6 35 7 q10 1 17.5 9.5 q7.5 8.5 7.5 19.5 q0 16 -14 25 l-261 181 l261 181 q14 9 14 25 q0 11 -7.5 20 q-7.5 9 -17.5 10 q-6 0 -15 3 q-4 1 -40 7 q-19 3 -29 -2 q-8 -4 -19 -9 q-8 -4 -38 -20 q-5 -3 -22.5 -11.5 q-17.5 -8.5 -27.5 -14.5 q-48 -24 -57 -29 q-20 -10 -55 -28 q-35 -18 -48 -24 q-6 -3 -18 -9.5 q-12 -6.5 -17 -8.5 l-12 -7 l-32 29 q1 5 1 16 q0 63 -58 118 q-58 53 -122 53 q-37 0 -60 -21.5 q-23 -21.5 -23 -57.5 q0 -63 60 -118 q61 -58 124 -53 q4 -6 22 -22 q4 -4 8 -8 q4 -4 8.5 -8.5 q4.5 -4.5 6.5 -6.5 l0 -8 q-13 -13 -23 -22 q-11 -10 -22 -23 ZM74 527 l0 3 q3 1 9 1 q32 0 67 -29 q14 -12 25 -31 q15 -23 15 -37 l0 -2 q-5 -1 -10 -1 q-30 0 -66 30 q-20 20 -26 29 q-14 21 -14 37 ZM219 251 l41 40 l-2 48 l365 186 l64 -12 l-380 -262 l-17 9 l-40 -36 q-10 16 -31 27 ZM232 351 l-13 14 q20 8 31 25 l16 -14 q-2 -1 -7 -3.5 q-5 -2.5 -7 -3.5 q-2 -1 -6 -3 q-4 -2 -6 -4 q-2 -2 -4.5 -5 q-2.5 -3 -3.5 -6 ZM278 307 q0 -12 8.5 -20.5 q8.5 -8.5 20.5 -8.5 q13 0 21.5 8.5 q8.5 8.5 8.5 20.5 q0 13 -8.5 21.5 q-8.5 8.5 -20.5 8.5 q-13 0 -21.5 -8.5 q-8.5 -8.5 -8.5 -21.5 ZM338 236 l77 53 l272 -188 l-64 -12 l-285 147 ZM75 87 q0 35 37 65 q39 32 68 32 q2 0 4.5 -0.5 q2.5 -0.5 3.5 -0.5 l0 -2 q1 0 1 -2 q0 -34 -37 -64 q-39 -32 -69 -32 l-4 0 q-1 1 -4 1 l0 3 Z" /><glyph glyph-name="dashboard" unicode="&#xe03c;" d="M105 8 l506 0 q15 0 23 11 q38 42 61 107 q22 63 22 122 q0 146 -105 253 q-105 105 -254 105 q-149 0 -254 -105 q-104 -106 -104 -253 q0 -59 22 -122 q24 -68 61 -107 q8 -11 22 -11 ZM326 469.5 q-13 12.5 -13 31.5 q0 19 13 32 q13 13 32 13 q19 0 32 -13 q13 -13 13 -32 q0 -19 -13 -31.5 q-13 -12.5 -32 -12.5 q-19 0 -32 12.5 ZM147 395 q-13 13 -13 32 q0 19 13 31.5 q13 12.5 32 12.5 q19 0 32 -12.5 q13 -12.5 13 -31.5 q0 -19 -13 -32 q-13 -13 -32 -13 q-19 0 -32 13 ZM506 395.5 q-13 12.5 -13 31.5 q0 19 13 31.5 q13 12.5 32 12.5 q19 0 32 -12.5 q13 -12.5 13 -31.5 q0 -19 -13 -31.5 q-13 -12.5 -32 -12.5 q-19 0 -32 12.5 ZM355 202 l52 186 q5 16 22 16 q8 0 15 -6.5 q7 -6.5 7 -14.5 q0 -1 -0.5 -3 q-0.5 -2 -1.5 -5.5 q-1 -3.5 -2 -7.5 q-1 -4 -4 -15.5 q-3 -11.5 -5 -18.5 q-4 -18 -11 -42 q-22 -74 -23 -80 q-2 -6 -4 -13.5 q-2 -7.5 -2 -8.5 q35 -25 35 -61 q0 -32 -21.5 -53.5 q-21.5 -21.5 -53.5 -21.5 q-31 0 -52.5 21.5 q-21.5 21.5 -21.5 53.5 q0 31 20 51 q21 21 51 23 ZM72.5 216 q-12.5 13 -12.5 32 q0 19 12.5 31.5 q12.5 12.5 31.5 12.5 q19 0 32.5 -12.5 q13.5 -12.5 13.5 -31.5 q0 -19 -13.5 -32 q-13.5 -13 -32.5 -13 q-19 0 -31.5 13 ZM580 216 q-13 13 -13 32 q0 19 13 31.5 q13 12.5 32 12.5 q19 0 31.5 -12.5 q12.5 -12.5 12.5 -31.5 q0 -19 -12.5 -32 q-12.5 -13 -31.5 -13 q-19 0 -32 13 Z" /><glyph glyph-name="delicious" unicode="&#xe03d;" d="M303 332 l-303 0 l0 303 l303 0 l0 -303 ZM655 332 l-303 0 l0 303 l303 0 l0 -303 ZM272 604 l-241 0 l0 -242 l241 0 l0 242 ZM303 -20 l-303 0 l0 303 l303 0 l0 -303 ZM352 -20 l0 303 l303 0 l0 -303 l-303 0 ZM399 252 l-16 0 l0 -16 l16 16 ZM440 252 l-57 -57 l0 -41 l98 98 l-41 0 ZM522 252 l-139 -139 l0 -41 l180 180 l-41 0 ZM383 10 l19 0 l223 222 l0 20 l-21 0 l-221 -221 l0 -21 ZM484 10 l141 141 l0 40 l-182 -181 l41 0 ZM566 10 l59 59 l0 41 l-100 -100 l41 0 ZM607 10 l18 0 l0 18 l-18 -18 Z" /><glyph glyph-name="down" unicode="&#xe03e;" d="M356 297 l246 246 l115 -119 l-355 -354 l-362 362 l112 113 l244 -248 Z" /><glyph glyph-name="dribbble" unicode="&#xe03f;" d="M105 561 q105 105 253 105 q148 0 253.5 -105 q105.5 -105 105.5 -254 q0 -148 -105 -253 q-105 -105 -254 -105 q-148 0 -253 104.5 q-105 104.5 -105 253.5 q0 149 105 254 ZM358 613 q-36 0 -71 -9 q51 -64 113 -178 q33 12 61 28 q28 16 45.5 29.5 q17.5 13.5 30.5 26 q13 12.5 18 19.5 q5 7 5 8 q-84 76 -202 76 ZM227 584 q-64 -30 -109 -86.5 q-45 -56.5 -59 -126.5 q8 -1 42.5 0 q34.5 1 104.5 10.5 q70 9.5 135 26.5 q-60 109 -114 176 ZM595 502 l-1 -1 q-50 -67 -152 -112 q-9 -4 -18 -8 q14 -30 20 -45 q1 -2 4 -7 q3 -5 4 -8 q97 12 213 -11 q-1 109 -70 192 ZM52 307 q0 -118 79 -205 q3 6 10 16.5 q7 10.5 30 39 q23 28.5 49.5 53.5 q26.5 25 70 52 q43.5 27 89.5 42 q8 2 11 3 q-12 30 -24 52 q-148 -44 -315 -44 l0 -9 ZM529 53 l1 1 q52 35 86 88.5 q34 53.5 44 116.5 q-11 4 -30.5 8 q-19.5 4 -68 9 q-48.5 5 -91.5 -4 q42 -116 59 -219 ZM477 26 l1 0 q-22 121 -65 232 q-1 0 -1 -0.5 q0 -0.5 -1 -0.5 q-49 -17 -91.5 -42 q-42.5 -25 -67.5 -48 q-25 -23 -45 -47 q-20 -24 -26.5 -35.5 q-6.5 -11.5 -9.5 -17.5 l6 -7 q81 -59 181 -59 q63 0 119 25 Z" /><glyph glyph-name="dropdown" unicode="&#xe040;" d="M602 454 l-253 -317 q-18 -22 -42.5 -22 q-24.5 0 -41.5 22 l-253 317 q-18 22 -10.5 37.5 q7.5 15.5 35.5 15.5 l540 0 q29 0 36 -15.5 q7 -15.5 -11 -37.5 Z" /><glyph glyph-name="edit" unicode="&#xe041;" d="M558 100 l0 129 l80 80 l0 -235 q0 -35 -25 -60.5 q-25 -25.5 -60 -25.5 l-468 0 q-35 0 -60 25.5 q-25 25.5 -25 60.5 l0 467 q0 35 25 60.5 q25 25.5 60 25.5 l475 0 l0 -1 l-80 -79 l-368 0 q-13 0 -22.5 -10 q-9.5 -10 -9.5 -23 l0 -414 q0 -13 9.5 -22.5 q9.5 -9.5 22.5 -9.5 l414 0 q13 0 22.5 9.5 q9.5 9.5 9.5 22.5 ZM634 588 l85 -85 l39 39 l-85 85 l-39 -39 ZM335 288 l84 -85 l271 271 l-84 85 l-271 -271 ZM275 144 l116 31 l-85 85 l-31 -116 Z" /><glyph glyph-name="eject" unicode="&#xe042;" d="M13 274 l274 343 q19 23 45.5 23 q26.5 0 45.5 -23 l274 -343 q19 -24 11.5 -40.5 q-7.5 -16.5 -38.5 -16.5 l-585 0 q-30 0 -38 16.5 q-8 16.5 11 40.5 ZM50 -34 l565 0 q21 0 36 14.5 q15 14.5 15 36.5 l0 67 q0 21 -15 35.5 q-15 14.5 -36 14.5 l-565 0 q-21 0 -35.5 -14.5 q-14.5 -14.5 -14.5 -35.5 l0 -67 q0 -22 14.5 -36.5 q14.5 -14.5 35.5 -14.5 Z" /><glyph glyph-name="etc" unicode="&#xe043;" d="M150 245 q26 26 26 62 q0 36 -26 62 q-26 26 -62 26 q-37 0 -62.5 -26 q-25.5 -26 -25.5 -62 q0 -36 25.5 -62 q25.5 -26 62.5 -26 q36 0 62 26 ZM420 245 q26 26 26 62 q0 36 -26 62 q-26 26 -62 26 q-36 0 -62 -26 q-26 -26 -26 -62 q0 -36 26 -62 q26 -26 62 -26 q36 0 62 26 ZM691.5 245 q25.5 26 25.5 62 q0 36 -25.5 62 q-25.5 26 -62.5 26 q-36 0 -62 -26 q-26 -26 -26 -62 q0 -36 26 -62 q26 -26 62 -26 q37 0 62.5 26 Z" /><glyph glyph-name="evernote" unicode="&#xe044;" d="M65 511 l69 0 q11 0 19.5 8.5 q8.5 8.5 8.5 19.5 q-1 14 -1 31 l0 44 q0 20 9 32 q11 17 37 24 q8 5 52 4 q44 -1 73 -12 q12 -4 22 -18 q10 -14 12 -29 q55 2 100 -3 q69 -8 95 -17 q32 -10 39 -49 q7 -41 13 -155 q6 -114 2 -162 q-13 -132 -32 -187 q-23 -73 -50 -90 q-27 -17 -93 -17 q-79 0 -106.5 19 q-27.5 19 -27.5 80 q0 33 7 52.5 q7 19.5 24.5 28 q17.5 8.5 34.5 10 q17 1.5 50 0.5 q3 0 4 -1.5 q1 -1.5 0 -4 q-1 -2.5 -2 -5.5 q-1 -3 -2 -8 q-1 -5 -1 -10 q0 -6 1.5 -13 q1.5 -7 1 -9 q-0.5 -2 -5.5 -2 q-1 0 -6.5 0 q-5.5 0 -7.5 0 q-2 0 -7.5 -0.5 q-5.5 -0.5 -7.5 -1 q-2 -0.5 -6 -1.5 q-4 -1 -6 -3 q-2 -2 -4 -5 q-2 -3 -3 -6.5 q-1 -3.5 -1 -8.5 q0 -17 7.5 -24.5 q7.5 -7.5 17 -8.5 q9.5 -1 36.5 -1 q42 0 54 10.5 q12 10.5 12 47.5 q0 56 -13.5 75.5 q-13.5 19.5 -42.5 22.5 q-66 8 -87 15 q-39 14 -39 87 q0 2 -2 2 q-2 0 -2 -2 q0 -50 -13 -89 l-6 -16 q-4 -8 -8.5 -13 q-4.5 -5 -12.5 -6 q-8 -1 -13.5 -0.5 q-5.5 0.5 -18 2.5 q-12.5 2 -19.5 3 q-94 13 -145 34 q-17 9 -28 30 q-19 40 -43 194 l-3 36 q0 28 11 44 q7 10 20 16 q16 6 34 6 ZM131 531 l-70 0 q-24 0 -43 -8 q0 -2 -7 -4 l1 1 l134 133 l1 0 l-2 -4 q-8 -14 -8 -35 l1 -75 q0 -8 -7 -8 ZM460 325 q25 0 49 -11 q0 53 -37 54 q-20 1 -29.5 -12 q-9.5 -13 -11.5 -32 q18 2 29 1 Z" /><glyph glyph-name="exchange" unicode="&#xe045;" d="M696 164 l81 0 q18 0 21 -9 q3 -9 -10 -21 l-118 -119 q-8 -8 -20 -8 q-12 0 -20 8 l-119 119 q-12 12 -9 21 q3 9 21 9 l81 0 l0 294 q-3 31 -26 51.5 q-23 20.5 -54 20.5 q-32 0 -55 -21.5 q-23 -21.5 -25 -53.5 l0 -296 q-2 -46 -27 -85 q-25 -39 -65 -60 q-36 -18 -79 -18 q-42 0 -78 18 q-41 21 -66.5 60.5 q-25.5 39.5 -26.5 85.5 l0 290 l-80 0 q-18 0 -21.5 8.5 q-3.5 8.5 9.5 20.5 l118 119 q8 8 20 8 q12 0 20 -8 l119 -119 q13 -12 9.5 -20.5 q-3.5 -8.5 -21.5 -8.5 l-80 0 l0 -291 q2 -32 24 -54 q22 -22 54 -22 q32 0 55.5 23.5 q23.5 23.5 23.5 55.5 l0 293 q2 47 27 85 q25 38 65 59 q38 19 80 19 q40 0 80 -19 q39 -21 63.5 -58 q24.5 -37 28.5 -82 l0 -295 Z" /><glyph glyph-name="external" unicode="&#xe046;" d="M501 547 l-334 -336 l70 -71 l335 335 l62 -61 q13 -13 22.5 -9 q9.5 4 9.5 23 l0 181 q0 12 -9 21.5 q-9 9.5 -22 9.5 l-181 0 q-19 0 -23.5 -9.5 q-4.5 -9.5 8.5 -22.5 l62 -61 ZM538 82 l0 227 l76 0 l0 -253 q0 -34 -24 -58 q-24 -24 -58 -24 l-450 0 q-34 0 -58 24 q-24 24 -24 58 l0 451 q0 34 24 58 q24 24 58 23 l277 0 l0 -76 l-251 0 q-12 0 -21.5 -9.5 q-9.5 -9.5 -9.5 -21.5 l0 -399 q0 -12 9.5 -21.5 q9.5 -9.5 21.5 -9.5 l399 0 q12 0 21.5 9.5 q9.5 9.5 9.5 21.5 Z" /><glyph glyph-name="facebook" unicode="&#xe047;" d="M38 640 l590 0 q15 0 26.5 -11.5 q11.5 -11.5 11.5 -26.5 l0 -590 q0 -15 -11.5 -26.5 q-11.5 -11.5 -26.5 -11.5 l-590 0 q-15 0 -26.5 11.5 q-11.5 11.5 -11.5 26.5 l0 590 q0 15 11.5 26.5 q11.5 11.5 26.5 11.5 ZM473 266 l92 0 l4 88 l-96 0 l0 61 l0 4 q0 21 7.5 30 q7.5 9 29.5 9 l56 0 l2 82 q-25 4 -61 4 q-62 0 -94.5 -33 q-32.5 -33 -32.5 -81 l0 -76 l-65 0 l0 -88 l65 0 l0 -244 l93 0 l0 244 Z" /><glyph glyph-name="file" unicode="&#xe048;" d="M430 638 l141 -148 q26 -28 26 -65 l0 -438 q0 -15 -11 -26.5 q-11 -11.5 -27 -11.5 l-521 0 q-15 0 -26.5 11.5 q-11.5 11.5 -11.5 26.5 l0 641 q0 15 11.5 26.5 q11.5 11.5 26.5 11.5 l328 0 q38 0 64 -28 ZM79 15 l439 0 q13 0 13 13 l0 366 q0 13 -13 13 l-157 0 q-13 0 -13 13 l0 167 q0 12 -12 12 l-257 0 q-12 0 -12 -12 l0 -559 q0 -13 12 -13 ZM487 482 l-63 68 q-9 9 -9 -4 l0 -61 q0 -5 3.5 -8.5 q3.5 -3.5 8.5 -3.5 l56 0 q13 0 4 9 ZM156 540 l124 0 q10 0 17.5 -8 q7.5 -8 7.5 -18 l0 -15 q0 -10 -7.5 -17.5 q-7.5 -7.5 -17.5 -7.5 l-124 0 q-10 0 -18 7.5 q-8 7.5 -8 17.5 l0 15 q0 10 8 18 q8 8 18 8 ZM156 406 l124 0 q10 0 17.5 -8 q7.5 -8 7.5 -18 l0 -15 q0 -10 -7.5 -17.5 q-7.5 -7.5 -17.5 -7.5 l-124 0 q-10 0 -18 7.5 q-8 7.5 -8 17.5 l0 15 q0 10 8 18 q8 8 18 8 ZM439 206 l-283 0 q-11 0 -18.5 7.5 q-7.5 7.5 -7.5 17.5 l0 15 q0 10 7.5 17.5 q7.5 7.5 18.5 7.5 l283 0 q10 0 18 -7.5 q8 -7.5 8 -17.5 l0 -15 q0 -10 -8 -17.5 q-8 -7.5 -18 -7.5 ZM439 69 l-283 0 q-11 0 -18.5 7 q-7.5 7 -7.5 17 l0 16 q0 10 7.5 17.5 q7.5 7.5 18.5 7.5 l283 0 q10 0 18 -7.5 q8 -7.5 8 -17.5 l0 -16 q0 -10 -8 -17 q-8 -7 -18 -7 Z" /><glyph glyph-name="firefox" unicode="&#xe049;" d="M444 -63 l-1 0 q0 0 -2 -2 q-5 -10 -17 -10 q-39 2 -55 5 q-1 0 -3.5 0.5 q-2.5 0.5 -3.5 0.5 q-5 -5 -13 -5 l-3 0 q-33 6 -72 22 q-35 15 -53 26 q-88 46 -144 128 q-40 54 -57 124 q-16 2 -16 17 q-2 26 -2 40 q0 31 3 56 q-7 7 -5 16 q6 48 29 102 q7 19 18 36 q-1 8 -1 23 q0 66 42 114 q5 6 14 6 q0 0 6 0 q11 -3 13 -15 q3 -23 15 -39 q107 107 260 107 q90 0 167 -40 q66 -25 114 -74 q3 5 4 6 q5 6 13 6 q8 0 12 -3 q34 -24 52 -69 q20 -45 23 -96 q0 -2 0.5 -6 q0.5 -4 0.5 -7 q11 -4 13 -15 q4 -20 4 -47 q0 -77 -34 -142 q-1 -2 -2 -6 q-1 -4 -2 -7 q-1 -3 -2 -5 q7 -7 7 -15 l0 -3 q-4 -36 -33 -73 q-29 -37 -73 -64 q-12 -8 -18 -11 q2 -9 -5 -16 q-48 -53 -157 -64 q-12 -1 -36 -1 ZM574 186 l-21 -28 q-2 -1 -13 -7 q-2 0 -3 1 q-4 4 1 17 q-1 -1 -6.5 -5 q-5.5 -4 -8.5 -6 q-13 -10 -24 -25 q-6 -2 -10 -2 q6 6 8 10 q-30 -15 -67 -15 l-4 0 q-3 0 -8.5 0.5 q-5.5 0.5 -8.5 1.5 q-31 5 -56 18 q-1 0 -2 1 q5 1 15 1 q9 0 13 -1 q-18 8 -33 8 l-4 0 l-1 0 q-1 0 -2 -1 q-80 48 -88 119 q-5 41 12 73 q-14 2 -22 2 q-18 0 -36 -5 q-5 -1 -11 -3 q0 2 -2 5 q-2 3 -3 4 q24 9 52 9 q11 0 29 -2 q1 -1 4 -1 l1 -1 l5 0 q0 -1 1 -1 q2 0 3 -1 l1 0 q1 0 1 0 l2 -1 l1 0 q1 -1 3 -1 l1 -1 q1 0 3 -1 q1 0 1 -1 q2 0 3 -1 l1 0 l4 -2 q4 9 4 23 l0 3 q0 11 -5 23 q-1 2 -3.5 6.5 q-2.5 4.5 -3.5 6.5 q-18 29 -18 68 q0 74 60 116 q-3 0 -7.5 0.5 q-4.5 0.5 -6.5 0.5 q-57 0 -89 -45 q-20 5 -45 5 q-73 0 -120 -58 q-16 -21 -25 -43 q-23 -53 -28 -98 q5 17 16 34 q-12 -42 -12 -103 q0 -26 1 -38 q1 10 6 45 q8 -98 62.5 -177.5 q54.5 -79.5 139.5 -121.5 q17 -11 51 -26 q40 -15 67 -19 q-15 6 -31 14 q5 -1 17 -3 q19 -5 37 -8 q24 -4 52 -4 q-15 6 -17 7 q24 2 35 3 l2 0 q12 0 34 2 q101 9 146 58 q-21 -11 -50 -17 q30 17 48 31 q24 13 28 16 q41 25 67 58.5 q26 33.5 31 65.5 q-13 -23 -38 -42 q27 47 38 82 q31 64 31 135 q0 23 -3 44 l0 -6 q0 -31 -11 -58 q-2 34 -4 46 q3 26 2 48 q-6 102 -69 150 q32 -34 32 -86 q0 -5 -1 -8 q-29 64 -84.5 109.5 q-55.5 45.5 -125.5 59.5 q82 -42 127 -122 q-33 32 -71 41 q75 -69 78 -169 q0 -17 -1 -25 q-9 23 -33 47 q8 -44 8 -69 q1 -49 -10 -99 q-5 25 -12 42 q0 -8 -1 -11 q-3 -52 -26 -92 ZM102 617 q-37 -43 -37 -101 l0 -2 l4 4 q1 1 1 2 q2 1 4 3 l1 1 q2 2 4 3 l0 1 q2 1 5 4 q1 0 2.5 2 q1.5 2 2.5 2 l0 1 q3 1 8 5 q5 4 8 5 q8 4 26 12 l-8 8 q0 1 -1 2 q0 1 -1 1 l-1 1 l0 1 l-1 1 l-1 2 q0 1 0 1 l-1 2 l-1 1 q0 1 -0.5 1 q-0.5 0 -0.5 1 l-1 2 l-1 2 q0 1 -0.5 1 q-0.5 0 -0.5 1 q0 1 -1 2 l0 1 q0 0 -1 2 q-1 1 -1 2 q0 0 -1 1 l0 1 l0 1 q-2 2 -2 4 q-1 0 -1 1 l0 2 q-1 1 -1 2 q0 0 0 2 l-1 1 q0 0 0 3 q0 1 -1 1 q0 0 0 4 ZM390 473 q0 4 -5 7 q-5 3 -13.5 3.5 q-8.5 0.5 -15.5 1 q-7 0.5 -18 0 q-11 -0.5 -13 -0.5 q-12 0 -26 10 q-2 -12 -2 -20 q0 -32 15 -58 q3 -4 7 -12 q8 6 26 16 q18 10 22 13 q24 19 23 40 ZM426 282 q-24 0 -46.5 -10.5 q-22.5 -10.5 -43.5 -10.5 q-44 0 -68 38 q0 -16 1 -24 q6 -50 58 -90 q30 1 53 10 q17 6 40 21.5 q23 15.5 30 17.5 l12 0 q12 1 16 9 q5 9 -12.5 24 q-17.5 15 -39.5 15 Z" /><glyph glyph-name="flag" unicode="&#xe04a;" d="M108 -33 l0 565 q35 21 35 62 q0 29 -21 50.5 q-21 21.5 -50 21.5 q-30 0 -51 -21.5 q-21 -21.5 -21 -50.5 q0 -39 37 -62 l0 -565 q0 -18 16 -18 l37 0 q8 0 13 5.5 q5 5.5 5 12.5 ZM143 500 l0 -324 q0 -14 6.5 -19.5 q6.5 -5.5 15.5 1.5 q36 26 61 39 q54 25 87 26 q40 0 76 -17 q7 -3 65 -41 q20 -13 47 -14 q61 -4 121 45 q20 16 20 49 l0 324 q0 14 -5.5 19 q-5.5 5 -14.5 -2 q-38 -29 -68 -38 q-61 -16 -100 7 q-58 38 -65 41 q-36 17 -76 17 q-14 0 -40 -7 q-45 -13 -108 -57 q-22 -17 -22 -49 Z" /><glyph glyph-name="flickr" unicode="&#xe04b;" d="M84 640 l498 0 q35 0 59.5 -24.5 q24.5 -24.5 24.5 -59.5 l0 -498 q0 -34 -25 -59 q-25 -25 -59 -25 l-498 0 q-35 0 -59.5 24.5 q-24.5 24.5 -24.5 59.5 l0 498 q0 34 25 59 q25 25 59 25 ZM195 197 q47 0 80 33 q33 33 33 79 q0 47 -33 80 q-33 33 -80 33 q-46 0 -79.5 -33.5 q-33.5 -33.5 -33.5 -79.5 q0 -46 33.5 -79 q33.5 -33 79.5 -33 ZM471 197 q46 0 79.5 33 q33.5 33 33.5 79 q0 46 -33.5 79.5 q-33.5 33.5 -79.5 33.5 q-47 0 -80.5 -33.5 q-33.5 -33.5 -33.5 -79.5 q0 -46 33.5 -79 q33.5 -33 80.5 -33 Z" /><glyph glyph-name="folder" unicode="&#xe04c;" d="M380 508 l305 0 q13 0 22.5 -9.5 q9.5 -9.5 9.5 -22.5 l0 -423 q0 -13 -9.5 -22 q-9.5 -9 -22.5 -9 l-653 0 q-13 0 -22.5 9 q-9.5 9 -9.5 22 l0 423 q0 13 9.5 22.5 q9.5 9.5 22.5 9.5 l34 0 l16 53 q0 13 9.5 22.5 q9.5 9.5 22.5 9.5 l218 0 q13 0 22.5 -9.5 q9.5 -9.5 9.5 -22.5 l16 -53 Z" /><glyph glyph-name="foursquare" unicode="&#xe04d;" d="M356 116 l156 155 q19 19 3 42 l151 127 l0 -466 l-666 0 l0 666 l554 0 l-154 -212 l-44 44 q-9 9 -22.5 9 q-13.5 0 -22.5 -9 l-9 -9 q-19 30 -51 48 q-32 18 -69 18 q-58 0 -99 -40.5 q-41 -40.5 -41 -99.5 q0 -57 39.5 -97.5 q39.5 -40.5 95.5 -42.5 l134 -133 q9 -10 22.5 -10 q13.5 0 22.5 10 ZM326 204 l-86 68 q37 18 57 56 q24 -32 27 -35 q2 -4 7 -4 q5 0 9 5 l252 346 l74 0 l0 -160 l-329 -277 q-4 -2 -5 -2 l-6 3 ZM105 467 q32 32 77 32 q45 0 77.5 -32 q32.5 -32 32.5 -78 q0 -45 -32.5 -77 q-32.5 -32 -77.5 -32 q-45 0 -77 32 q-32 32 -32 77 q0 46 32 78 Z" /><glyph glyph-name="forward" unicode="&#xe04e;" d="M494 616 l0 -124 q-85 0 -156.5 -17 q-71.5 -17 -120 -45.5 q-48.5 -28.5 -87 -65.5 q-38.5 -37 -60.5 -78 q-22 -41 -37.5 -82 q-15.5 -41 -21.5 -78 q-6 -37 -8.5 -65.5 q-2.5 -28.5 -2.5 -45.5 l1 -17 q21 70 60 122 q39 52 83.5 78 q44.5 26 94 41 q49.5 15 94.5 16.5 q45 1.5 81.5 -0.5 q36.5 -2 57.5 -7 l22 -5 l0 -127 l274 254 l-274 246 Z" /><glyph glyph-name="friend" unicode="&#xe051;" d="M552 163 q66 -37 60 -100 q-2 -18 -5.5 -21.5 q-3.5 -3.5 -26.5 -6.5 q-28 -3 -263 -3 q-282 0 -297 4 q-20 5 -21 28 q-1 23 15.5 50.5 q16.5 27.5 42.5 44.5 q32 20 84 45 q52 25 70 29 q17 4 23 13 q6 9 0.5 28 q-5.5 19 -23.5 50 q-16 31 -18 104 q-1 61 15 96 q16 35 62 53 q18 6 39 6 q32 0 59.5 -16.5 q27.5 -16.5 40.5 -42.5 q16 -37 11.5 -108.5 q-4.5 -71.5 -23.5 -106.5 q-15 -26 -18.5 -40.5 q-3.5 -14.5 2 -22.5 q5.5 -8 22.5 -12 q39 -10 149 -71 ZM771 226 q24 -13 36.5 -34 q12.5 -21 10.5 -44 q-1 -14 -4 -17 q-3 -3 -21 -5 q-18 -3 -149 -3 q-21 50 -72 77 q-63 36 -120 60 q41 20 52 22 q13 3 17.5 10 q4.5 7 0.5 21 q-4 14 -18 39 q-14 25 -16 82 q-2 93 62 117 q17 5 31 5 q25 0 46 -12.5 q21 -12.5 31 -33.5 q12 -29 8.5 -85 q-3.5 -56 -17.5 -84 q-11 -20 -14 -31.5 q-3 -11.5 1.5 -17.5 q4.5 -6 17.5 -9 q27 -7 117 -57 Z" /><glyph glyph-name="frustrate" unicode="&#xe052;" d="M104.5 554 q104.5 102 253.5 102 q149 0 254 -102 q105 -102 105 -247 q0 -145 -105 -247 q-105 -102 -254 -102 q-149 0 -253.5 102 q-104.5 102 -104.5 247 q0 145 104.5 247 ZM120 345 l8 -21 q6 -14 19 -9 l175 63 q9 4 10 21 q3 17 -7 23 l-160 92 q-14 8 -21 -5 l-11 -20 q-7 -13 5 -20 l108 -62 l-117 -42 q-13 -5 -9 -20 ZM589 324 l8 21 q4 15 -9 20 l-117 42 l108 62 q12 7 5 20 l-12 20 q-7 12 -20 5 l-160 -92 q-10 -6 -7 -23 q1 -17 10 -21 l174 -63 q14 -5 20 9 ZM530 99 q15 5 22 21 q7 16 2 31 q-24 61 -77.5 97 q-53.5 36 -118.5 36 q-65 0 -118 -36 q-53 -36 -77 -97 q-5 -15 1.5 -31 q6.5 -16 21.5 -21 q15 -6 172.5 -6 q157.5 0 171.5 6 Z" /><glyph glyph-name="full" unicode="&#xe053;" d="M338 382 l70 -69 q6 -6 14 -6 q7 0 13 6 l119 118 l72 -72 q17 -16 28.5 -10.5 q11.5 5.5 11.5 28.5 l0 226 q0 15 -11 26 q-11 11 -27 11 l-226 0 q-24 0 -29 -11.5 q-5 -11.5 12 -28.5 l72 -72 l-119 -118 q-5 -7 -5 -14 q0 -7 5 -14 ZM0 238 l0 -227 q0 -15 11 -26 q11 -11 27 -11 l225 0 q24 0 29.5 11.5 q5.5 11.5 -11.5 28.5 l-72 72 l119 119 q5 7 5 14 q0 6 -5 13 l-70 70 q-7 5 -14 5 q-7 0 -14 -5 l-118 -119 l-72 72 q-17 16 -28.5 11 q-11.5 -5 -11.5 -28 Z" /><glyph glyph-name="game" unicode="&#xe054;" d="M143 558 l0 72 l72 0 l0 -72 l-72 0 ZM502 630 l71 0 l0 -72 l-71 0 l0 72 ZM645 415 l0 143 l72 0 l0 -287 l-72 0 l0 -71 l-72 0 l0 -72 l72 0 l0 -72 l72 0 l0 -71 l-144 0 l0 71 l-71 0 l0 72 l-287 0 l0 -72 l-72 0 l0 -71 l-143 0 l0 71 l72 0 l0 72 l71 0 l0 72 l-71 0 l0 71 l-72 0 l0 287 l72 0 l0 -143 l71 0 l0 71 l72 0 l0 72 l72 0 l0 -72 l143 0 l0 72 l72 0 l0 -72 l71 0 l0 -71 l72 0 ZM287 343 l0 72 l-72 0 l0 -72 l72 0 ZM502 343 l0 72 l-72 0 l0 -72 l72 0 Z" /><glyph glyph-name="gear" unicode="&#xe055;" d="M649 523 l-68 -69 q28 -44 37 -94 l99 0 l0 -106 l-99 0 q-9 -49 -37 -93 l68 -70 l-75 -75 l-69 69 q-46 -30 -93 -38 l0 -98 l-107 0 l0 98 q-47 8 -93 38 l-70 -69 l-74 75 l68 70 q-30 46 -38 93 l-98 0 l0 106 l98 0 q8 48 38 94 l-68 69 l74 75 l70 -69 q46 30 93 38 l0 99 l107 0 l0 -99 q47 -8 93 -38 l69 69 l75 -75 ZM358 159 q62 0 105.5 43.5 q43.5 43.5 43.5 104.5 q0 61 -43.5 105 q-43.5 44 -105.5 44 q-61 0 -104 -43.5 q-43 -43.5 -43 -105.5 q0 -62 43 -105 q43 -43 104 -43 Z" /><glyph glyph-name="geo" unicode="&#xe056;" d="M105 561 q105 105 253 105 q148 0 253.5 -105 q105.5 -105 105.5 -254 q0 -148 -105 -253 q-105 -105 -254 -105 q-148 0 -253 104.5 q-105 104.5 -105 253.5 q0 149 105 254 ZM383 155 l0 -115 q97 8 166 77.5 q69 69.5 77 165.5 l-114 0 l0 47 l114 0 q-7 97 -76.5 166.5 q-69.5 69.5 -166.5 77.5 l0 -115 l-47 0 l0 115 q-98 -8 -168 -77.5 q-70 -69.5 -77 -166.5 l116 0 l0 -47 l-116 0 q8 -97 78 -166.5 q70 -69.5 167 -77.5 l0 116 l47 0 Z" /><glyph glyph-name="github" unicode="&#xe057;" d="M754 164 l-2 -8 q-1 -4 -5 -12 q-4 -8 -5 -12 q0 -2 -3 -8 q-23 -52 -68 -80.5 q-45 -28.5 -117 -41.5 q-16 -3 -23 -4 q-128 -16 -248 -5 q-2 0 -5 0.5 q-3 0.5 -4 0.5 q-178 20 -238 131 q-3 3 -4 8 q-1 1 -10 23 q-3 6 -4 9 q-18 51 -18 128 q0 40 9 71 q9 31 19.5 46.5 q10.5 15.5 32.5 44.5 q-12 49 -9.5 85 q2.5 36 11.5 56 l9 21 q2 0 6.5 0.5 q4.5 0.5 20.5 -1.5 q16 -2 33.5 -7.5 q17.5 -5.5 46 -20 q28.5 -14.5 58.5 -36.5 q43 19 137.5 20.5 q94.5 1.5 149.5 -15.5 q41 27 90 47.5 q49 20.5 72 12.5 q28 -49 11 -149 q2 -3 15.5 -20.5 q13.5 -17.5 24.5 -35 q11 -17.5 21 -53 q10 -35.5 10 -78.5 q-1 -65 -14 -117 ZM99 193 q0 -79 50 -120.5 q50 -41.5 137 -48.5 q4 -1 11 -1.5 q7 -0.5 11 -0.5 q110 -2 178 0 q28 2 41 4 q147 21 147 159 q0 35 -10.5 64.5 q-10.5 29.5 -44 53 q-33.5 23.5 -85.5 23.5 q-2 0 -23.5 -2 q-21.5 -2 -53.5 -4 q-32 -2 -60 -2 q-31 0 -67 2 q-36 2 -60.5 4 q-24.5 2 -27.5 2 q-40 0 -70 -14.5 q-30 -14.5 -45 -36.5 q-15 -22 -21.5 -43 q-6.5 -21 -6.5 -39 ZM204 227 q11 17 27 17 q16 0 27.5 -17 q11.5 -17 11.5 -41 q0 -24 -11.5 -41 q-11.5 -17 -27.5 -17 q-16 0 -27 17 q-11 17 -11 41 q0 24 11 41 ZM554 128 q-17 0 -28.5 17 q-11.5 17 -11.5 41 q0 24 11.5 41 q11.5 17 28.5 17 q16 0 27.5 -17 q11.5 -17 11.5 -41 q0 -24 -11.5 -41 q-11.5 -17 -27.5 -17 ZM388 100 q-7 0 -12.5 5.5 q-5.5 5.5 -5.5 13.5 q0 7 5.5 12 q5.5 5 12.5 5 q8 0 13.5 -5 q5.5 -5 5.5 -12 q0 -7 -5.5 -13 q-5.5 -6 -13.5 -6 ZM423 53 q-14 -13 -34 -13 q-20 0 -36 13.5 q-16 13.5 -16 26.5 q0 11 10 11 q10 0 10 -11 q1 -4 10.5 -12 q9.5 -8 21.5 -8 q10 0 18.5 7 q8.5 7 8.5 13 q0 11 10 11 q11 0 11 -11 q0 -14 -14 -27 Z" /><glyph glyph-name="globe" unicode="&#xe058;" d="M610 560 q107 -107 107 -253 q0 -145 -107 -252 q-106 -106 -252 -106 q-146 0 -252 106 q-106 106 -106 252 q0 147 106 253 q106 106 252 106 q146 0 252 -106 ZM399 105 l2 0 q5 0 8 -4 q4 -4 8 -4 q2 0 2 3 q0 2 1 6 l0 3 q1 3 5 3 q1 0 1 2 l-2 2 q-2 0 -2 -2 q-2 -2 -3 0 l-6 -4 l-7 2 l-12 18 l4 26 q0 3 -4 4 q-2 1 -2.5 2 q-0.5 1 0.5 2 q-8 4 -15 4 l-1 0 q-2 -1 -4 -1.5 q-2 -0.5 -4 -0.5 q-8 0 -8 2 q0 1 1 3.5 q1 2.5 2 6 q1 3.5 2 6.5 q0 1 1 5 q1 4 2 5 l1 4 l5 12 l-1 2 l-7 1 q-4 0 -14 -8 q-9 -11 -9 -15 l-20 -4 q-7 0 -11 5 q-1 7 -8 17 q-5 6 -5 15 q0 12 3 19 q4 11 -2 19 q1 0 2 1.5 q1 1.5 0 2.5 l5 6 l1 1 l1 -1 q6 5 17 3 q10 -1 13 7 l7 -7 q1 -1 3.5 2.5 q2.5 3.5 2.5 5.5 l-3 2 l18 4 l1 -2 l8 0 l10 -6 q1 0 3 2 q3 2 4 1 l9 -10 q-1 -2 -1 -6 q2 -2 2 -3 q0 -4 5.5 -13 q5.5 -9 8.5 -9 q5 0 3 6 l0 8 q0 8 -3 17 q-2 4 -7 18 l0 2 q0 5 6 8 l5 4 q1 0 4.5 3 q3.5 3 5.5 4 q2 2 8 10 l3 7 l0 4 l3 0 q2 0 2 3 q-1 1 -2 1 l-3 2 q-2 2 -3 3 l2 2 q6 6 2 13 l8 4 q-1 -3 1.5 -4 q2.5 -1 4.5 0 l4 9 q-1 3 0 6 q6 2 9 4 q6 2 8 2 l2 -1 l3 1 q0 5 -2 5 l5 11 q7 0 10 6 l8 1 q3 0 3 3 l0 2 l15 4 l2 5 l-4 6 q1 1 1 2 q0 1 -2 3 q-1 0 -1 0 l-2 1 q-2 2 -3 2 l2 0 l6 0 q4 0 4 4 q0 5 -6 5 q-26 0 -34 -16 l-6 -3 l8 8 l1 2 q0 1 -3 3 l-3 0 q12 0 20 6 q6 6 13 8 q7 -1 21 -1 q6 1 19 1 q6 4 9 10 l10 1 q1 -1 5 1.5 q4 2.5 4 4.5 q0 4 -4 5 q-6 2 -6 6 l0 3 q2 2 -1 2 q-6 0 -17 -7 q-1 -1 -2 0 q-1 1 -1 3 l1 -1 l4 2 l10 4 l1 1 q0 5 -8 5 q-1 0 -5 -2 q-4 0 -4 2 l1 2 q-13 9 -13 18 l0 4 q1 1 -2 1 q0 0 -3 0 q-1 -1 -1.5 0 q-0.5 1 -0.5 2 q0 2 -3 7.5 q-3 5.5 -6 5.5 l-3 -3 q0 -3 -3 -4 q-3 -1 -3 -3 l-1 0 l-10 -6 q0 3 -2 1 l-1 -1 q-1 0 -2 0 l-2 0 q4 0 3.5 3.5 q-0.5 3.5 -3.5 3.5 l-8 -1 q-2 0 0 2 q2 5 1 6 q0 3 -2 1 l2 3 q3 1 -3 7 l-9 1 l-6 6 q-1 -1 -4 1 q-3 3 -4 3 l-7 -3 l-18 4 q-5 0 -5 -4 q0 -2 1 -2 q2 -1 2 -3 l0 -2 q1 -1 1.5 -3.5 q0.5 -2.5 0.5 -4.5 q-1 -6 -3 -6 l-4 -6 q0 -3 3 -3 q5 -3 8 -8 q3 -3 1 -8 l-19 -15 l0 -1 q0 -5 1 -7 q1 -1 2 -4 q1 -3 2 -4 q7 -3 1 -6 q-2 0 -6 -2 l-2 -2 q0 -1 -2 -1 l-3 0 l-2 0 q0 1 1 1 q1 1 1 2 l-9 5 l-4 7 q2 4 0 6 q-1 1 -1 5 q0 7 -6 7 q-4 0 -14 -2 q2 2 -3 6 q-8 0 -18 6 q-10 6 -16 6 q-7 0 -13 -3 q2 1 3 5 l-6 10 l-1 1 q-3 0 -6 -3 q-5 -2 -5 4 l1 2 q1 1 0 2 q0 5 4 9 q1 1 4 9 q2 1 2 3 q0 2 2 2 q3 0 7 2 q3 3 7 3 l1 3 q0 1 -9 3 q-10 1 -10 3 l1 1 q9 -3 14 -3 q5 -1 15 4 q1 0 3 1 q2 1 5 2.5 q3 1.5 5 2.5 q0 1 -4 2 l4 0 l7 4 l0 4 l-2 2 l10 2 q-1 3 2 3 q3 0 6 -3 q2 -2 4 -2 l9 3 q0 1 3 1 q3 2 2 3 l-7 7 q-1 1 -1 3 q6 0 3 4 l-8 4 q-4 3 -9 3 q-6 0 -6 -4 q0 -2 2 -2 q3 0 3 -2 q4 -2 -1 -2 l-2 0 q-4 0 -7 -6 q-4 -6 -8 -7 q-1 0 -1 1 l0 2 q-2 2 -3 2 l-4 2 q0 0 4 6 q1 2 -1 3 q-2 1 -6 1 q-3 0 -5 -3 q-1 -1 -3 -5 l-10 11 l-8 1 q0 2 2 6 q1 2 -9 12 l-2 1 q-2 0 -3 0 l-2 -2 q-2 -1 -4.5 -2.5 q-2.5 -1.5 -4.5 -2.5 q-3 -1 -3 -3 q0 -2 5 -2 l-1 0 q-3 0 -3 -4 q0 -3 10 -3 q4 0 4 -1 q1 -1 3 -1 l3 1 l0 -2 l-1 -2 l1 -3 l-10 -5 l-1 -1 q-2 0 -2 -1 q0 -3 2 -5 q1 -2 0 -2.5 q-1 -0.5 -5 -0.5 l-3 2 q0 3 -7 6 q-12 4 -39 4 q-7 1 -16 1 l-15 -5 l4 -8 l-3 -1 l-12 9 l-7 1 q-27 -1 -73 -47 q-36 -36 -58 -70 l2 0 q1 0 3 1 q1 0 1.5 0.5 q0.5 0.5 1.5 0.5 q1 1 2 -0.5 q1 -1.5 1 -3.5 q0 -3 -1 -5 q-1 -1 0.5 -2 q1.5 -1 4.5 -1 q2 0 2 3 q1 2 1 0 l2 -7 l0 -1 q0 -1 -2 -3 q-2 -2 3 -4 l5 0 l2 1 l1 1 q0 -5 7 -5 l1 0 q-1 -2 -2 -3 q-4 0 0 -2 l10 -2 l0 -1 l6 -13 q0 -7 -4 -7 q-2 0 -2 2 q1 0 1 3 l-1 1 q0 1 0 2 q-1 1 -7 1 q-4 0 -2 -3 l5 -11 l2 -2 q-7 0 -7 -26 l1 -8 l1 -3 l0 -1 l-1 -9 l12 -20 l3 0 q0 -2 -1 -3 q-1 -1 -1 -4 l4 -3 q0 -5 7 -12 q0 -4 10 -11 q7 -3 13 -6 q7 -26 21 -38 l1 -6 l-2 -2 q-3 0 -1 -2 l8 -4 q2 2 5 -3 q3 -6 4 -7 l0 -3 l5 -7 l2 -2 l2 5 q-2 6 -15 25 q-6 10 -9 14 q-3 4 -3 6 q0 10 -2 14 l6 -3 q6 -2 8 -3 q1 -11 9 -19 q7 -7 11 -15 q-1 -1 0 -1.5 q1 -0.5 4 -0.5 q1 -2 1 -7 q27 -27 27 -39 l0 -1 l-2 -6 q6 -14 22 -19 l2 0 q5 -3 19 -9 q9 -6 18 -9 l10 6 q5 -1 18 -12 q15 -13 28 -15 q6 5 6 -2 l0 -2 l11 -13 l2 -6 q12 -8 16 -17 ZM270 608 l-1 2 q-6 3 -9 3 q0 0 -2 -1 q-3 0 -5 -1 q-4 -2 -13 -5.5 q-9 -3.5 -13 -5.5 q-6 -3 -9 -3 q6 0 12 3 q4 3 11 3 l3 -2 q2 -1 5 -1 q2 0 4 -2 q3 2 7 -1 l3 2 l0 4 l-1 2 l2 -1 q3 0 6 4 ZM421 22 l1 -6 l-2 -4 q-8 -5 -8 -11 l0 -1 q1 -2 1 -3 q2 -2 2 -4 q0 -1 -1 -3 q106 18 179 96 l-1 0 q-4 -2 -6 0 l-3 -1 l-5 1 l-3 0 q-3 4 -7 7 l-1 1 q-2 0 -2 -2 q0 7 -4.5 12 q-4.5 5 -10.5 5 l-1 -1 l-2 0 l-2 1 l3 0 l2 6 l-5 3 l-1 -1 q-6 2 -9 7 l-3 1 l0 -1 l-2 -1 q-6 -1 -9 -3 q-5 1 -8 4 l-12 -1 q0 9 -7 9 q-14 0 -16 -7 q0 -4 2 -6 l0 -4 l-1 -2 l-1 -1 l-1 0 l-3 7 l3 4 q-1 2 -1 5 q0 1 -0.5 2.5 q-0.5 1.5 -0.5 2.5 l-1 1 l-3 0 l-6 -4 l-4 0 l-1 -2 q-1 0 -1 -2 q-1 0 -1 -1 l-1 1 l-4 0 q-2 -2 -4 -8 l2 -2 l-5 -2 l-1 -2 l-3 -2 l0 -1 l-1 0 l0 -5 l-1 0 q-2 7 -10 11 l-3 0 l0 -2 q0 -2 4 -4 q1 -1 3 -3 l1 -2 q-1 1 -2 0.5 q-1 -0.5 -1 -1.5 l0 -2 l6 -9 l0 -17 l2 -4 q-4 -10 -7 -13 l0 1 l-2 -1 l-1 -1 l-1 -4 l1 -1 l0 -1 l-2 2 l-1 -6 l-5 -2 q-3 -2 -2 -5 q0 -2 -3 -4 l1 -2 l-2 -3 q0 -2 -1 -2 l0 -4 l1 -7 l2 -1 l2 1 l1 4 Z" /><glyph glyph-name="good" unicode="&#xe059;" d="M505 82 l0 -37 l109 0 l0 -70 q0 0 -371 0 q-10 0 -25 11 q-15 11 -24 22 l-10 12 l0 319 q9 7 23.5 19 q14.5 12 46.5 48 q32 36 48 69 q16 34 24.5 75 q8.5 41 9.5 65 l0 24 l94 0 q4 -72 0 -129 q-2 -26 -8 -58 q-6 -32 -11 -52 l-5 -19 l260 0 l0 -82 l-161 0 l0 -37 l161 0 l0 -73 l-161 0 l0 -36 l130 0 l0 -71 l-130 0 ZM0 25 l142 0 l0 308 l-142 0 l0 -308 Z" /><glyph glyph-name="google" unicode="&#xe05a;" d="M82 635 l491 0 q34 0 58 -24 q24 -24 24 -58 l0 -82 l-102 0 l0 102 l-51 0 l0 -102 l-103 0 l0 -51 l103 0 l0 -103 l51 0 l0 103 l102 0 l0 -359 q0 -34 -24 -57.5 q-24 -23.5 -58 -23.5 l-196 0 q1 6 1 18 q0 53 -17 84.5 q-17 31.5 -69 70.5 q-2 1 -10 7 q-8 6 -12 9.5 q-4 3.5 -12 9.5 q-8 6 -12.5 11 q-4.5 5 -9.5 10.5 q-5 5.5 -7.5 10.5 q-2.5 5 -2.5 10 q0 19 8.5 32 q8.5 13 36.5 35 q66 52 66 119 q0 87 -64 124 l59 0 l50 53 l-222 0 q-96 0 -160 -67 l0 36 q0 34 24 58 q24 24 58 24 ZM248 402 q7 -58 -16.5 -93.5 q-23.5 -35.5 -67.5 -33.5 q-46 2 -83 40 q-37 38 -44 96 q-7 59 18.5 98.5 q25.5 39.5 70.5 38.5 q45 -1 79.5 -43.5 q34.5 -42.5 42.5 -102.5 ZM0 111 l0 177 q46 -46 121 -46 q14 0 21 1 q-12 -22 -12 -44 q0 -27 33 -58 l-41 0 q-65 0 -122 -30 ZM309 -20 l-227 0 q-29 0 -51.5 17.5 q-22.5 17.5 -28.5 45.5 q21 32 61.5 52.5 q40.5 20.5 88.5 19.5 q23 0 57 -10 q8 -6 27 -18.5 q19 -12.5 26.5 -18.5 q7.5 -6 18.5 -16 q11 -10 16.5 -19.5 q5.5 -9.5 8.5 -20.5 q3 -10 3 -23 l0 -9 Z" /><glyph glyph-name="graph" unicode="&#xe05b;" d="M0 6 l717 0 l0 56 l-661 0 l0 546 l-56 0 l0 -602 ZM98 116 l616 0 l0 442 l-130 -119 l-121 44 l-128 -146 l-131 47 l-106 -110 l0 -158 Z" /><glyph glyph-name="group" unicode="&#xe05c;" d="M669 155 q31 -17 48 -45.5 q17 -28.5 15 -59.5 q-2 -19 -6.5 -23 q-4.5 -4 -28.5 -7 q-27 -4 -276 -4 q-290 0 -312 6 q-21 5 -22.5 29 q-1.5 24 15.5 53 q17 29 45 47 q33 22 88 48 q55 26 74 30 q26 5 27 25 q1 20 -27 71 q-18 31 -20 109 q-1 63 16.5 101 q17.5 38 65.5 56 q20 7 41 7 q34 0 62.5 -17 q28.5 -17 41.5 -45 q18 -38 13.5 -114.5 q-4.5 -76.5 -24.5 -112.5 q-15 -27 -19 -42.5 q-4 -15.5 2 -23.5 q6 -8 23 -13 q40 -11 158 -75 ZM125 185 q-23 -16 -43 -39 q-64 0 -70 2 q-12 3 -13 16.5 q-1 13.5 9 29.5 q10 16 26 26 q58 37 90 44 q14 3 15 13.5 q1 10.5 -15 39.5 q-11 18 -11 61 q-2 71 46 87 q24 9 47.5 0 q23.5 -9 33.5 -30 q9 -22 6 -64 q-3 -42 -14 -62 q-12 -23 -10.5 -31.5 q1.5 -8.5 15.5 -12.5 q2 -1 23 -10 q-63 -26 -135 -70 ZM783 223 q38 -21 35 -58 q-1 -11 -3.5 -13.5 q-2.5 -2.5 -15.5 -3.5 q-10 -2 -58 -2 q-22 28 -53 44 q-70 41 -128 66 q15 6 23 8 q15 3 15.5 13.5 q0.5 10.5 -15.5 39.5 q-11 22 -11 61 q-2 71 45 87 q24 9 48 0 q24 -9 33 -30 q9 -22 7 -64 q-2 -42 -13 -62 q-12 -23 -11 -31.5 q1 -8.5 14 -12.5 q22 -7 88 -42 Z" /><glyph glyph-name="hatena" unicode="&#xe05d;" d="M397 608 q-7 -3 -30 -11 q-23 -8 -43 -15.5 q-20 -7.5 -21 -7.5 q-8 4 -93 34 q92 32 93 33 q9 -3 94 -33 ZM609 608 q-85 -30 -93 -34 q-1 0 -21 7.5 q-20 7.5 -43 15.5 q-23 8 -30 11 q85 30 94 33 q1 -1 93 -33 ZM295 527 q-7 -2 -30.5 -10 q-23.5 -8 -43 -15 q-19.5 -7 -20.5 -7 q-1 0 -20 7 q-19 7 -42.5 15 q-23.5 8 -30.5 10 q92 32 93 33 q1 0 20 -7 q19 -7 43.5 -15.5 q24.5 -8.5 30.5 -10.5 ZM410 495 q-1 0 -20.5 7 q-19.5 7 -43 15 q-23.5 8 -30.5 10 q6 2 30.5 10.5 q24.5 8.5 43.5 15.5 q19 7 20 7 q9 -3 94 -33 q-34 -12 -94 -32 ZM638.5 502 q-19.5 -7 -20.5 -7 q-1 0 -20.5 7 q-19.5 7 -43 15 q-23.5 8 -30.5 10 q6 2 30.5 10.5 q24.5 8.5 43.5 15.5 q19 7 20 7 q1 0 20 -7 q19 -7 43.5 -15.5 q24.5 -8.5 30.5 -10.5 q-7 -2 -30.5 -10 q-23.5 -8 -43 -15 ZM410 553 l-48 -16 q-14 -6 -26 -10 q5 -2 23.5 -8 q18.5 -6 34 -11.5 q15.5 -5.5 16.5 -6.5 q2 1 17 6 q15 5 33.5 11.5 q18.5 6.5 23.5 8.5 q-6 2 -24 8.5 q-18 6.5 -33 12 q-15 5.5 -17 5.5 ZM73 472.5 q19 6.5 20 6.5 q1 0 94 -33 q-34 -12 -94 -32 q-1 0 -20 7 q-19 7 -42.5 15 q-23.5 8 -30.5 10 q5 2 29.5 11 q24.5 9 43.5 15.5 ZM304 479 l94 -33 q-34 -12 -94 -32 q-1 0 -20 7 q-19 7 -42.5 15 q-23.5 8 -30.5 10 q5 2 29.5 11 q24.5 9 43.5 15.5 q19 6.5 20 6.5 ZM497 472.5 q19 6.5 20 6.5 q1 0 94 -33 q-7 -2 -30.5 -10 q-23.5 -8 -43 -15 q-19.5 -7 -20.5 -7 q-1 0 -20 7 q-19 7 -42.5 15 q-23.5 8 -30.5 10 q5 2 29.5 11 q24.5 9 43.5 15.5 ZM726 479 q1 0 20 -6.5 q19 -6.5 43.5 -15.5 q24.5 -9 29.5 -11 q-7 -2 -30.5 -10 q-23.5 -8 -42.5 -15 q-19 -7 -20 -7 q-60 20 -94 32 l94 33 ZM19 446 q70 -24 74 -25 q11 3 75 25 q-69 24 -75 27 l-73 -27 l-1 0 ZM230 446 q23 -8 74 -25 q11 3 75 25 q-69 24 -75 27 q-4 -3 -74 -27 ZM651 446 q64 -22 75 -25 q3 1 37.5 12.5 q34.5 11.5 36.5 12.5 q-1 0 -36.5 13 q-35.5 13 -37.5 14 q-6 -3 -75 -27 ZM103 364 q17 6 95 32 q1 0 20 -7 q19 -7 42.5 -15 q23.5 -8 30.5 -10 q-92 -32 -93 -33 q-27 9 -95 33 ZM501 364 q-6 -2 -30.5 -10.5 q-24.5 -8.5 -43.5 -15.5 q-19 -7 -20 -7 q-1 0 -20 7 q-19 7 -43.5 15.5 q-24.5 8.5 -30.5 10.5 q7 2 30.5 10 q23.5 8 43 15 q19.5 7 20.5 7 q1 0 20.5 -7 q19.5 -7 43 -15 q23.5 -8 30.5 -10 ZM528 364 q7 2 30.5 10 q23.5 8 43 15 q19.5 7 20.5 7 q60 -20 94 -32 q-85 -30 -94 -33 q-1 0 -20 7 q-19 7 -43.5 15.5 q-24.5 8.5 -30.5 10.5 ZM198 338 q1 0 14.5 5 q13.5 5 31 11.5 q17.5 6.5 27.5 9.5 q-46 16 -73 25 q-8 -2 -74 -25 q9 -3 27.5 -9.5 q18.5 -6.5 31.5 -11.5 q13 -5 15 -5 ZM407 389 q-51 -17 -74 -25 q10 -3 28 -9.5 q18 -6.5 31.5 -11.5 q13.5 -5 14.5 -5 q1 0 14.5 5 q13.5 5 31 11.5 q17.5 6.5 27.5 9.5 q-46 16 -73 25 ZM607.5 343 q13.5 -5 14.5 -5 q1 0 14.5 5 q13.5 5 31 11.5 q17.5 6.5 27.5 9.5 q-46 16 -73 25 q-51 -17 -74 -25 q10 -3 28 -9.5 q18 -6.5 31.5 -11.5 ZM316 257 l94 33 q1 0 20 -6.5 q19 -6.5 43.5 -15.5 q24.5 -9 29.5 -11 q-92 -32 -93 -33 q-1 0 -20 7 q-19 7 -43.5 15.5 q-24.5 8.5 -30.5 10.5 ZM367 147 l-32 0 l0 -47 l-18 0 l0 -26 l18 0 l0 -101 l32 0 l0 101 l18 0 l0 26 l-18 0 l0 47 ZM41 145 l-34 0 l0 -172 l34 0 l0 76 l71 0 l0 -76 l32 0 l0 172 l-32 0 l0 -64 l-71 0 l0 64 ZM579 101 l-31 0 l0 -128 l31 0 l0 51 q0 7 1 16 l0 8 q3 12 10 19 q6 6 15 6 q6 0 12 -4 q4 -3 8 -12 q2 -10 2 -29 l0 -55 l30 0 l0 82 q0 23 -10 33 q-15 13 -32 13 q-7 0 -17 -4 q-8 -3 -19 -12 l0 16 ZM265 88 l0 12 l32 0 l0 -127 l-32 0 l0 14 q-17 -14 -38 -14 q-26 0 -44.5 19 q-18.5 19 -18.5 45 q0 27 18.5 45 q18.5 18 44.5 18 q23 0 38 -12 ZM494 12 l27 0 q-9 -23 -25 -30 q-20 -9 -32 -9 q-27 0 -46 19 q-18 16 -18 45 q0 27 18 45 q18 18 45 18 q28 0 46 -18 q17 -16 17 -48 l0 -5 l-97 0 q1 -13 11 -21 q10 -8 24 -8 q18 0 30 12 ZM779 88 l0 12 l33 0 l0 -127 l-33 0 l0 14 q-17 -14 -38 -14 q-26 0 -44.5 19 q-18.5 19 -18.5 45 q0 27 18.5 45 q18.5 18 44.5 18 q23 0 38 -12 ZM430 52 l67 0 q-4 11 -13 17 q-7 6 -20 6 q-13 0 -23 -7 q-3 -2 -11 -16 ZM203 12.5 q10 -10.5 24 -10.5 q14 0 24.5 10.5 q10.5 10.5 10.5 24.5 q0 14 -10.5 25 q-10.5 11 -24.5 11 q-14 0 -24 -11 q-10 -11 -10 -25 q0 -14 10 -24.5 ZM717 12.5 q10 -10.5 24 -10.5 q14 0 24.5 10.5 q10.5 10.5 10.5 24.5 q0 14 -10.5 25 q-10.5 11 -24.5 11 q-14 0 -24 -11 q-10 -11 -10 -25 q0 -14 10 -24.5 Z" /><glyph glyph-name="heart" unicode="&#xe06e;" d="M582 624 q59 0 103 -31.5 q44 -31.5 63 -77.5 q19 -46 19 -97.5 q0 -51.5 -22 -90.5 q-40 -72 -130 -156 q-90 -84 -161 -132 l-70 -48 q-11 7 -30 19.5 q-19 12.5 -71 51.5 q-52 39 -96 77 q-44 38 -91.5 90 q-47.5 52 -72.5 98 q-22 39 -22 90.5 q0 51.5 18.5 97.5 q18.5 46 62.5 77.5 q44 31.5 104 31.5 q53 0 94 -20 q41 -20 62 -50.5 q21 -30.5 29.5 -49 q8.5 -18.5 12.5 -33.5 q4 15 12.5 33.5 q8.5 18.5 29.5 49 q21 30.5 62 50.5 q41 20 94 20 Z" /><glyph glyph-name="heartempty" unicode="&#xe06f;" d="M384 -14 q10 0 15 4 q14 9 33 21.5 q19 12.5 67.5 49 q48.5 36.5 89.5 72 q41 35.5 85.5 85 q44.5 49.5 68.5 92.5 q27 50 24.5 111 q-2.5 61 -33.5 113 q-56 95 -168 95 q-119 0 -182 -98 q-63 98 -182 98 q-111 0 -169 -95 q-31 -52 -33 -113.5 q-2 -61.5 25 -110.5 q22 -41 64 -88 q42 -47 77 -78.5 q35 -31.5 88.5 -72 q53.5 -40.5 66 -49.5 q12.5 -9 43.5 -29 q3 -3 4 -3 q7 -4 16 -4 ZM202 569 q41 0 72.5 -15 q31.5 -15 47 -37.5 q15.5 -22.5 22.5 -37.5 q7 -15 10 -27 q7 -24 30 -24 q10 0 18.5 7 q8.5 7 10.5 17 q3 13 10 27.5 q7 14.5 23.5 37.5 q16.5 23 47.5 37.5 q31 14.5 72 14.5 q81 0 117 -66 q22 -37 24.5 -83.5 q2.5 -46.5 -16.5 -80.5 q-69 -124 -307 -288 q-237 161 -307 288 q-19 34 -16.5 80.5 q2.5 46.5 24.5 83.5 q36 66 117 66 Z" /><glyph glyph-name="help" unicode="&#xe070;" d="M105 561 q105 105 253 105 q148 0 253.5 -105 q105.5 -105 105.5 -254 q0 -148 -105 -253 q-105 -105 -254 -105 q-148 0 -253 104.5 q-105 104.5 -105 253.5 q0 149 105 254 ZM331 196 l24 0 q2 45 16.5 67 q14.5 22 57.5 48 q46 29 59 43 q27 28 27 71 q0 53 -40 83.5 q-40 30.5 -110 30.5 q-40 0 -82 -15 q-37 -14 -59 -42 q-22 -28 -22 -61 q0 -33 46 -33 q19 0 29.5 7.5 q10.5 7.5 9.5 21.5 l0 24 q0 31 14 54 q17 27 55 27 q34 0 54 -24.5 q20 -24.5 20 -64.5 q0 -32 -11 -57 q-10 -19 -39 -51 q-28 -29 -38.5 -54.5 q-10.5 -25.5 -10.5 -59.5 l0 -15 ZM307.5 66 q14.5 -15 36.5 -15 q22 0 37 15 q15 15 15 37 q0 22 -15 37 q-15 15 -37 15 q-22 0 -36.5 -15 q-14.5 -15 -14.5 -37 q0 -22 14.5 -37 Z" /><glyph glyph-name="horizontal" unicode="&#xe071;" d="M330 537 l-287 0 l0 -179 q-26 -7 -43 -21 l0 261 q0 28 20 48 q20 20 48 20 l237 0 q28 0 48 -20 q20 -20 20 -48 l0 -238 l-43 0 l0 177 ZM471 453 l69 0 q-5 44 -35 74 q-40 40 -96 35 l0 51 q78 5 132 -50 q45 -45 50 -110 l67 0 l-92 -100 l-95 100 ZM68 322 l552 0 q28 0 47.5 -20 q19.5 -20 19.5 -48 l0 -238 q0 -28 -19.5 -47.5 q-19.5 -19.5 -47.5 -19.5 l-552 0 q-28 0 -48 19.5 q-20 19.5 -20 47.5 l0 238 q0 28 20 48 q20 20 48 20 ZM134 -7 l424 0 l0 286 l-424 0 l0 -286 ZM52 109 q11 -11 26 -11 q15 0 26.5 11 q11.5 11 11.5 26 q0 15 -11.5 26 q-11.5 11 -26.5 11 q-15 0 -26 -11 q-11 -11 -11 -26 q0 -15 11 -26 Z" /><glyph glyph-name="home" unicode="&#xe072;" d="M623 416 l116 -106 q10 -10 7.5 -16.5 q-2.5 -6.5 -16.5 -6.5 l-87 0 l0 -277 q0 -14 -10.5 -25 q-10.5 -11 -24.5 -11 l-151 0 l0 194 q0 14 -11 25 q-11 11 -25 11 l-95 0 q-14 0 -25 -11 q-11 -11 -11 -25 l0 -194 l-151 0 q-14 0 -25 11 q-11 11 -11 25 l0 277 l-86 0 q-14 0 -16.5 6.5 q-2.5 6.5 7.5 16.5 l339 308 q11 10 26.5 10 q15.5 0 26.5 -10 l77 -69 l0 55 q0 14 11 25 q11 11 25 11 l75 0 q14 0 24.5 -11 q10.5 -11 10.5 -25 l0 -188 Z" /><glyph glyph-name="hot" unicode="&#xe073;" d="M630 303 q0 190 -190 190 q190 0 190 189 q0 -189 189 -189 q-189 0 -189 -190 ZM345 624 q0 -170 88 -258 q88 -88 258 -88 q-170 0 -258 -88 q-88 -88 -88 -258 q0 170 -87.5 258 q-87.5 88 -257.5 88 q170 0 257.5 88 q87.5 88 87.5 258 ZM595 146 q0 -91 90 -91 l1 0 q-91 0 -91 -90 q0 90 -90 90 q90 0 90 91 Z" /><glyph glyph-name="image" unicode="&#xe074;" d="M0 14 l0 586 l717 0 l0 -586 l-717 0 ZM644 208 l0 319 l-571 0 l0 -271 l156 93 l204 -111 l83 49 l128 -79 ZM550.5 373 q-16.5 -17 -40.5 -17 q-24 0 -40.5 17 q-16.5 17 -16.5 41 q0 24 16.5 41 q16.5 17 40.5 17 q24 0 40.5 -17 q16.5 -17 16.5 -41 q0 -24 -16.5 -41 Z" /><glyph glyph-name="info" unicode="&#xe075;" d="M105 561 q105 105 253 105 q148 0 253.5 -105 q105.5 -105 105.5 -254 q0 -148 -105 -253 q-105 -105 -254 -105 q-148 0 -253 104.5 q-105 104.5 -105 253.5 q0 149 105 254 ZM390 552 q-21 0 -36 -18 q-15 -18 -15 -41 q0 -17 10 -29 q11 -11 27 -11 q22 0 37 18 q14 17 14 44 q0 16 -10 26 q-11 11 -27 11 ZM263 327 l12 -13 q11 12 24 23 q9 6 15 6 q5 0 8 -3 q2 -6 2 -11 q0 -27 -16 -101 q-20 -92 -20 -133 q0 -17 6 -24 q5 -9 17 -9 q19 0 54 27 q30 25 68 75 l-13 11 q-9 -11 -22 -22 q-12 -8 -15 -8 q-3 0 -8 5 q-2 6 -2 13 q0 11 5 40 q6 45 8 57 q0 3 7 41 q13 83 13 92 q0 12 -6 22 q-6 7 -17 7 q-16 0 -50 -25 q-28 -22 -70 -70 Z" /><glyph glyph-name="instapaper" unicode="&#xe076;" d="M129 640 l408 0 q54 0 91.5 -37.5 q37.5 -37.5 37.5 -91.5 l0 -307 q-2 -22 -12 -41 q-10 -19 -22 -26 q-8 -4 -37 -4 q-29 0 -44 -9 q-16 -9 -29 -34.5 q-13 -25.5 -20 -31.5 q-27 -20 -72 -24 l-316 0 q-47 0 -80.5 33 q-33.5 33 -33.5 79 l0 365 q0 54 37.5 91.5 q37.5 37.5 91.5 37.5 ZM385 500 l29 0 l0 38 l-160 0 l0 -38 l27 0 q8 0 13.5 -6 q5.5 -6 5.5 -14 l0 -285 q0 -8 -5.5 -14 q-5.5 -6 -13.5 -6 l-27 0 l0 -38 l160 0 l0 38 l-29 0 q-8 0 -13.5 6 q-5.5 6 -5.5 14 l0 285 q0 8 5.5 14 q5.5 6 13.5 6 ZM552 34 l-121 0 q89 0 162 49.5 q73 49.5 73 120.5 l0 -58 q0 -46 -33.5 -79 q-33.5 -33 -80.5 -33 ZM114 19 l438 0 q46 0 80 33.5 q34 33.5 34 80.5 l0 -13 q0 -46 -34 -80 q-34 -34 -80 -34 l-438 0 q-46 0 -80 34 q-34 34 -34 80 l0 13 q0 -47 34 -80.5 q34 -33.5 80 -33.5 ZM114 -7 l438 0 q47 0 80.5 33.5 q33.5 33.5 33.5 79.5 l0 -3 q0 -54 -37.5 -91.5 q-37.5 -37.5 -91.5 -37.5 l-408 0 q-54 0 -91.5 37.5 q-37.5 37.5 -37.5 91.5 l0 3 q0 -46 33.5 -79.5 q33.5 -33.5 80.5 -33.5 Z" /><glyph glyph-name="internetexplorer" unicode="&#xe077;" d="M537 184 l183 0 q-33 -100 -120.5 -163.5 q-87.5 -63.5 -196.5 -63.5 q-107 0 -192.5 61.5 q-85.5 61.5 -121.5 158.5 q-67 -138 -18 -185 q54 -55 166 -1 q-146 -84 -212 -18 q-21 21 -23.5 66 q-2.5 45 11 102.5 q13.5 57.5 48 126.5 q34.5 69 83.5 131 q0 1 1 1 q4 6 18 22 q1 0 1 1 q2 3 8 9 q2 2 2 3 q1 1 2.5 2 q1.5 1 2.5 2.5 q1 1.5 2 2.5 l3 3 q1 1 3 4 q2 3 3 4 q1 1 4 3 l10 10 l15 15 q1 1 1 1 q2 0 2 1 l15 15 q2 1 4 3 l15 12 q1 2 3 4 l12 9 q1 1 3 2 l2 2 q2 2 14 11 q1 1 3 2.5 q2 1.5 3 2.5 l12 9 q6 4 8 5 q1 1 3.5 2.5 q2.5 1.5 3.5 2.5 l15 9 l4 4 q5 3 15.5 9 q10.5 6 15.5 9 q-140 -59 -268 -213 q-18 -21 -31 -40 q19 121 112 202 q93 81 217 81 q16 0 24 -1 q89 41 162.5 46.5 q73.5 5.5 105.5 -27.5 q53 -51 13 -152 q22 75 -20 117 q-47 47 -165 -6 q95 -36 154.5 -121.5 q59.5 -85.5 59.5 -189.5 q0 -15 -2 -41 l-474 0 q4 -32 22 -67 q42 -76 120 -76 q99 0 134 76 ZM263 344 l287 0 q-11 66 -52 98.5 q-41 32.5 -95 32.5 q-51 0 -89 -35 q-38 -35 -51 -96 Z" /><glyph glyph-name="iphone" unicode="&#xe078;" d="M76 691 l265 0 q31 0 53.5 -22.5 q22.5 -22.5 22.5 -53.5 l0 -616 q0 -31 -22.5 -53.5 q-22.5 -22.5 -53.5 -22.5 l-265 0 q-32 0 -54 22.5 q-22 22.5 -22 53.5 l0 616 q0 31 22 53.5 q22 22.5 54 22.5 ZM49 74 l319 0 l0 473 l-319 0 l0 -473 ZM208 -31 q18 0 30 12 q12 12 12 29 q0 18 -12 30 q-12 12 -30 12 q-17 0 -29 -12 q-12 -12 -12 -30 q0 -17 12 -29 q12 -12 29 -12 Z" /><glyph glyph-name="italic" unicode="&#xe079;" d="M8 11 l-8 -36 q8 0 16 1 q5 0 27 2 q56 6 79 5 l87 0 q31 -3 46 -6 q10 -1 19 -1 q3 -2 8 -2 q0 0 5 0 q0 0 6 0 q7 0 12 1 q0 0 5 0 q1 1 5 1 q3 4 3 10 q0 1 3 7 q0 2 0.5 5.5 q0.5 3.5 0.5 6.5 q0 1 0.5 5.5 q0.5 4.5 0.5 7.5 l-20 4 q-5 1 -9 1 q-19 2 -53 9 q-1 3 -1 7 l0 5 l6 19 l18 102 l18 68 l27 136 q2 9 29 132 q2 15 6 35 q7 28 11 38 q21 8 45 14 q37 9 49 13 q3 16 6 22 q0 1 0.5 4 q0.5 3 0.5 5 q1 2 1 8 q-9 0 -17 -1 q-5 0 -29 -2 q-60 -4 -96 -4 l-11 0 q-3 0 -10 0.5 q-7 0.5 -12 0.5 l-141 6 l-9 -45 l8 0 q2 -1 10 -1 q44 -3 64 -12 l0 -18 l-4 -20 l-9 -59 l-7 -28 l-14 -68 q0 -1 -8 -27 q-9 -31 -17 -77 l-5 -28 l-26 -116 l-12 -59 q-4 -26 -18 -45 q-30 -12 -52 -17 q-5 -1 -13.5 -3 q-8.5 -2 -13 -3.5 q-4.5 -1.5 -7.5 -2.5 Z" /><glyph glyph-name="key" unicode="&#xe07c;" d="M318 171 l-39 40 q-5 -2 -13 -4 q-8 -2 -33 -3.5 q-25 -1.5 -50.5 3 q-25.5 4.5 -60.5 23 q-35 18.5 -66 49.5 q-45 45 -53 107 q-8 62 10.5 114 q18.5 52 51.5 84 q35 35 86 53.5 q51 18.5 113.5 8 q62.5 -10.5 110.5 -58.5 q29 -29 45.5 -62.5 q16.5 -33.5 20 -61.5 q3.5 -28 2.5 -51.5 q-1 -23.5 -5 -36.5 l-4 -13 l283 -282 l-8 -147 l-144 -9 l-8 72 l-75 9 l-7 75 l-74 10 l-11 72 l-72 9 ZM176 585 q-39 -8 -72 -41 q-33 -33 -41 -71.5 q-8 -38.5 14 -59.5 q22 -22 60 -14 q38 8 71 41 q33 33 41.5 71.5 q8.5 38.5 -13.5 59.5 q-21 22 -60 14 ZM683 24 l2 42 l-269 269 l-22 -22 l289 -289 Z" /><glyph glyph-name="keyboard" unicode="&#xe07d;" d="M30 553 l708 0 q12 0 21 -9 q9 -9 9 -21 l0 -432 q0 -12 -9 -21 q-9 -9 -21 -9 l-708 0 q-12 0 -21 9 q-9 9 -9 21 l0 432 q0 12 9 21 q9 9 21 9 ZM51 113 l666 0 l0 389 l-666 0 l0 -389 ZM123 461 l61 0 l0 -62 l-61 0 l0 62 ZM239 461 l61 0 l0 -62 l-61 0 l0 62 ZM353 461 l62 0 l0 -62 l-62 0 l0 62 ZM469 461 l60 0 l0 -62 l-60 0 l0 62 ZM584 461 l61 0 l0 -62 l-61 0 l0 62 ZM181 338 l62 0 l0 -62 l-62 0 l0 62 ZM297 276 l0 62 l61 0 l0 -62 l-61 0 ZM412 276 l0 62 l61 0 l0 -62 l-61 0 ZM589 276 l-62 0 l0 62 l62 0 l0 -62 ZM529 154 l-290 0 l0 61 l290 0 l0 -61 Z" /><glyph glyph-name="kudakurage" unicode="&#xe07e;" d="M613 523 l5 -8 q10 -19 14 -28.5 q4 -9.5 10.5 -28.5 q6.5 -19 5.5 -37.5 q-1 -18.5 -8 -36.5 q-8 -20 -36 -42 q-12 -10 -17 -15 q20 -76 61 -117 q2 -2 10 -8 q28 -17 24 -38 q0 -4 -5 -4 q-32 0 -66 43 q-34 50 -54 113 q-3 -1 -8.5 -2.5 q-5.5 -1.5 -8.5 -2.5 q-4 0 -10 -2 q9 -54 11 -70 q12 -100 36 -139 q1 -1 11 -14 q22 -22 13 -43 q-1 -3 -3 -3 l-4 0 q-28 15 -45.5 49.5 q-17.5 34.5 -23 63 q-5.5 28.5 -12.5 80.5 q-6 52 -10 72 q-2 0 -5.5 -0.5 q-3.5 -0.5 -5.5 -0.5 q-22 -4 -36 -4 q3 -65 18 -190 q1 -20 5 -48 q2 -12 8 -35 l0 -2 l1 -2 q0 -2 0 -3 q8 -19 4 -27 q-3 -4 -10 -8 l-5 0 q-22 0 -27 62 l-1 6 q-1 7 -3.5 26 q-2.5 19 -3.5 29 q-16 121 -19 189 q-11 -2 -41 -4 q-4 0 -14.5 -0.5 q-10.5 -0.5 -15.5 -0.5 q8 -21 10 -51 q2 -30 0.5 -48.5 q-1.5 -18.5 -5.5 -56.5 q-14 -117 10 -159 q3 -5 12 -12 q20 -16 12 -38 q-2 -5 -6 -3 q-34 11 -48.5 43 q-14.5 32 -12 71.5 q2.5 39.5 5.5 84.5 q10 112 -5 153 q-2 9 1 13 q-26 -2 -42 -2 q-12 -55 -21 -118 q-1 -6 -3 -18.5 q-2 -12.5 -3 -18.5 q-17 -119 -16 -179 q1 -3 2 -8 q1 -5 1 -8 q6 -28 -10 -38 q-1 -1 -3 -1 l-1 0 q-17 2 -17 42 l0 5 q0 61 24 225 q10 64 15 114 q-17 2 -32 -1 q-3 0 -7.5 -0.5 q-4.5 -0.5 -6.5 -0.5 q-12 -116 -60 -224 q-1 -2 -2.5 -6 q-1.5 -4 -1.5 -6 q-15 -40 -36 -48 q-5 0 -6 3 q-11 17 11 51 q4 5 9 15 q44 91 56 216 q-5 2 -19 2 q-1 0 -5 -0.5 q-4 -0.5 -5 -0.5 l-13 0 q-6 -106 -69 -170 q-26 -28 -43 -26 q-3 0 -5 2 q-6 9 -4 18 q3 9 20 17 l9 6 q57 60 63 153 q0 2 -7 0 l-9 0 q-1 0 -1 1 l-2 1 q-3 3 -8.5 7 q-5.5 4 -8.5 7 q-21 17 -31.5 27 q-10.5 10 -22 30.5 q-11.5 20.5 -14.5 44.5 q-6 53 30 133 q1 3 3.5 8 q2.5 5 4.5 8 q37 82 89 119 q67 47 166 47 q55 0 114 -17 q132 -38 205 -177 ZM575 355 q31 18 37 54 q6 36 -16 76 q-64 120 -140 164 q-25 14 -73 26 q-48 12 -88 12 q-3 0 -9 -0.5 q-6 -0.5 -8 -0.5 q-130 -12 -191 -106 q-50 -87 -55 -136 q-6 -60 22 -92 q38 -41 143 -41 q25 0 114 7 q40 4 58 5 q22 2 35 2 q131 6 171 30 ZM457 524 q-4 -6 -8 -7 q-2 -2 -5 -2 l-2 0 l-2 0 l-1 1 q-1 0 -2 0 q-9 4 -12 11 q-1 0 -2 1 q-1 4 -1 12 q0 10 5 17 q3 5 9 7 q2 2 3 2 l3 0 l1 0 q2 0 3 -1 q10 -3 14 -10 q0 -1 1 -1 q2 -8 1 -12 q0 -12 -5 -18 ZM200 500 q-21 0 -24 18 q-2 13 4 20 q6 7 16.5 7 q10.5 0 16.5 -7 q9 -9 6 -27 q0 -1 -1 -2 q-8 -9 -18 -9 ZM526 460 q1 -1 2 -2 q1 -1 1 -3 q-2 -11 -11.5 -20.5 q-9.5 -9.5 -20.5 -9.5 q-9 0 -13 4 q-4 2 -2 5 q-10 -8 -19 -12 l-2 0 q-3 0 -5 3 q0 1 -1 1 q-4 2 -3 6 q1 12 10.5 20.5 q9.5 8.5 20.5 8.5 l7 0 l2 -1 l2 -2 q2 -2 0 -4 q0 -1 -2 -5 q15 15 33 12 l1 -1 ZM559 454 q3 -2 3 -4 q0 -9 -4 -13 q-7 -7 -16 -7 q-10 0 -16 6 q-1 1 -1 4 q0 7 6.5 12 q6.5 5 15.5 5 q7 0 12 -3 ZM104 404 l0 2 l-1 1 q-1 0 -3 2 q-1 2 -1 4 q2 10 11 18 q9 8 19 8 q4 0 5 -1 q6 0 4 -6 q-3 -24 -27 -30 l-1 0 q-4 0 -6 2 ZM184 435 l0 -4 q-13 -27 -31 -33 q-1 -1 -2 -1 q-5 0 -6 3 l0 2 q-2 0 -4 2 l0 5 q8 30 32 30 q5 0 7 -1 q2 0 4 -3 ZM218 434 q3 0 4 -1 q2 -3 1 -5 q-2 -20 -28 -32 l-2 -1 q-3 0 -5 2 q-8 9 -3 19 q8 18 33 18 ZM392 420 q7 0 12 -4 q4 -2 3 -5 q-3 -22 -26 -33 q-23 -11 -52 -11 q-60 0 -70 40 q0 4 2 5 q7 5 14 5 q10 0 20 -10 q10 -7 12 -8 q22 -7 49 2 q4 2 14 9 q14 10 22 10 Z" /><glyph glyph-name="laugh" unicode="&#xe07f;" d="M104.5 554 q104.5 102 253.5 102 q149 0 254 -102 q105 -102 105 -247 q0 -145 -105 -247 q-105 -102 -254 -102 q-149 0 -253.5 102 q-104.5 102 -104.5 247 q0 145 104.5 247 ZM138 366 l3 -1 q9 0 12 8 q0 3 4 13.5 q4 10.5 17.5 23 q13.5 12.5 33.5 12.5 q8 0 15 -2 q7 -2 12.5 -5.5 q5.5 -3.5 10 -7.5 q4.5 -4 7 -8.5 q2.5 -4.5 5 -9 q2.5 -4.5 3.5 -8 q1 -3.5 2 -5.5 l1 -3 q3 -8 11 -8 l32 10 q5 1 6 6 q3 4 1 8 q-1 5 -3 10.5 q-2 5.5 -10 20.5 q-8 15 -18.5 25.5 q-10.5 10.5 -30.5 19.5 q-20 9 -44 9 q-30 0 -52 -11 q-22 -11 -32.5 -27.5 q-10.5 -16.5 -15 -26.5 q-4.5 -10 -6.5 -18 l0 -1 q-2 -5 1 -9 q1 -4 7 -6 l28 -9 ZM575 365 l32 10 q5 1 6 6 q3 4 1 8 q-1 5 -3 10.5 q-2 5.5 -10 20.5 q-8 15 -18.5 25.5 q-10.5 10.5 -30 19.5 q-19.5 9 -43.5 9 q-30 0 -52.5 -11 q-22.5 -11 -33 -27.5 q-10.5 -16.5 -15 -27 q-4.5 -10.5 -6.5 -17.5 q0 0 0 -1 q-2 -5 1 -9 q1 -4 7 -6 l28 -9 l3 -1 q9 0 12 8 q0 3 4 13.5 q4 10.5 18 23 q14 12.5 34 12.5 q20 0 33.5 -12.5 q13.5 -12.5 17.5 -22.5 q4 -10 4 -14 q3 -8 11 -8 ZM554 208 q5 15 -2 30 q-7 15 -22 21 q-15 6 -172.5 6 q-157.5 0 -171.5 -6 q-15 -6 -21.5 -21 q-6.5 -15 -1.5 -30 q24 -61 77 -97.5 q53 -36.5 118 -36.5 q65 0 118.5 36.5 q53.5 36.5 77.5 97.5 Z" /><glyph glyph-name="left" unicode="&#xe080;" d="M227 309 l246 -246 l-119 -114 l-354 354 l362 363 l113 -112 l-248 -245 Z" /><glyph glyph-name="wink" unicode="&#xe081;" d="M104.5 554 q104.5 102 253.5 102 q149 0 254 -102 q105 -102 105 -247 q0 -145 -105 -247 q-105 -102 -254 -102 q-149 0 -253.5 102 q-104.5 102 -104.5 247 q0 145 104.5 247 ZM587 324 l8 21 q5 15 -9 20 l-117 42 l108 62 q12 7 5 20 l-12 20 q-7 13 -19 5 l-161 -92 q-8 -5 -7 -23 q1 -17 10 -21 l175 -63 q13 -5 19 9 ZM258 485 l-41 0 q-8 0 -13.5 -6 q-5.5 -6 -5.5 -14 l0 -100 q0 -8 5.5 -14.5 q5.5 -6.5 13.5 -6.5 l41 0 q8 0 14 6.5 q6 6.5 6 14.5 l0 100 q0 8 -6 14 q-6 6 -14 6 ZM228 243 l-39 -13 q-6 -2 -8 -7 q-3 -4 -1 -11 q1 -4 5 -12.5 q4 -8.5 17.5 -25.5 q13.5 -17 31.5 -31 q18 -14 51 -24.5 q33 -10.5 73 -10.5 q40 0 73 10.5 q33 10.5 51.5 24.5 q18.5 14 32 30.5 q13.5 16.5 17.5 25.5 q4 9 5 13 q2 7 -1 11 q-2 5 -9 7 l-34 12 l-5 1 q-9 0 -13 -10 q0 -1 -3 -6.5 q-3 -5.5 -11 -15 q-8 -9.5 -20.5 -18 q-12.5 -8.5 -34 -15 q-21.5 -6.5 -48.5 -6.5 q-26 0 -48 6.5 q-22 6.5 -33.5 14 q-11.5 7.5 -20 18 q-8.5 10.5 -11 15 q-2.5 4.5 -3.5 7.5 q-4 10 -14 10 Z" /><glyph glyph-name="link" unicode="&#xe082;" d="M333 390 l80 81 q11 11 23 26 q11 12 26 24 q32 28 62 28 q30 0 55 -23 q22 -20 22 -54 q0 -17 -4 -26 q-10 -20 -19 -32 q-6 -8 -6 -12 q0 -6 2 -7 q18 -44 24 -78 q4 -16 19 -16 q7 0 12 4 q8 5 22 21 q2 2 5 5.5 q3 3.5 4 4.5 q57 55 57 136 q0 80 -57 137 q-59 57 -136 57 q-82 0 -137 -58 l-137 -136 q-56 -58 -56 -136 q0 -29 16 -75 q19 -53 40 -53 q14 0 44 32 q32 34 32 43 q0 2 -8 20 q-7 13 -7 33 q0 32 22 54 ZM330 6 l137 136 q56 54 56 137 q0 28 -16 74 q-17 54 -40 54 q-14 0 -43 -33 q-33 -33 -33 -42 q0 -8 8 -21 q9 -16 9 -32 q-2 -32 -23 -56 l-81 -80 q-4 -4 -11.5 -12.5 q-7.5 -8.5 -11.5 -12.5 l-25 -25 q-29 -27 -63 -27 q-32 0 -54 22 q-22 22 -22 54 q0 14 5 26 q9 20 19 32 q4 5 4 11 l-2 8 q-17 38 -24 78 q-4 10 -6 11 q-4 5 -13 5 q-6 0 -11 -4 q-10 -6 -23 -21 q-1 -2 -3 -3.5 q-2 -1.5 -3.5 -3 q-1.5 -1.5 -2.5 -2.5 q-57 -57 -57 -137 q0 -82 57 -137 q56 -56 136 -56 q83 0 137 57 Z" /><glyph glyph-name="linkedin" unicode="&#xe083;" d="M0 556 l0 -498 q0 -35 24.5 -59.5 q24.5 -24.5 59.5 -24.5 l498 0 q34 0 59 25 q25 25 25 59 l0 498 q0 35 -24.5 59.5 q-24.5 24.5 -59.5 24.5 l-498 0 q-34 0 -59 -25 q-25 -25 -25 -59 ZM90 490 q0 24 17 42 q17 18 41 18 q25 0 42.5 -18 q17.5 -18 17.5 -42 q0 -25 -17.5 -42 q-17.5 -17 -42.5 -17 q-24 0 -41 17 q-17 17 -17 42 ZM251 79 l0 305 q0 5 4 9 q4 4 8 4 l85 0 q12 0 12 -23 q30 30 87 30 q60 0 94 -29.5 q34 -29.5 34 -89.5 l0 -206 q0 -5 -3.5 -9 q-3.5 -4 -8.5 -4 l-88 0 q-12 0 -12 13 l0 186 q0 25 -9.5 36.5 q-9.5 11.5 -34.5 11.5 q-55 0 -55 -68 l0 -166 q0 -5 -4.5 -9 q-4.5 -4 -9.5 -4 l-87 0 q-4 0 -8 4.5 q-4 4.5 -4 8.5 ZM92 79 l0 305 q0 5 4 9 q4 4 8 4 l87 0 q13 0 13 -13 l0 -305 q0 -13 -13 -13 l-87 0 q-4 0 -8 4 q-4 4 -4 9 Z" /><glyph glyph-name="list" unicode="&#xe084;" d="M110.5 490 q18.5 19 18.5 46 q0 27 -18.5 45.5 q-18.5 18.5 -45.5 18.5 q-27 0 -46 -18.5 q-19 -18.5 -19 -45.5 q0 -27 19 -46 q19 -19 46 -19 q27 0 45.5 19 ZM204 483 l564 0 l0 104 l-564 0 l0 -104 ZM110.5 261.5 q18.5 18.5 18.5 45.5 q0 27 -18.5 46 q-18.5 19 -45.5 19 q-27 0 -46 -19 q-19 -19 -19 -46 q0 -27 19 -45.5 q19 -18.5 46 -18.5 q27 0 45.5 18.5 ZM204 255 l564 0 l0 104 l-564 0 l0 -104 ZM110.5 33 q18.5 19 18.5 46 q0 27 -18.5 45.5 q-18.5 18.5 -45.5 18.5 q-27 0 -46 -18.5 q-19 -18.5 -19 -45.5 q0 -27 19 -46 q19 -19 46 -19 q27 0 45.5 19 ZM204 28 l564 0 l0 103 l-564 0 l0 -103 Z" /><glyph glyph-name="location" unicode="&#xe085;" d="M333 -44 l333 702 l-666 -356 l333 0 l0 -346 Z" /><glyph glyph-name="lock" unicode="&#xe086;" d="M468 334 l67 0 q7 0 11.5 -5 q4.5 -5 4.5 -12 l0 -352 q0 -16 -16 -16 l-519 0 q-16 0 -16 16 l0 352 q0 7 4.5 12 q4.5 5 11.5 5 l65 0 l0 164 q0 71 41.5 119.5 q41.5 48.5 108.5 48.5 l86 0 q67 0 109 -48.5 q42 -48.5 42 -119.5 l0 -164 ZM166 334 l218 0 l0 1 l0 155 q0 38 -27.5 66 q-27.5 28 -66.5 28 l-31 0 q-38 0 -65.5 -28 q-27.5 -28 -27.5 -66 l0 -155 l0 -1 ZM229 51 l93 0 l-23 101 q27 14 27 44 q0 22 -15 36.5 q-15 14.5 -36 14.5 q-21 0 -35.5 -14.5 q-14.5 -14.5 -14.5 -36.5 q0 -30 27 -44 l-23 -101 Z" /><glyph glyph-name="login" unicode="&#xe087;" d="M391 -18 l195 0 q56 0 92 38 q39 39 39 92 l0 391 q0 53 -39 92 q-38 38 -92 38 l-195 0 l0 -82 l195 0 q21 0 35 -14 q14 -14 14 -34 l0 -391 q0 -20 -14 -34.5 q-14 -14.5 -35 -14.5 l-195 0 l0 -81 ZM0 385 l0 -156 q0 -13 10 -23 q10 -10 23 -10 l182 0 l0 -123 q0 -17 15 -25 q4 -1 11 -1 q11 0 18 7 l235 235 q7 7 6.5 18 q-0.5 11 -6.5 19 l-235 234 q-11 11 -29 6 q-15 -8 -15 -24 l0 -124 l-182 0 q-13 0 -23 -10 q-10 -10 -10 -23 Z" /><glyph glyph-name="logout" unicode="&#xe088;" d="M0 503 l0 -391 q0 -52 39 -93 q37 -37 91 -37 l196 0 l0 81 l-196 0 q-20 0 -34 14.5 q-14 14.5 -14 34.5 l0 391 q0 20 14 34 q14 14 34 14 l196 0 l0 82 l-196 0 q-53 0 -91 -38 q-39 -41 -39 -92 ZM215 385 l0 -156 q0 -13 10 -23 q10 -10 24 -10 l181 0 l0 -123 q0 -17 16 -25 q4 -1 10 -1 q11 0 18 7 l235 235 q8 7 8 18 q0 11 -8 19 l-235 234 q-10 12 -27 6 q-17 -6 -17 -24 l0 -124 l-181 0 q-14 0 -24 -10 q-10 -10 -10 -23 Z" /><glyph glyph-name="magic" unicode="&#xe089;" d="M304 511 l-29 -93 l-28 93 l-93 29 l93 28 l28 94 l29 -94 l93 -28 l-93 -29 ZM466 562 l-14 -47 l-16 47 l-46 15 l46 14 l16 46 l14 -46 l46 -14 l-46 -15 ZM9 51 l573 556 q6 8 17 8 q14 2 25 -9 q1 -1 3 -2.5 q2 -1.5 5 -4 q3 -2.5 5 -4.5 q20 -19 32 -34 q6 -9 6 -16 q2 -15 -8 -25 l-573 -558 q-6 -6 -18 -8 q-14 -2 -25 9 q-1 1 -5.5 5 q-4.5 4 -7.5 7 q-20 17 -31 34 q-5 8 -7 17 q-1 15 9 25 ZM469 455 l42 -43 l133 129 l-42 44 l-133 -130 ZM190 398 l-13 -46 l-14 46 l-46 15 l46 14 l14 47 l13 -47 l48 -14 l-48 -15 ZM656 433 l15 -47 l46 -14 l-46 -15 l-15 -46 l-15 46 l-46 15 l46 14 l15 47 Z" /><glyph glyph-name="mail" unicode="&#xe08a;" d="M768 551 l-384 -329 l-384 329 l0 19 l768 0 l0 -19 ZM768 87 l-254 183 l254 220 l0 -403 ZM0 490 l254 -220 l-254 -183 l0 403 ZM384 157 l105 92 l279 -201 l0 -4 l-768 0 l0 4 l279 201 l105 -92 Z" /><glyph glyph-name="map" unicode="&#xe08b;" d="M0 17 l220 83 l0 497 l-220 -83 l0 -497 ZM469 17 l-221 83 l0 497 l221 -83 l0 -497 ZM497 17 l220 83 l0 497 l-220 -83 l0 -497 Z" /><glyph glyph-name="meal" unicode="&#xe08c;" d="M201 406 l0 234 l67 0 l0 -268 q0 -28 -19.5 -48 q-19.5 -20 -47.5 -20 l0 -296 q0 -14 -10 -24 q-10 -10 -24 -10 l-67 0 q-13 0 -23 10 q-10 10 -10 24 l0 296 q-28 0 -47.5 20 q-19.5 20 -19.5 48 l0 268 l67 0 l0 -234 l33 0 l0 234 l67 0 l0 -234 l34 0 ZM369 304 l0 236 q0 41 29.5 70.5 q29.5 29.5 70.5 29.5 q41 0 70.5 -29.5 q29.5 -29.5 29.5 -70.5 l0 -532 q0 -14 -9.5 -24 q-9.5 -10 -22.5 -10 l-68 0 q-13 0 -23.5 10 q-10.5 10 -10.5 24 l0 296 l-66 0 Z" /><glyph glyph-name="memo" unicode="&#xe08d;" d="M158 666 l401 0 q47 0 81.5 -34.5 q34.5 -34.5 34.5 -81.5 l0 -485 q0 -47 -34.5 -81.5 q-34.5 -34.5 -81.5 -34.5 l-401 0 q-47 0 -81.5 34.5 q-34.5 34.5 -34.5 81.5 l0 11 l-20 0 q-9 0 -15.5 6 q-6.5 6 -6.5 14 q0 8 6.5 15 q6.5 7 15.5 7 l20 0 l0 168 l-20 0 q-9 0 -15.5 6.5 q-6.5 6.5 -6.5 14.5 q0 8 6.5 15 q6.5 7 15.5 7 l20 0 l0 168 l-20 0 q-9 0 -15.5 6.5 q-6.5 6.5 -6.5 14.5 q0 8 6.5 14.5 q6.5 6.5 15.5 6.5 l20 0 l0 11 q0 47 34.5 81.5 q34.5 34.5 81.5 34.5 ZM611 65 l0 485 q0 22 -15 37 q-15 15 -37 15 l-401 0 q-22 0 -37.5 -15 q-15.5 -15 -15.5 -37 l0 -11 l42 0 q8 0 15 -6.5 q7 -6.5 7 -14.5 q0 -8 -7 -14.5 q-7 -6.5 -15 -6.5 l-42 0 l0 -168 l42 0 q8 0 15 -7 q7 -7 7 -15 q0 -8 -7 -14.5 q-7 -6.5 -15 -6.5 l-42 0 l0 -168 l42 0 q8 0 15 -7 q7 -7 7 -15 q0 -8 -7 -14 q-7 -6 -15 -6 l-42 0 l0 -11 q0 -22 15.5 -37.5 q15.5 -15.5 37.5 -15.5 l401 0 q22 0 37 15.5 q15 15.5 15 37.5 ZM253 539 l253 0 q9 0 15 -6.5 q6 -6.5 6 -14.5 q0 -8 -6 -14.5 q-6 -6.5 -15 -6.5 l-253 0 q-8 0 -15 6.5 q-7 6.5 -7 14.5 q0 8 7 14.5 q7 6.5 15 6.5 ZM253 455 l253 0 q9 0 15 -6.5 q6 -6.5 6 -14.5 q0 -9 -6 -15 q-6 -6 -15 -6 l-253 0 q-9 0 -15.5 6 q-6.5 6 -6.5 15 q0 8 7 14.5 q7 6.5 15 6.5 ZM253 371 l253 0 q9 0 15 -6.5 q6 -6.5 6 -15.5 q0 -8 -6 -14 q-6 -6 -15 -6 l-253 0 q-8 0 -15 6 q-7 6 -7 14 q0 9 7 15.5 q7 6.5 15 6.5 ZM253 286 l253 0 q9 0 15 -6.5 q6 -6.5 6 -14.5 q0 -9 -6 -15 q-6 -6 -15 -6 l-253 0 q-9 0 -15.5 6 q-6.5 6 -6.5 15 q0 8 7 14.5 q7 6.5 15 6.5 ZM253 202 l253 0 q9 0 15 -6.5 q6 -6.5 6 -15.5 q0 -8 -6 -14 q-6 -6 -15 -6 l-253 0 q-8 0 -15 6 q-7 6 -7 14 q0 9 7 15.5 q7 6.5 15 6.5 ZM253 118 l253 0 q9 0 15 -6.5 q6 -6.5 6 -15.5 q0 -8 -6 -14 q-6 -6 -15 -6 l-253 0 q-8 0 -15 6 q-7 6 -7 14 q0 8 7 15 q7 7 15 7 Z" /><glyph glyph-name="menu" unicode="&#xe08e;" d="M44 526 l578 0 q19 0 31.5 12.5 q12.5 12.5 12.5 31.5 q0 18 -12.5 30.5 q-12.5 12.5 -31.5 12.5 l-578 0 q-19 0 -31.5 -12.5 q-12.5 -12.5 -12.5 -30.5 q0 -19 12.5 -31.5 q12.5 -12.5 31.5 -12.5 ZM44 351 l578 0 q19 0 31.5 12.5 q12.5 12.5 12.5 31.5 q0 18 -12.5 30.5 q-12.5 12.5 -31.5 12.5 l-578 0 q-19 0 -31.5 -12.5 q-12.5 -12.5 -12.5 -30.5 q0 -19 12.5 -31.5 q12.5 -12.5 31.5 -12.5 ZM44 176 l578 0 q19 0 31.5 12.5 q12.5 12.5 12.5 30.5 q0 19 -12.5 31.5 q-12.5 12.5 -31.5 12.5 l-578 0 q-19 0 -31.5 -12.5 q-12.5 -12.5 -12.5 -31.5 q0 -18 12.5 -30.5 q12.5 -12.5 31.5 -12.5 ZM44 1 l578 0 q19 0 31.5 12.5 q12.5 12.5 12.5 30.5 q0 19 -12.5 31.5 q-12.5 12.5 -31.5 12.5 l-578 0 q-19 0 -31.5 -12.5 q-12.5 -12.5 -12.5 -31.5 q0 -18 12.5 -30.5 q12.5 -12.5 31.5 -12.5 Z" /><glyph glyph-name="minus" unicode="&#xe08f;" d="M0 386 l758 0 l0 -158 l-758 0 l0 158 Z" /><glyph glyph-name="mixi" unicode="&#xe090;" d="M352 637 q100 6 185 -31.5 q85 -37.5 134.5 -114 q49.5 -76.5 43.5 -173.5 q-4 -69 -34 -127 q-30 -58 -80 -100.5 q-50 -42.5 -102.5 -72 q-52.5 -29.5 -118.5 -54.5 l0 71 q-167 -12 -280 68 q-113 80 -99 233 q11 121 115 206.5 q104 85.5 236 94.5 ZM514 188 l51 0 l0 158 q0 67 -20 91 q-15 17 -30 24 q-15 7 -45 7 q-53 0 -96 -53 q-15 28 -33.5 40.5 q-18.5 12.5 -49.5 12.5 q-23 0 -49.5 -13.5 q-26.5 -13.5 -41.5 -37.5 l0 46 l-52 0 l0 -275 l52 0 l0 142 q0 52 36 79 q18 13 39 13 q32 0 44 -19 q13 -20 13 -67 l0 -148 l51 0 l0 154 q0 31 22.5 55.5 q22.5 24.5 48.5 24.5 q33 0 52 -23 q8 -9 8 -53 l0 -158 Z" /><glyph glyph-name="move" unicode="&#xe093;" d="M224 71 l116 -116 q8 -8 18 -7 q13 0 20 7 l115 116 q12 12 8.5 20 q-3.5 8 -20.5 8 l-78 0 l0 164 l162 0 l0 -80 q0 -17 9 -20 q9 -3 21 9 l115 115 q7 7 7 19 q1 10 -7 20 l-115 114 q-12 12 -21 9 q-9 -3 -8 -20 l0 -78 l-163 0 l0 162 l78 0 q17 0 20.5 8.5 q3.5 8.5 -8.5 20.5 l-115 114 q-8 8 -19 8 q-11 0 -19 -8 l-116 -114 q-12 -12 -8.5 -20.5 q3.5 -8.5 20.5 -8.5 l78 0 l0 -161 l-161 0 l0 77 q0 17 -9 20 q-9 3 -21 -9 l-115 -114 q-6 -6 -8 -20 q0 -11 8 -19 l115 -115 q12 -12 20.5 -9 q8.5 3 8.5 20 l0 79 l162 0 l0 -163 l-78 0 q-17 0 -20.5 -8 q-3.5 -8 8.5 -20 Z" /><glyph glyph-name="music" unicode="&#xe094;" d="M182 510 l0 -349 q-26 7 -45 7 q-49 0 -92 -29 q-45 -30 -45 -81 q0 -51 45 -81 q42 -28 92 -28 q49 0 91 28 q44 29 44 81 l0 366 l305 87 l0 -241 q-21 6 -46 6 q-52 0 -92 -27 q-44 -29 -44 -81 q0 -53 44 -81 q43 -29 92 -29 q49 0 92 29 q45 27 45 81 l0 461 q0 17 -10 27 q-10 10 -27 10 q-1 0 -5 -1 q-4 -1 -12 -3.5 q-8 -2.5 -16 -4.5 q-74 -20 -168 -48 q-18 -5 -50 -14 q-32 -9 -47 -13 q-8 -2 -37 -11.5 q-29 -9.5 -42 -12.5 q-10 -3 -20.5 -6 q-10.5 -3 -16 -4.5 q-5.5 -1.5 -8.5 -2.5 q-27 -8 -27 -35 Z" /><glyph glyph-name="newwindow" unicode="&#xe095;" d="M430 558 l-322 0 q-14 0 -25 -11 q-11 -11 -11 -25 l0 -286 q0 -14 11 -25 q11 -11 25 -11 l35 0 l0 -72 l-35 0 q-44 0 -76 32 q-32 32 -32 76 l0 286 q0 44 32 76 q32 32 76 32 l322 0 q44 0 76 -32 q32 -32 32 -76 l-72 0 q0 14 -11 25 q-11 11 -25 11 ZM287 486 l322 0 q44 0 76 -31.5 q32 -31.5 32 -75.5 l0 -287 q0 -44 -32 -75.5 q-32 -31.5 -76 -31.5 l-322 0 q-44 0 -76 31.5 q-32 31.5 -32 75.5 l0 287 q0 44 32 75.5 q32 31.5 76 31.5 ZM287 56 l322 0 q14 0 25 11 q11 11 11 25 l0 287 q0 14 -11 25 q-11 11 -25 11 l-322 0 q-14 0 -25 -11 q-11 -11 -11 -25 l0 -287 q0 -14 11 -25 q11 -11 25 -11 Z" /><glyph glyph-name="next" unicode="&#xe096;" d="M0 26 l0 563 l489 -282 l-489 -281 Z" /><glyph glyph-name="notify" unicode="&#xe097;" d="M0 640 l679 0 l0 -500 l-244 0 l-96 -166 l-95 166 l-244 0 l0 500 Z" /><glyph glyph-name="off" unicode="&#xe098;" d="M459 583 q90 -38 145.5 -120.5 q55.5 -82.5 55.5 -183.5 q0 -136 -97 -233 q-97 -97 -233 -97 q-136 0 -233 97 q-97 97 -97 233 q0 101 55.5 183.5 q55.5 82.5 146.5 120.5 l0 -111 q-48 -32 -76 -83 q-28 -51 -28 -110 q0 -96 68 -164 q68 -68 164 -68 q96 0 164 68 q68 68 68 164 q0 60 -27.5 110.5 q-27.5 50.5 -75.5 82.5 l0 111 ZM385 281 l0 385 l-110 0 l0 -385 l110 0 Z" /><glyph glyph-name="opera" unicode="&#xe099;" d="M330 666 q148 0 242.5 -99.5 q94.5 -99.5 94.5 -257.5 q0 -150 -95.5 -255 q-95.5 -105 -241.5 -105 q-145 0 -237.5 104.5 q-92.5 104.5 -92.5 255.5 q0 157 91.5 257 q91.5 100 238.5 100 ZM331 30 q50 0 79 38.5 q29 38.5 38 94.5 q9 56 9 141 q0 146 -27.5 214.5 q-27.5 68.5 -98.5 68.5 q-28 0 -48.5 -10 q-20.5 -10 -33.5 -31 q-13 -21 -21.5 -45 q-8.5 -24 -12 -61.5 q-3.5 -37.5 -5 -70 q-1.5 -32.5 -1.5 -79.5 q0 -260 122 -260 Z" /><glyph glyph-name="ordble" unicode="&#xe09a;" d="M356 666 q144 0 249 -105 q105 -107 105 -256 q0 -149 -104 -253 q-103 -103 -249 -103 q-154 0 -256 106 q-101 105 -101 252 q0 101 47 180 q49 83 130 130 q13 7 17 9 q6 -4 16 -11.5 q10 -7.5 25.5 -32 q15.5 -24.5 15.5 -50.5 q-27 10 -50 4 q-23 -6 -39 -19 l-16 -13 q58 16 93 -9 q-64 -38 -93.5 -108.5 q-29.5 -70.5 -9.5 -144.5 q24 -91 105 -138 q81 -47 172 -22 q91 25 137.5 105.5 q46.5 80.5 21.5 170.5 q-22 84 -93.5 131 q-71.5 47 -156.5 35 q4 17 16.5 37.5 q12.5 20.5 23.5 32.5 l10 11 q-1 -1 -5 0 q-4 1 -13 -2 q-9 -3 -18 -7.5 q-9 -4.5 -21 -17 q-12 -12.5 -22 -30.5 q-5 31 -31 50.5 q-26 19.5 -43.5 23.5 q-17.5 4 -24.5 4 q74 40 162 40 ZM222 428 q17 17 37.5 21 q20.5 4 31.5 -7 q11 -11 6.5 -31 q-4.5 -20 -22.5 -37 q-17 -18 -37 -22 q-20 -4 -31 7 q-11 10 -7 30.5 q4 20.5 22 38.5 Z" /><glyph glyph-name="paint" unicode="&#xe09b;" d="M326 317 l82 0 l0 309 l-82 0 l0 -309 ZM457 404 l85 -85 q10 -11 10 -25 q0 -14 -10 -25 l-267 -266 q-10 -11 -24.5 -11 q-14.5 0 -24.5 11 l-216 216 q-10 10 -10 24.5 q0 14.5 10 24.5 l266 267 l0 -259 l181 0 l0 128 ZM531 380 q3 -1 7.5 -3.5 q4.5 -2.5 16 -14.5 q11.5 -12 20.5 -28 q9 -16 16 -46 q7 -30 7 -67 q0 -36 -2 -60 q-2 -24 -4 -29 l-3 -6 q1 2 13.5 -0.5 q12.5 -2.5 32 3.5 q19.5 6 37.5 15 q18 9 31.5 33.5 q13.5 24.5 13.5 59.5 q0 35 -19 63 q-19 28 -46.5 42 q-27.5 14 -55 23.5 q-27.5 9.5 -46.5 12.5 l-19 2 Z" /><glyph glyph-name="paramater" unicode="&#xe09c;" d="M414 580 l0 -37 l303 0 l0 -60 l-303 0 l0 -37 q0 -8 -6.5 -14 q-6.5 -6 -14.5 -6 l-69 0 q-8 0 -14.5 6 q-6.5 6 -6.5 14 l0 37 l-303 0 l0 60 l303 0 l0 37 q0 8 6.5 14 q6.5 6 14.5 6 l69 0 q8 0 14.5 -6 q6.5 -6 6.5 -14 ZM125 394 l71 0 q8 0 13.5 -6 q5.5 -6 5.5 -14 l0 -37 l502 0 l0 -59 l-502 0 l0 -37 q0 -8 -5.5 -14.5 q-5.5 -6.5 -13.5 -6.5 l-71 0 q-8 0 -14.5 6.5 q-6.5 6.5 -6.5 14.5 l0 37 l-104 0 l0 59 l104 0 l0 37 q0 8 6.5 14 q6.5 6 14.5 6 ZM514 188 l71 0 q8 0 14 -6 q6 -6 6 -14 l0 -37 l112 0 l0 -59 l-112 0 l0 -37 q0 -8 -6 -14.5 q-6 -6.5 -14 -6.5 l-71 0 q-8 0 -14 6.5 q-6 6.5 -6 14.5 l0 37 l-494 0 l0 59 l494 0 l0 37 q0 8 6 14 q6 6 14 6 Z" /><glyph glyph-name="pause" unicode="&#xe09d;" d="M0 609 l0 -604 q0 -13 9 -22 q9 -9 22 -9 l212 0 q12 0 20.5 9 q8.5 9 8.5 22 l0 604 q0 13 -8.5 22 q-8.5 9 -20.5 9 l-212 0 q-13 0 -22 -9 q-9 -9 -9 -22 ZM393 609 l0 -604 q0 -13 9 -22 q9 -9 21 -9 l212 0 q13 0 22 9 q9 9 9 22 l0 604 q0 13 -9 22 q-9 9 -22 9 l-212 0 q-12 0 -21 -9 q-9 -9 -9 -22 Z" /><glyph glyph-name="pc" unicode="&#xe09e;" d="M59 650 l598 0 q25 0 42.5 -17 q17.5 -17 17.5 -42 l0 -382 q0 -25 -17.5 -43 q-17.5 -18 -42.5 -18 l-233 0 l0 -99 l170 0 q11 0 17.5 -20.5 q6.5 -20.5 9 -42 q2.5 -21.5 3.5 -22.5 l-531 0 q0 3 0 9 q0 6 2 20.5 q2 14.5 4.5 26 q2.5 11.5 9 20.5 q6.5 9 14.5 9 l170 0 l0 99 l-234 0 q-25 0 -42 18 q-17 18 -17 43 l0 382 q0 25 17 42 q17 17 42 17 ZM59 209 l598 0 l0 382 l-598 0 l0 -382 Z" /><glyph glyph-name="pencil" unicode="&#xe09f;" d="M587 666 l-109 -98 q36 -22 69 -53 q14 -14 28 -30.5 q14 -16.5 21 -26.5 l6 -9 l93 111 q-1 20 -45 63 q-20 19 -36 30 q-16 11 -22 12 l-5 1 ZM232 117 l-5 -48 l346 360 q-23 32 -51 59 q-13 12 -28.5 24.5 q-15.5 12.5 -24.5 19.5 l-9 6 l-346 -360 l54 3 l6 -58 l58 -6 ZM0 -36 l86 176 l48 4 l4 -55 l58 -8 l-6 -44 l-174 -88 l-16 15 Z" /><glyph glyph-name="phone" unicode="&#xe100;" d="M0 487 q0 -35 25 -98 q15 -38 46 -93 q61 -106 143 -185 q91 -88 196 -126 q91 -36 134 -36 q37 0 89 22 q53 23 67 57 q9 20 12 35 q5 22 5 35 q0 10 -1 11 q-3 7 -18 16 q-5 2 -48 28 q-10 6 -27 16 q-17 10 -30.5 17.5 q-13.5 7.5 -24.5 13.5 q-17 10 -23 10 q-20 0 -53 -46 q-34 -46 -52 -46 q-9 0 -22 8 q-5 3 -12 7 q-7 4 -9 5 q-125 71 -197 196 q-20 33 -20 42 q0 12 36 44 q35 31 35 55 q0 6 -6 25 q-4 12 -15 41 q-11 29 -16 44 q-10 27 -10 29 q-2 3 -4 12 q-1 3 -2.5 7 q-1.5 4 -1.5 6 q-4 13 -13 20 q-11 5 -29 6 q-7 0 -18.5 0.5 q-11.5 0.5 -13.5 0.5 q-7 0 -11 -1 l-13 0 q-43 -19 -72 -75 q-26 -54 -26 -103 Z" /><glyph glyph-name="photo" unicode="&#xe101;" d="M522 -32 l0 572 l-522 0 l0 -572 l522 0 ZM47 103 l0 390 l428 0 l0 -390 l-428 0 ZM666 646 l0 -571 l-118 0 l0 134 l70 0 l0 390 l-428 0 l0 -38 l-47 0 l0 85 l523 0 Z" /><glyph glyph-name="picasa" unicode="&#xe102;" d="M503 395 l-272 247 q64 24 127 24 q73 0 145 -31 l0 -240 ZM329 503 l-317 -290 q-12 45 -12 94 q0 102 53 187.5 q53 85.5 140 130.5 l136 -122 ZM542 189 l0 426 q80 -47 127.5 -129.5 q47.5 -82.5 47.5 -178.5 q0 -56 -20 -118 l-155 0 ZM171 306 l0 -304 q-100 61 -145 172 l145 132 ZM209 151 l472 0 q-44 -91 -131 -146.5 q-87 -55.5 -192 -55.5 q-75 0 -149 33 l0 169 Z" /><glyph glyph-name="pin" unicode="&#xe103;" d="M217 691 q87 0 148 -61.5 q61 -61.5 61 -147.5 q0 -51 -53 -191 q-53 -140 -107 -254 l-53 -114 q-24 50 -59.5 127 q-35.5 77 -94.5 229 q-59 152 -59 203 q0 86 61 147.5 q61 61.5 148 61.5 l4 0 l4 0 ZM213 404 q39 0 67 28.5 q28 28.5 28 68.5 q0 39 -28 67 q-28 28 -67 28 q-40 0 -68 -28 q-28 -28 -28 -67 q0 -40 28 -68.5 q28 -28.5 68 -28.5 Z" /><glyph glyph-name="pinterest" unicode="&#xe104;" d="M298 59 l-5 -18 q-8 -32 -37 -78 q53 -14 102 -14 q148 0 254 104 q105 105 105 254 q0 149 -105 254 q-107 105 -254 105 q-148 0 -253 -105 q-105 -103 -105 -254 q0 -112 60 -198 q60 -88 154 -129 q-2 41 7 80 q1 8 8 36 q2 8 7 29 q5 21 7 31 q15 61 23 100 q-5 9 -6 19 q-6 21 -5 38 q0 39 20 66 q20 27 50 27 q24 0 36 -15.5 q12 -15.5 12 -38.5 q0 -19 -12 -58 q-15 -45 -20 -69 q-7 -27 11 -49 q18 -20 46 -20 q50 0 82 56 q32 56 32 135 q0 59 -39 97 q-41 39 -111 39 q-80 0 -129 -51 q-48 -50 -48 -121 q0 -41 25 -69 q7 -11 5 -20 q-3 -10 -4 -14 q0 -1 -1 -4 q-1 -3 -1 -5 q0 -2 -1 -4.5 q-1 -2.5 -1.5 -4 q-0.5 -1.5 -2 -3.5 q-1.5 -2 -2.5 -2.5 q-1 -0.5 -3 -1 q-2 -0.5 -4.5 -0.5 q-2.5 0 -5.5 1 q-36 14 -54.5 51.5 q-18.5 37.5 -18.5 86.5 q0 85 64 149 q72 74 192 74 q101 0 166 -63 q61 -58 61 -142 q0 -107 -53 -176 q-54 -70 -140 -70 q-29 0 -53.5 13 q-24.5 13 -34.5 32 q-6 -22 -13 -50 q-7 -29 -7 -30 Z" /><glyph glyph-name="plane" unicode="&#xe105;" d="M392 540 l-15 -15 l128 -11 l77 77 q23 23 66 50 q49 30 61 18 q33 -33 -66 -130 l-76 -76 l11 -128 l15 14 q18 20 35 3 q18 -18 -17 -53 l-24 -25 l12 -86 l17 18 q16 18 34 2 q18 -18 -6 -43 l-36 -36 q21 -145 5 -161 q-9 -7 -22 -10 q-15 -2 -22 4 q-7 9 -16 54 q-12 57 -54 162 q-42 111 -60 131 q-6 6 -17 0 q-13 -6 -72 -63 q-60 -59 -112 -97 q-1 -6 7 -59 q8 -50 6 -63 q-3 -12 -23 -32 q-11 -11 -17 -12 q-19 19 -60 124 q-111 49 -124 62 q0 6 11 17 q21 21 33 22 q10 2 62 -7 q46 -7 60 -7 q40 60 139 159 q30 32 19 43 q-14 16 -130 60 q-125 47 -162 54 q-49 11 -54 17 q-7 6 -4 22 q1 13 10 22 q16 16 161 -5 l35 36 q25 23 43 5 q17 -15 -1 -33 l-18 -17 l86 -12 l24 23 q35 35 53 17 q16 -16 -2 -35 Z" /><glyph glyph-name="play" unicode="&#xe106;" d="M0 605 l0 -605 q0 -17 15 -26 q5 -4 16 -4 q7 0 14 4 l524 302 q16 11 16 27 q0 15 -16 26 l-524 302 q-13 10 -29 0.5 q-16 -9.5 -16 -26.5 Z" /><glyph glyph-name="playmedia" unicode="&#xe107;" d="M105 561 q-105 -103 -105 -254 q0 -151 105 -254 q104 -104 253 -104 q148 0 254 104 q105 105 105 254 q0 149 -105 254 q-107 105 -254 105 q-148 0 -253 -105 ZM181 130 q-73 73 -73 177 q0 104 73 177 q74 74 177 74 q104 0 178 -74 q73 -71 73 -177 q0 -106 -73 -177 q-74 -74 -178 -74 q-103 0 -177 74 ZM261 447 l0 -281 q0 -8 7 -12 q4 -2 7 -2 q4 0 8 2 l244 141 q8 4 8 12 q0 8 -8 12 l-244 142 q-5 3 -15 0 q-7 -4 -7 -14 Z" /><glyph glyph-name="plusicon" unicode="&#xe108;" d="M438 386 l279 0 l0 -159 l-279 0 l0 -277 l-159 0 l0 277 l-279 0 l0 159 l279 0 l0 279 l159 0 l0 -279 Z" /><glyph glyph-name="present" unicode="&#xe109;" d="M454 472 l121 0 q22 0 37.5 -15.5 q15.5 -15.5 15.5 -37.5 l0 -182 l-288 0 l0 212 q-17 5 -25 13 q-1 0 -1 0.5 q0 0.5 -1 0.5 q0 -1 -1 -1 q-10 -8 -24 -13 l0 -212 l-288 0 l0 182 q0 22 15 37.5 q15 15.5 37 15.5 l122 0 q-16 8 -38 26 q-36 35 -41.5 77 q-5.5 42 22.5 69 q25 22 60 22 q53 0 96 -40 q26 -24 40 -56 q17 33 41 56 q41 40 96 40 q36 0 60 -22 q28 -27 22.5 -69 q-5.5 -42 -42.5 -77 q-18 -16 -36 -26 ZM276 501 q4 9 -6.5 37 q-10.5 28 -32.5 49 q-27 25 -60 25 q-15 0 -23 -7 q-8 -8 -8 -17 q0 -26 27 -50 q41 -39 90 -39 l13 2 ZM352 501 q5 -2 13 -2 q49 0 90 39 q25 22 25 50 q0 5 -6 17 q-8 7 -24 7 q-33 0 -60 -25 q-22 -21 -32.5 -49 q-10.5 -28 -5.5 -38 l0 1 ZM288 -51 l-236 0 q-22 0 -37 15 q-15 15 -15 37 l0 183 l288 0 l0 -235 ZM575 -51 l-235 0 l0 235 l288 0 l0 -183 q0 -22 -15.5 -37 q-15.5 -15 -37.5 -15 Z" /><glyph glyph-name="print" unicode="&#xe10a;" d="M181 597 l-11 -86 l377 0 l-11 86 q0 19 -13.5 32.5 q-13.5 13.5 -33.5 13.5 l-262 0 q-19 0 -32.5 -13.5 q-13.5 -13.5 -13.5 -32.5 ZM46 464 l625 0 q19 0 32.5 -13 q13.5 -13 13.5 -33 l0 -274 q0 -20 -13.5 -33 q-13.5 -13 -32.5 -13 l-85 0 l0 -127 l-455 0 l0 127 l-85 0 q-20 0 -33 13 q-13 13 -13 33 l0 274 q0 20 13 33 q13 13 33 13 ZM540 17 l0 297 l-363 0 l0 -297 l363 0 ZM486 228 l-260 0 q-11 0 -11 12 l0 14 q0 11 11 11 l260 0 q12 0 12 -11 l0 -14 q0 -4 -4 -8 q-4 -4 -8 -4 ZM486 145 l-260 0 q-11 0 -11 12 l0 14 q0 11 11 11 l260 0 q12 0 12 -11 l0 -14 q0 -5 -4 -8.5 q-4 -3.5 -8 -3.5 ZM486 62 l-260 0 q-11 0 -11 12 l0 14 q0 11 11 11 l260 0 q12 0 12 -11 l0 -14 q0 -4 -4 -8 q-4 -4 -8 -4 Z" /><glyph glyph-name="quote" unicode="&#xe10b;" d="M306 548 l-26 40 q-133 -89 -206.5 -193 q-73.5 -104 -73.5 -196 q0 -82 49 -127 q49 -45 110 -45 q67 0 112 48 q45 48 45 112 q0 51 -29 92 q-29 41 -74 58 q-12 4 -17 6.5 q-5 2.5 -10.5 11 q-5.5 8.5 -5.5 22.5 q0 70 126 171 ZM703 548 l-26 40 q-132 -90 -206 -193.5 q-74 -103.5 -74 -195.5 q0 -81 49.5 -126.5 q49.5 -45.5 111.5 -45.5 q68 0 113.5 48 q45.5 48 45.5 112 q0 51 -29.5 92 q-29.5 41 -76.5 58 q-11 4 -16.5 6.5 q-5.5 2.5 -10.5 11 q-5 8.5 -5 22.5 q0 69 124 171 Z" /><glyph glyph-name="readability" unicode="&#xe10c;" d="M210 301 l0 1 q-3 27 -15 47 q-11 18 -28 31 q11 92 80.5 154 q69.5 62 162.5 62 q93 0 162 -62 q69 -62 80 -154 q-17 -13 -27 -31 q-13 -23 -16 -47 l0 -1 l-8 -77 q-87 55 -191 55 q-105 0 -192 -55 l-8 77 ZM150 58 l-59 138 q-37 1 -64 28 q-27 27 -27 65 q0 39 27.5 66.5 q27.5 27.5 66.5 27.5 q54 0 80 -46 q10 -15 13 -38 l0 -1 l29 -269 q0 -11 -9 -11 l-48 0 q-9 0 -9 11 l0 29 ZM632 298 l0 1 q3 23 13 38 q26 46 80 46 q39 0 66.5 -27.5 q27.5 -27.5 27.5 -66.5 q0 -38 -27 -65 q-27 -27 -64 -28 l-58 -138 l0 -29 q0 -4 -3 -7.5 q-3 -3.5 -7 -3.5 l-48 0 q-9 0 -9 11 l29 269 ZM232 88 l-11 111 q84 56 189 56 q104 0 188 -56 l-11 -111 l-355 0 Z" /><glyph glyph-name="record" unicode="&#xe10d;" d="M85 459 l0 95 q0 46 36.5 79 q36.5 33 88.5 33 q52 0 88.5 -33 q36.5 -33 36.5 -79 l0 -95 l-250 0 ZM422 453 l0 -191 q-18 -50 -58.5 -82 q-40.5 -32 -71.5 -40 l-32 -7 l0 -127 l133 0 l0 -57 l-366 0 l0 57 l134 0 l0 127 q-5 1 -13.5 2.5 q-8.5 1.5 -31 10.5 q-22.5 9 -42.5 22 q-20 13 -41.5 38 q-21.5 25 -32.5 56 l0 191 l49 23 l0 -174 q1 -5 2.5 -13 q1.5 -8 12 -28 q10.5 -20 26.5 -35.5 q16 -15.5 47.5 -28 q31.5 -12.5 72.5 -12.5 q41 0 73 12 q32 12 48 29 q16 17 26.5 34.5 q10.5 17.5 12.5 29.5 l3 12 l0 174 l49 -23 ZM335 426 l0 -86 q0 -46 -36.5 -79 q-36.5 -33 -88.5 -33 q-52 0 -88.5 33 q-36.5 33 -36.5 79 l0 86 l250 0 Z" /><glyph glyph-name="refresh" unicode="&#xe10e;" d="M536 282 l94 0 q0 -134 -92 -226 q-92 -92 -223 -92 q-131 0 -223 92 q-92 92 -92 223 q0 131 92 223 q83 83 203 91 l0 88 l241 -139 l-241 -140 l0 97 q-78 -6 -136 -64 q-65 -65 -65 -156 q0 -91 65 -156 q65 -65 156 -65 q91 0 156 65 q67 65 65 159 Z" /><glyph glyph-name="remove" unicode="&#xe10f;" d="M105 561 q105 105 253 105 q148 0 253.5 -105 q105.5 -105 105.5 -254 q0 -148 -105 -253 q-105 -105 -254 -105 q-148 0 -253 104.5 q-105 104.5 -105 253.5 q0 149 105 254 ZM360 255 l114 -115 q10 -10 25 -10 q15 0 26 10 q10 10 10 25 q0 15 -10 25 l-114 115 l114 115 q10 10 10 25 q0 15 -10 25 q-11 10 -26 10 q-15 0 -25 -10 l-114 -115 l-114 115 q-10 10 -25 10 q-15 0 -26 -10 q-10 -10 -10 -25 q0 -15 10 -25 l114 -115 l-114 -115 q-10 -10 -10 -25 q0 -15 10 -25 q11 -10 26 -10 q15 0 25 10 l114 115 Z" /><glyph glyph-name="repeat" unicode="&#xe110;" d="M453 646 l0 -95 l-408 0 q-12 0 -21 -9 q-9 -9 -9 -22 l0 -264 l107 95 q3 4 15 11 l0 67 l316 0 l0 -95 q0 -21 11.5 -26 q11.5 -5 28.5 10 l161 148 q12 10 12 24 q0 14 -12 24 l-161 148 q-17 15 -28.5 10 q-11.5 -5 -11.5 -26 ZM650 358 l-106 -96 q-3 -2 -8.5 -5.5 q-5.5 -3.5 -7.5 -4.5 l0 -67 l-315 0 l0 96 q0 21 -11.5 25.5 q-11.5 4.5 -28.5 -10.5 l-162 -148 q-11 -9 -11 -24 q0 -15 11 -24 l162 -147 q17 -15 28.5 -10.5 q11.5 4.5 11.5 25.5 l0 95 l407 0 q13 0 21.5 9 q8.5 9 8.5 22 l0 264 Z" /><glyph glyph-name="reply" unicode="&#xe111;" d="M0 370 l274 -254 l0 127 q8 2 22.5 5 q14.5 3 56.5 6.5 q42 3.5 82.5 1 q40.5 -2.5 93 -17 q52.5 -14.5 95.5 -41 q43 -26.5 82.5 -78 q39.5 -51.5 60.5 -121.5 q0 6 0.5 17 q0.5 11 -2 45 q-2.5 34 -8.5 66.5 q-6 32.5 -21.5 77 q-15.5 44.5 -37.5 83 q-22 38.5 -60.5 77.5 q-38.5 39 -87 66 q-48.5 27 -120 44.5 q-71.5 17.5 -156.5 17.5 l0 124 l-274 -246 Z" /><glyph glyph-name="right" unicode="&#xe112;" d="M248 305 l-246 246 l119 115 l354 -355 l-363 -362 l-112 111 l248 245 Z" /><glyph glyph-name="rss" unicode="&#xe113;" d="M0 528 l0 99 q63 13 122 13 q148 0 273 -73 q125 -73 198 -198 q73 -125 73 -273 q0 -54 -14 -122 l-98 0 q16 57 16 122 q0 186 -131 317.5 q-131 131.5 -317 131.5 q-62 0 -122 -17 ZM0 300 l0 106 q58 23 122 23 q137 0 235 -98 q98 -98 98 -235 q0 -61 -24 -122 l-105 0 q33 54 33 122 q0 98 -69.5 168 q-69.5 70 -167.5 70 q-66 0 -122 -34 ZM35.5 182.5 q35.5 35.5 86.5 35.5 q51 0 86.5 -35.5 q35.5 -35.5 35.5 -86.5 q0 -51 -35.5 -86.5 q-35.5 -35.5 -86.5 -35.5 q-51 0 -86.5 35.5 q-35.5 35.5 -35.5 86.5 q0 51 35.5 86.5 Z" /><glyph glyph-name="safari" unicode="&#xe114;" d="M358 635 q148 0 253.5 -105.5 q105.5 -105.5 105.5 -253.5 q0 -148 -105 -253 q-105 -105 -254 -105 q-148 0 -253 105 q-105 105 -105 253 q0 124 75 220.5 q75 96.5 192 127.5 l-1 2 q0 1 0 2 q-14 3 -24 12.5 q-10 9.5 -10 21.5 q0 14 13.5 24 q13.5 10 33.5 10 q20 0 33.5 -10 q13.5 -10 13.5 -24 q0 -17 -17 -27 l0 -2 l0 -1 q24 3 49 3 ZM265 638 q5 17 22 17 q11 0 18 -10 q9 9 9 18 q0 11 -10.5 18.5 q-10.5 7.5 -24.5 7.5 q-14 0 -24.5 -7.5 q-10.5 -7.5 -10.5 -18.5 q0 -18 21 -25 ZM146.5 64.5 q87.5 -87.5 211.5 -87.5 q124 0 211.5 87.5 q87.5 87.5 87.5 211.5 q0 124 -87.5 211.5 q-87.5 87.5 -211.5 87.5 q-124 0 -211.5 -87.5 q-87.5 -87.5 -87.5 -211.5 q0 -124 87.5 -211.5 ZM360 560 q116 0 197.5 -82 q81.5 -82 81.5 -198 q0 -116 -82 -198 q-82 -82 -197 -82 q-115 0 -196.5 82 q-81.5 82 -81.5 198 q0 116 81.5 198 q81.5 82 196.5 82 ZM360 19 q107 0 183.5 77 q76.5 77 76.5 184 q0 108 -76.5 184 q-76.5 76 -183.5 76 q-107 0 -183 -76 q-76 -76 -76 -184 q0 -107 76.5 -184 q76.5 -77 182.5 -77 ZM308 454 l-8 40 q-4 2 -6 4 l-3 0 l0 2 l17 4 l36 -29 l1 0 l-5 25 q-2 4 -3 5 q-1 1 -6 1 l-1 2 l18 4 l0 -2 q-4 -2 -5 -3 l0 -5 l10 -49 l-2 -1 l-46 37 l-1 -1 l7 -32 q0 -3 2 -5 q3 -3 8 -1 l1 -3 l-20 -4 l0 2 q5 2 5 4 q1 1 1 5 ZM535 315 l-91 -41 q-2 -14 -7 -25 l35 -36 l-47 16 q-8 -10 -25 -20 l-4 -92 l-39 84 q-16 0 -30 8 l-131 -113 l99 141 q-5 7 -5 8 l-96 3 l87 41 q1 17 9 30 l-33 37 l46 -18 q10 10 24 17 l5 100 l41 -91 q15 -3 30 -11 l123 105 l-94 -132 q0 -1 1 -2.5 q1 -1.5 2 -2.5 l100 -6 ZM338 298 l60 50 q-8 4 -22 8 q-4 1 -14 1 q-18 0 -35 -9 q-12 -6 -17 -12 q-9 -8 -16 -22 q-5 -11 -6 -22 q0 -1 -0.5 -4.5 q-0.5 -3.5 -0.5 -5.5 q0 -19 10 -37 q1 -1 1 -1 q0 -2 1 -2 l39 56 ZM577 305 l0 1 q7 3 8 7 q3 3 0 13 q0 1 -1 2 l0 2 l-3 0 l-17 -3 q0 -7 4 -9 q1 -1 10 -1 l0 -2 l-25 -5 l0 2 q4 1 8 5 q2 2 0 9 l-17 -3 q-1 0 -3 -2 q0 -3 1 -6 q0 -6 4 -10 q4 -5 12 -6 l0 -2 l-15 0 l-9 42 l2 1 q0 -1 0.5 -2.5 q0.5 -1.5 1.5 -2.5 q1 -1 4 -1 l36 7 q3 1 3 3 q2 2 0 5 l2 0 l9 -42 l-15 -2 ZM383 256 l-51 -43 q11 -5 22 -6 l8 0 q24 0 38 10 q12 7 19 14 q6 7 14 23 q2 7 4 17 q1 4 1 11 q0 19 -10 37 l-45 -62 l0 -1 ZM325 217 l52 45 l-3 3 q6 5 6 14 q0 17 -18 17 q-9 0 -14 -7 l-4 3 l-41 -56 l-3 -7 l-61 -85 l80 69 l6 4 ZM362 292 q5 0 9.5 -4 q4.5 -4 4.5 -9 q0 -5 -4.5 -9 q-4.5 -4 -9.5 -4 q-12 0 -12 13 q0 13 12 13 ZM197 238 l0 -2 l-42 -26 q-2 -1 -4 -3 l0 -3 l-3 0 l-4 21 l2 1 q0 -1 0 -2 l1 -2 l4 0 l1 0 l1 1 l24 15 l-24 4 q-1 0 -3 -2 l-4 -2 l-2 -2 l0 -5 l-1 0 l-5 24 l2 0 q0 -1 0 -3 l1 -1 q1 -1 2 -1 q1 0 1 0.5 q0 0.5 1 0.5 q1 1 2 1 l22 13 l-25 3 l-2 0 l-2 0 q-2 0 -2 -2 l0 -4 l-2 0 l-2 14 l1 0 l2 -2 q2 -2 4 -2 l49 -6 l0 -2 l-32 -19 l0 -1 l39 -6 ZM402 93 l7 -2 q3 -1 7 -3 q6 -4 6 -10 q2 -7 -2 -12 q-4 -7 -13 -9 q-1 0 -3 -1 l-3 0 q-4 0 -5 1 l-2 0 l-1 0 l-1 0 l-1 -1 q-1 -1 -1 -2 l-2 -1 l-4 21 l2 0 q6 -10 9 -12 q6 -4 11 -2 q4 0 7 5 q2 4 1 6 q0 3 -3 5 q-2 1 -8 3 l-6 1 q-7 3 -12 6 q-4 4 -5 8 q0 8 2 12 q5 7 12 8 q3 2 8 0 l6 0 l1 1 q0 0 1 2 l2 1 l4 -18 l-3 -1 q-2 6 -7 10 q-5 5 -11 3 q-5 -2 -6 -4 q-3 -3 -1 -6 q0 -5 3 -5 q6 -3 11 -4 Z" /><glyph glyph-name="save" unicode="&#xe115;" d="M390 676 l0 -149 l78 0 l-156 -188 l-156 188 l82 0 l0 149 l152 0 ZM522 435 l91 -144 q11 -26 11 -49 l0 -277 q0 -11 -7.5 -18.5 q-7.5 -7.5 -18.5 -7.5 l-571 0 q-11 0 -19 7.5 q-8 7.5 -8 18.5 l0 277 q0 25 10 49 l91 144 q4 10 15 17 q11 7 21 7 l41 0 l42 -51 l-84 0 l-81 -148 q-1 0 -1 -2 q0 -3 -1 -4 l517 0 l0 4 l0 1 q-1 1 -1 2 l-81 147 l-84 0 l42 51 l40 0 q11 0 21.5 -7 q10.5 -7 14.5 -17 ZM239 146 l147 0 q10 0 17.5 8 q7.5 8 7.5 18 q0 10 -7.5 17.5 q-7.5 7.5 -17.5 7.5 l-147 0 q-10 0 -18 -7.5 q-8 -7.5 -8 -17.5 q0 -10 7.5 -18 q7.5 -8 18.5 -8 Z" /><glyph glyph-name="search" unicode="&#xe116;" d="M541 173 l176 -176 l-72 -73 l-184 185 q-70 -39 -151 -39 q-128 0 -219 91 q-91 91 -91 219 q0 128 91 219 q91 91 219 91 q128 0 219.5 -91 q91.5 -91 91.5 -219 q0 -119 -80 -207 ZM163.5 526.5 q-60.5 -60.5 -60.5 -146.5 q0 -86 60.5 -146.5 q60.5 -60.5 146.5 -60.5 q86 0 146.5 60.5 q60.5 60.5 60.5 146.5 q0 86 -60.5 146.5 q-60.5 60.5 -146.5 60.5 q-86 0 -146.5 -60.5 Z" /><glyph glyph-name="wrench" unicode="&#xe117;" d="M247 423 l10 85 l-135 137 q48 23 97 23 q91 0 155 -64 q64 -64 64 -155 q0 -25 -7 -56 l249 -248 q34 -35 36.5 -80.5 q2.5 -45.5 -28.5 -76.5 q-31 -31 -77.5 -28.5 q-46.5 2.5 -80.5 36.5 l-243 245 q-38 -12 -68 -12 q-91 0 -155 64.5 q-64 64.5 -64 155.5 q0 48 20 93 l139 -141 l88 22 Z" /><glyph glyph-name="share" unicode="&#xe118;" d="M623 180 l75 74 l0 -265 l-698 0 l0 532 l281 0 l-84 -72 l-121 0 l0 -388 l547 0 l0 119 ZM550 301 l0 -110 l238 222 l-238 213 l0 -109 q-94 0 -168 -23.5 q-74 -23.5 -118 -61 q-44 -37.5 -75 -83 q-31 -45.5 -43 -91.5 q-12 -46 -18.5 -83.5 q-6.5 -37.5 -5.5 -60.5 l1 -24 q25 83 78.5 135.5 q53.5 52.5 111.5 68 q58 15.5 112 18.5 q54 3 89 -4 l36 -7 Z" /><glyph glyph-name="shopping" unicode="&#xe119;" d="M644 174 l0 -46 l-441 0 l-77 453 l-126 0 l0 45 l165 0 l77 -452 l402 0 ZM717 627 l-69 -400 l-361 0 l-70 400 l500 0 ZM334 504 l0 77 l-62 0 l14 -77 l48 0 ZM380 504 l63 0 l0 77 l-63 0 l0 -77 ZM489 581 l0 -77 l64 0 l0 77 l-64 0 ZM599 504 l50 0 l14 77 l-64 0 l0 -77 ZM334 458 l-41 0 l11 -64 l30 0 l0 64 ZM443 394 l0 64 l-63 0 l0 -64 l63 0 ZM489 394 l64 0 l0 64 l-64 0 l0 -64 ZM641 458 l-42 0 l0 -64 l31 0 l11 64 ZM334 348 l-22 0 l13 -75 l9 0 l0 75 ZM380 273 l63 0 l0 75 l-63 0 l0 -75 ZM553 348 l-64 0 l0 -75 l64 0 l0 75 ZM599 348 l0 -75 l10 0 l14 75 l-24 0 ZM254 101 q24 0 40 -16.5 q16 -16.5 16 -39.5 q0 -24 -16 -40.5 q-16 -16.5 -40 -16.5 q-23 0 -39.5 16.5 q-16.5 16.5 -16.5 40.5 q0 23 16.5 39.5 q16.5 16.5 39.5 16.5 ZM557 84.5 q16 16.5 40 16.5 q24 0 40 -16.5 q16 -16.5 16 -39.5 q0 -24 -16 -40.5 q-16 -16.5 -40 -16.5 q-24 0 -40 16.5 q-16 16.5 -16 40.5 q0 23 16 39.5 Z" /><glyph glyph-name="shuffle" unicode="&#xe11a;" d="M0 157 l0 -64 q0 -16 16 -16 l92 0 q75 0 136 63 q35 35 100 138 q46 73 76 107 q40 48 80 48 l85 0 l0 -73 q0 -17 10.5 -20.5 q10.5 -3.5 24.5 8.5 l139 116 q9 8 9 19.5 q0 11.5 -9 19.5 l-139 115 q-14 12 -24.5 9 q-10.5 -3 -10.5 -21 l0 -77 l-85 0 q-75 0 -136 -63 q-43 -44 -101 -137 q-53 -83 -76 -109 q-41 -47 -79 -47 l-92 0 q-16 0 -16 -16 ZM0 514 l0 -64 q0 -16 16 -16 l92 0 q31 0 58.5 -25.5 q27.5 -25.5 61.5 -75.5 q1 3 3 7 l5 5 q8 13 24.5 38 q16.5 25 23.5 37 q-44 57 -77 78 q-45 31 -99 31 l-92 0 q-16 0 -16 -15 ZM585 175 l-85 0 q-53 0 -120 99 q-2 -3 -4 -7 q-1 -1 -5 -7 q-3 -6 -11 -18.5 q-8 -12.5 -12 -18.5 q-6 -8 -23 -35 q39 -53 76 -77 q46 -33 99 -33 l85 0 l0 -70 q0 -17 10.5 -20.5 q10.5 -3.5 24.5 8.5 l139 117 q9 8 9 19.5 q0 11.5 -9 18.5 l-139 115 q-14 12 -24.5 9 q-10.5 -3 -10.5 -21 l0 -79 Z" /><glyph glyph-name="skype" unicode="&#xe11b;" d="M696 230 q21 -44 21 -88 q0 -82 -58 -140 q-58 -58 -141 -58 q-50 0 -93 23 q-30 -6 -63 -6 q-142 0 -242 100.5 q-100 100.5 -100 241.5 q0 34 8 69 q-28 49 -28 100 q0 82 58 140.5 q58 58.5 141 58.5 q54 0 105 -31 q30 5 58 5 q141 0 242 -100.5 q101 -100.5 101 -241.5 q0 -30 -9 -73 ZM538 140 q23 35 23 76 q0 37 -13 60 q-13 23 -39 41 q-29 18 -58 27 q-41 13 -76 20 q-12 3 -27.5 6.5 q-15.5 3.5 -19.5 4.5 q-13 4 -28 11 q-13 6 -20 15 q-7 10 -7 20 q0 19 21 33 q22 15 59 15 q40 0 58 -13 q16 -13 30 -38 q10 -19 21 -28 q9 -9 28 -9 q22 0 36 15 q14 14 14 33 q0 19 -11 39 q-11 21 -32 37 q-23 18 -58 29 q-31 10 -79 10 q-55 0 -100 -16 q-42 -15 -66 -46 q-24 -32 -24 -69 q0 -41 23 -69 q24 -30 58 -43 q36 -15 90 -27 q40 -8 62 -15 q25 -9 36 -20 q14 -12 14 -32 q0 -26 -25 -43 q-27 -19 -70 -19 q-29 0 -49 10 q-20 10 -28 22 q-11 14 -20 35 q-11 22 -20 29 q-13 11 -30 11 q-21 0 -36 -13 q-14 -14 -14 -33 q0 -32 21 -62 q22 -32 57 -50 q49 -25 122 -25 q62 0 107 18 q49 20 70 53 Z" /><glyph glyph-name="sleipnir" unicode="&#xe11c;" d="M406 78 l-230 0 q-8 10 -21 23 q0 49 14.5 93.5 q14.5 44.5 28.5 66.5 q14 22 41.5 56.5 q27.5 34.5 32.5 40.5 q-56 -29 -86 -31 q-9 -13 -28.5 -36.5 q-19.5 -23.5 -26.5 -28.5 q-15 -32 -51 -32 q-32 0 -52 19 q-20 19 -25 38 q-5 19 -2 26 q1 3 48.5 78.5 q47.5 75.5 56.5 93.5 q7 15 9.5 25.5 q2.5 10.5 10.5 24.5 q17 30 58 59 q-12 9 -30.5 33.5 q-18.5 24.5 -21.5 37.5 q-3 18 4 18 q3 0 34 -22 q3 -2 6 -4 q38 -26 67 -39 q100 0 159.5 -56 q59.5 -56 59.5 -139 q0 -38 -16.5 -131.5 q-16.5 -93.5 -16.5 -153.5 l0 -37 l-23 -23 ZM449 118 l0 20 q0 55 17 161 q15 81 15 124 q0 91 -63 152 q-67 63 -171 64 l-1 0 q19 24 34 27 q4 1 15 2 q11 1 15 2 q2 1 8 3 q6 2 13 3.5 q7 1.5 17 1.5 q13 0 27.5 -4 q14.5 -4 14.5 -8 q0 -3 -7 -4.5 q-7 -1.5 -17.5 -5 q-10.5 -3.5 -17.5 -10.5 q-2 -3 2 -2 q1 0 4 1 l10 2 q15 3 33 -2 q23 -6 46 -1 q2 1 4.5 1 q2.5 0 5 -1 q2.5 -1 3 -3 q0.5 -2 -1.5 -5 q-2 -3 -7 -8 q-6 -5 -22 -17 l1 0 q33 6 61 -19 q33 -28 34 -36 q0 -5 -6 -8 q-5 -3 -17 -2.5 q-12 0.5 -17 -0.5 q-4 -1 2 -2 q20 -3 23 -5 q2 -2 5.5 -10.5 q3.5 -8.5 7.5 -12.5 q2 -2 10 -7 q8 -5 12 -11 q14 -22 9 -28 q-3 -2 -9 1 q-23 12 -37 11 q-4 0 4 -4 q21 -12 28 -24 q4 -7 3 -15 q-1 -8 1 -14 q2 -4 8 -12 q6 -8 8 -12 q4 -9 0 -36 q-4 -27 -9 -38 q-9 -21 -16 -13 q-5 6 -19 6 q4 -6 4 -14.5 q0 -8.5 2 -12.5 q2 -4 5.5 -9 q3.5 -5 5.5 -9.5 q2 -4.5 2 -9.5 q0 -9 -4.5 -22 q-4.5 -13 -10.5 -13 q-5 0 -16 7 q-11 7 -14 5 q-3 -2 1.5 -8 q4.5 -6 12.5 -15 q8 -9 9 -14 q2 -7 -0.5 -14 q-2.5 -7 -7 -14 q-4.5 -7 -5.5 -10 q0 -1 -2 -17 q-2 -16 -7 -21 q-10 -10 -38 -10 ZM185 51 l212 0 l74 -82 l-10 -55 l-339 0 l-7 58 l70 79 Z" /><glyph glyph-name="small" unicode="&#xe11d;" d="M333 571 l0 -226 q0 -14 11 -27 q9 -11 27 -11 l225 0 q24 0 29 11.5 q5 11.5 -12 28.5 l-71 73 l118 118 q6 8 6 14 q0 5 -6 13 l-69 69 q-6 6 -14 6 q-8 0 -14 -6 l-119 -119 l-71 72 q-17 17 -28.5 12 q-11.5 -5 -11.5 -28 ZM5 49 l70 -69 q8 -6 14 -6 q5 0 13 6 l119 119 l72 -71 q17 -17 28.5 -12.5 q11.5 4.5 11.5 27.5 l0 226 q0 15 -11 26.5 q-11 11.5 -27 11.5 l-225 0 q-24 0 -29.5 -11.5 q-5.5 -11.5 11.5 -28.5 l72 -72 l-119 -118 q-5 -7 -5 -15 q0 -6 5 -13 Z" /><glyph glyph-name="smile" unicode="&#xe11e;" d="M104.5 554 q104.5 102 253.5 102 q149 0 254 -102 q105 -102 105 -247 q0 -145 -105 -247 q-105 -102 -254 -102 q-149 0 -253.5 102 q-104.5 102 -104.5 247 q0 145 104.5 247 ZM258 485 l-41 0 q-8 0 -13.5 -6 q-5.5 -6 -5.5 -14 l0 -100 q0 -8 5.5 -14.5 q5.5 -6.5 13.5 -6.5 l41 0 q8 0 14 6.5 q6 6.5 6 14.5 l0 100 q0 8 -6 14 q-6 6 -14 6 ZM500 485 l-41 0 q-8 0 -14 -6 q-6 -6 -6 -14 l0 -100 q0 -8 6 -14.5 q6 -6.5 14 -6.5 l41 0 q8 0 13.5 6.5 q5.5 6.5 5.5 14.5 l0 100 q0 8 -5.5 14 q-5.5 6 -13.5 6 ZM228 243 l-39 -13 q-6 -2 -8 -7 q-3 -4 -1 -11 q1 -4 5 -12.5 q4 -8.5 17.5 -25.5 q13.5 -17 31.5 -31 q18 -14 51 -24.5 q33 -10.5 73 -10.5 q40 0 73 10.5 q33 10.5 51.5 24.5 q18.5 14 32 30.5 q13.5 16.5 17.5 25.5 q4 9 5 13 q2 7 -1 11 q-2 5 -9 7 l-34 12 l-5 1 q-9 0 -13 -10 q0 -1 -3 -6.5 q-3 -5.5 -11 -15 q-8 -9.5 -20.5 -18 q-12.5 -8.5 -34 -15 q-21.5 -6.5 -48.5 -6.5 q-26 0 -48 6.5 q-22 6.5 -33.5 14 q-11.5 7.5 -20 18 q-8.5 10.5 -11 15 q-2.5 4.5 -3.5 7.5 q-4 10 -14 10 Z" /><glyph glyph-name="sns" unicode="&#xe11f;" d="M271 274 l173 -97 q41 47 104 47 q57 0 97 -40.5 q40 -40.5 40 -97.5 q0 -57 -40 -97 q-40 -40 -97 -40 q-58 0 -98 40 q-40 40 -40 97 q0 9 2 25 l-178 99 q-40 -40 -97 -40 q-57 0 -97 40 q-40 40 -40 97 q0 57 40 97 q40 40 97 40 q60 0 100 -42 l177 96 q-4 20 -4 30 q0 57 40 97.5 q40 40.5 98 40.5 q57 0 97 -40.5 q40 -40.5 40 -97.5 q0 -57 -40 -97 q-40 -40 -97 -40 q-60 0 -99 42 l-178 -95 q3 -15 3 -31 q0 -18 -3 -33 Z" /><glyph glyph-name="sort" unicode="&#xe120;" d="M9 401 l191 238 q13 17 31 17 q18 0 31 -17 l191 -238 q13 -17 7.5 -28.5 q-5.5 -11.5 -27.5 -11.5 l-404 0 q-22 0 -27.5 11.5 q-5.5 11.5 7.5 28.5 ZM453 213 l-191 -238 q-13 -17 -31 -17 q-18 0 -31 17 l-191 238 q-13 17 -7.5 28.5 q5.5 11.5 27.5 11.5 l404 0 q22 0 27.5 -11.5 q5.5 -11.5 -7.5 -28.5 Z" /><glyph glyph-name="star" unicode="&#xe121;" d="M148 -62 l241 125 l241 -125 l-46 267 l194 189 l-269 39 l-120 244 l-120 -244 l-269 -39 l195 -189 l-47 -267 Z" /><glyph glyph-name="starempty" unicode="&#xe122;" d="M630 -62 l-241 125 l-241 -125 l47 267 l-195 189 l269 39 l120 244 l120 -244 l269 -39 l-194 -189 l46 -267 ZM278 377 l-155 -23 l111 -108 q22 -22 17 -50 l-26 -154 l137 73 q12 6 27 6 q15 0 27 -6 l137 -73 l-26 154 q-5 28 17 50 l111 108 l-154 23 q-30 5 -43 32 l-69 139 l-68 -139 q-13 -27 -43 -32 Z" /><glyph glyph-name="stop" unicode="&#xe123;" d="M0 609 l0 -604 q0 -13 9 -22 q9 -9 22 -9 l604 0 q13 0 22 9 q9 9 9 22 l0 604 q0 13 -9 22 q-9 9 -22 9 l-604 0 q-13 0 -22 -9 q-9 -9 -9 -22 Z" /><glyph glyph-name="surprise" unicode="&#xe124;" d="M104.5 554 q104.5 102 253.5 102 q149 0 254 -102 q105 -102 105 -247 q0 -145 -105 -247 q-105 -102 -254 -102 q-149 0 -253.5 102 q-104.5 102 -104.5 247 q0 145 104.5 247 ZM149.5 494.5 q-30.5 -30.5 -30.5 -74.5 q0 -44 31 -75 q31 -31 74 -31 q44 0 75 31 q31 31 31 75 q0 43 -31 74 q-31 31 -75 31 q-44 0 -74.5 -30.5 ZM418.5 345 q31.5 -31 74.5 -31 q43 0 74 31 q31 31 31 75 q0 44 -31 74.5 q-31 30.5 -74 30.5 q-44 0 -75 -31 q-31 -31 -31 -74 q0 -44 31.5 -75 ZM257.5 453.5 q13.5 -13.5 13.5 -33.5 q0 -20 -13.5 -33.5 q-13.5 -13.5 -33.5 -13.5 q-20 0 -33.5 13.5 q-13.5 13.5 -13.5 33.5 q0 20 13.5 33.5 q13.5 13.5 33.5 13.5 q20 0 33.5 -13.5 ZM493 467 q19 0 33 -13.5 q14 -13.5 14 -33.5 q0 -20 -14 -33.5 q-14 -13.5 -33 -13.5 q-20 0 -34 14 q-14 14 -14 33 q0 19 14 33 q14 14 34 14 ZM316 77 l84 0 q38 0 66 27.5 q28 27.5 28 66.5 q0 39 -28 66.5 q-28 27.5 -66 27.5 l-84 0 q-38 0 -65.5 -27.5 q-27.5 -27.5 -27.5 -66.5 q0 -39 27.5 -66.5 q27.5 -27.5 65.5 -27.5 Z" /><glyph glyph-name="sync" unicode="&#xe125;" d="M563 307 l65 0 q0 86 -56 155 l-1 0 q-38 46 -91 68 q0 0 -2 1 q-3 1 -9 4 q-6 3 -9 4 q-1 0 -2.5 0.5 q-1.5 0.5 -2.5 0.5 q-3 1 -17 4 q-4 2 -7 2 q-3 0 -8.5 1 q-5.5 1 -8.5 2 l-6 0 q-7 1 -22 1 q-77 2 -141 -43 q-13 -9 -29.5 -6.5 q-16.5 2.5 -24.5 15.5 q-9 13 -6 28.5 q3 15.5 16 24.5 q82 58 182 58 l1 1 q1 0 2 0 l2 -1 q18 0 26 -1 q2 0 5.5 -0.5 q3.5 -0.5 5.5 -0.5 q2 -1 7 -1.5 q5 -0.5 7 -0.5 q1 0 3 -0.5 q2 -0.5 3 -0.5 l12 -4 q8 -1 19 -5 q6 -2 8 -3 q10 -3 23 -8 q1 0 3 0 l1 -1 q71 -31 120 -90 q0 -1 0.5 -1 q0.5 0 0.5 -1 q7 -8 14 -19 q1 0 1 -2 q58 -84 58 -181 l63 0 l-102 -153 l-103 153 ZM0 307 l102 154 l103 -154 l-65 0 q0 -83 55 -151 q1 0 1 -1 q0 -1 1 -2 q10 -12 15 -17 l0 -1 q24 -24 55 -41 l1 -1 q10 -5 19 -8 q2 -2 4 -2 q10 -4 16 -6 q4 -2 7 -2 q3 -2 15 -4 q1 -1 4 -1 q3 0 5 -1 q10 -2 15 -2 q3 -1 8 -1 q6 -1 20 -1 q78 -2 142 44 q13 8 29.5 5 q16.5 -3 24.5 -16 q9 -13 6 -28.5 q-3 -15.5 -16 -24.5 q-82 -58 -182 -58 q-11 0 -33 2 q-1 0 -3 0.5 q-2 0.5 -3 0.5 q-3 0 -8.5 1 q-5.5 1 -8.5 1 q-2 1 -5 1 q-2 1 -7 2 q-5 1 -7 1 q-3 1 -9 2.5 q-6 1.5 -9 2.5 q-6 2 -10 3 q-11 4 -21 8 q-3 0 -5 2 q-3 1 -8 3.5 q-5 2.5 -9 4.5 q-4 2 -7 4 l-2 1 q-37 19 -72 54 q0 1 -0.5 1 q-0.5 0 -0.5 1 q-13 13 -19 20 q-1 1 -4 6 l-12 15 l0 1 l-1 1 q-58 82 -58 181 l-63 0 Z" /><glyph glyph-name="tabezou" unicode="&#xe126;" d="M1087 496 l15 15 q2 7 2.5 13.5 q0.5 6.5 1 9.5 q0.5 3 5.5 9.5 q5 6.5 17 18.5 l1 1 l31 32 q22 22 55 10 q17 -7 12 -14 q-14 -15 -117 -118 l69 -69 q11 -11 0 -22 q-5 -4 -12 -4 q-7 0 -11 4 l-19 18 q-8 -10 -8 -13 q0 -34 -6 -85 q-3 -19 -22.5 -51.5 q-19.5 -32.5 -38.5 -56.5 q-14 -17 -45.5 -30.5 q-31.5 -13.5 -59.5 -13.5 q-37 1 -110 53 q-12 10 -28 25.5 q-16 15.5 -25 25.5 l-10 11 l0 -284 l-128 0 l0 152 l-28 0 l0 -152 l-135 0 l0 152 l-75 0 l0 -156 l-128 0 l0 156 l-26 0 l0 -152 l-129 0 l0 378 l-135 -121 q95 193 128 230 q41 44 81 44 l461 0 q4 1 11 3 q7 2 21.5 4.5 q14.5 2.5 21.5 2.5 q13 -2 38.5 -9.5 q25.5 -7.5 36.5 -13.5 q12 -7 33.5 -33 q21.5 -26 29.5 -45 q6 -12 19 -66.5 q13 -54.5 19 -62.5 q9 -13 27 -28.5 q18 -15.5 30 -18.5 q8 -2 22.5 1 q14.5 3 24.5 6 l10 4 q23 20 35 49 q12 30 3 71 q-2 6 -18 22 l-16 -16 q-4 -4 -11 -4 q-7 0 -12 4 q-11 11 0 22 l69 69 l-32 33 q-29 -22 -58 7 l-46 45 q-7 8 0 17 q8 9 17 0 l44 -44 q5 -5 11 0 q6 6 0 12 l-44 44 q-8 9 0 17 q9 7 18 0 l0 -1 l44 -43 q6 -6 11 0 q5 6 0 11 l-44 44 q-4 3 -4 8.5 q0 5.5 4 8.5 q8 10 16 0 l47 -45 q29 -29 7 -59 l32 -32 ZM601 199 l81 0 l0 29 l-81 0 q-45 0 -63 18 q-13 13 -23.5 33.5 q-10.5 20.5 -10.5 31.5 l-2 142 l-30 0 l2 -142 q0 -19 12.5 -44 q12.5 -25 30.5 -43 q25 -25 84 -25 ZM1127 410 l-40 41 q-17 -16 -45 -44 q7 1 23.5 -1 q16.5 -2 21.5 -2 q8 0 22.5 3 q14.5 3 17.5 3 ZM717 359 q10 0 18 8 q8 8 8 19 q0 11 -8 19 q-8 8 -18 8 q-11 0 -19 -8.5 q-8 -8.5 -8 -18.5 q0 -10 8 -18.5 q8 -8.5 19 -8.5 Z" /><glyph glyph-name="table" unicode="&#xe127;" d="M0 561 l0 -508 q0 -19 13 -32 q13 -13 32 -13 l628 0 q19 0 31.5 13 q12.5 13 12.5 32 l0 508 q0 19 -12.5 32 q-12.5 13 -31.5 13 l-628 0 q-19 0 -32 -13 q-13 -13 -13 -32 ZM60 388 l0 129 l179 0 l0 -129 l-179 0 ZM269 388 l0 129 l180 0 l0 -129 l-180 0 ZM478 388 l0 129 l179 0 l0 -129 l-179 0 ZM60 228 l0 129 l179 0 l0 -129 l-179 0 ZM269 228 l0 129 l180 0 l0 -129 l-180 0 ZM478 228 l0 129 l179 0 l0 -129 l-179 0 ZM60 69 l0 130 l179 0 l0 -130 l-179 0 ZM269 69 l0 130 l180 0 l0 -130 l-180 0 ZM478 69 l0 130 l179 0 l0 -130 l-179 0 Z" /><glyph glyph-name="tag" unicode="&#xe128;" d="M0 652 l267 0 q0 0 379 -379 q20 -20 20 -42 q0 -22 -10 -35 l-10 -12 q-134 -133 -178 -178 q-20 -20 -42 -20 q-22 0 -34 10 l-13 10 l-379 379 l0 267 ZM143 452 q23 0 40 17 q17 17 17 40 q0 23 -17 39 q-17 16 -40 16 q-23 0 -39 -16 q-16 -16 -16 -39 q0 -23 16 -40 q16 -17 39 -17 Z" /><glyph glyph-name="tile" unicode="&#xe129;" d="M0 343 l297 0 l0 297 l-297 0 l0 -297 ZM369 343 l297 0 l0 297 l-297 0 l0 -297 ZM0 -26 l297 0 l0 297 l-297 0 l0 -297 ZM369 -26 l297 0 l0 297 l-297 0 l0 -297 Z" /><glyph glyph-name="tilemenu" unicode="&#xe12a;" d="M0 450 l190 0 l0 190 l-190 0 l0 -190 ZM238 450 l190 0 l0 190 l-190 0 l0 -190 ZM475 450 l191 0 l0 190 l-191 0 l0 -190 ZM0 212 l190 0 l0 190 l-190 0 l0 -190 ZM238 212 l190 0 l0 190 l-190 0 l0 -190 ZM475 212 l191 0 l0 190 l-191 0 l0 -190 ZM0 -26 l190 0 l0 191 l-190 0 l0 -191 ZM238 -26 l190 0 l0 191 l-190 0 l0 -191 ZM475 -26 l191 0 l0 191 l-191 0 l0 -191 Z" /><glyph glyph-name="time" unicode="&#xe12b;" d="M358 -51 q-148 0 -253 104.5 q-105 104.5 -105 253.5 q0 149 105 254 q105 105 253 105 q148 0 253.5 -105 q105.5 -105 105.5 -254 q0 -148 -105 -253 q-105 -105 -254 -105 ZM548.5 497.5 q-79.5 79.5 -190.5 79.5 q-111 0 -189.5 -79.5 q-78.5 -79.5 -78.5 -190.5 q0 -111 78.5 -189.5 q78.5 -78.5 189.5 -78.5 q111 0 190.5 78.5 q79.5 78.5 79.5 189.5 q0 111 -79.5 190.5 ZM455 170 l-127 93 q-18 14 -18 34 l0 203 q0 8 6.5 14 q6.5 6 15.5 6 l42 0 q8 0 14 -6 q6 -6 6 -14 l0 -160 q0 -20 18 -34 l93 -67 q7 -5 8 -14 q1 -9 -4 -16 l-25 -34 q-12 -16 -29 -5 Z" /><glyph glyph-name="trash" unicode="&#xe12c;" d="M441 567 l99 0 q14 0 23 -9.5 q9 -9.5 9 -22.5 l0 -23 q0 -11 -7 -20.5 q-7 -9.5 -18 -11.5 l0 -475 q0 -23 -17 -39.5 q-17 -16.5 -41 -16.5 l-406 0 q-24 0 -40.5 16.5 q-16.5 16.5 -16.5 39.5 l0 475 q-11 2 -18.5 11.5 q-7.5 9.5 -7.5 20.5 l0 23 q0 13 9.5 22.5 q9.5 9.5 23.5 9.5 l98 0 l0 42 q0 23 16.5 40 q16.5 17 40.5 17 l196 0 q24 0 40.5 -17 q16.5 -17 16.5 -40 l0 -42 ZM384 616 l-196 0 q-8 0 -8 -7 l0 -42 l212 0 l0 42 q0 7 -8 7 ZM99 13 l375 0 q7 0 7 9 l0 457 l-390 0 l0 -457 q0 -9 8 -9 ZM176 50 l-6 0 q-14 0 -23.5 10 q-9.5 10 -9.5 23 l0 327 q0 13 9.5 22 q9.5 9 23.5 9 l6 0 q13 0 22.5 -9 q9.5 -9 9.5 -22 l0 -327 q0 -13 -9.5 -23 q-9.5 -10 -22.5 -10 ZM289 50 l-5 0 q-14 0 -23.5 10 q-9.5 10 -9.5 23 l0 327 q0 13 9.5 22 q9.5 9 23.5 9 l5 0 q14 0 23.5 -9 q9.5 -9 9.5 -22 l0 -327 q0 -13 -10 -23 q-10 -10 -23 -10 ZM402 50 l-5 0 q-13 0 -22.5 9.5 q-9.5 9.5 -9.5 23.5 l0 327 q0 13 9.5 22 q9.5 9 22.5 9 l5 0 q14 0 23.5 -9 q9.5 -9 9.5 -22 l0 -327 q0 -13 -9.5 -23 q-9.5 -10 -23.5 -10 Z" /><glyph glyph-name="trouble" unicode="&#xe12d;" d="M104.5 554 q104.5 102 253.5 102 q149 0 254 -102 q105 -102 105 -247 q0 -145 -105 -247 q-105 -102 -254 -102 q-149 0 -253.5 102 q-104.5 102 -104.5 247 q0 145 104.5 247 ZM198 465 l0 -100 q0 -8 5.5 -14.5 q5.5 -6.5 13.5 -6.5 l41 0 q8 0 14 6.5 q6 6.5 6 14.5 l0 100 q0 8 -6 14 q-6 6 -14 6 l-41 0 q-8 0 -13.5 -6 q-5.5 -6 -5.5 -14 ZM439 465 l0 -100 q0 -8 6 -14.5 q6 -6.5 14 -6.5 l41 0 q8 0 13.5 6.5 q5.5 6.5 5.5 14.5 l0 100 q0 8 -5.5 14 q-5.5 6 -13.5 6 l-41 0 q-8 0 -14 -6 q-6 -6 -6 -14 ZM584 144 q18 18 6 31 l-29 29 q-15 15 -32 25 q-31 19 -70 9 q-23 -6 -46 -31 q-4 -4 -12 -14 q-8 -10 -15.5 -16.5 q-7.5 -6.5 -15.5 -9.5 q-25 -8 -48 21 q-26 30 -40 39 q-28 18 -65 13 q-29 -5 -55 -31 q-3 -3 -7.5 -8 q-4.5 -5 -8.5 -9 q-4 -4 -8 -7 q-1 -1 -4 -3.5 q-3 -2.5 -4 -4 q-1 -1.5 -3.5 -4.5 q-2.5 -3 -3.5 -5 q-1 -2 -1.5 -4.5 q-0.5 -2.5 1 -5.5 q1.5 -3 3.5 -5 q2 -2 7 -7.5 q5 -5.5 9.5 -10 q4.5 -4.5 8.5 -6.5 q5 0 7 -0.5 q2 -0.5 7 3.5 q5 4 6.5 5.5 q1.5 1.5 5.5 6.5 q4 5 5 6 q2 2 9 9 q7 7 10.5 10 q3.5 3 10.5 8 q7 5 12 6 q5 1 12 1 q7 0 14 -4 q10 -5 25 -23 q15 -18 16 -19 q22 -22 53 -27 q36 -6 66 13 q14 10 40 40 q27 31 54 15 q6 -4 20 -20 q4 -4 13 -13 q9 -9 14 -13 q11 -11 33 11 Z" /><glyph glyph-name="tumblr" unicode="&#xe12e;" d="M84 640 l498 0 q35 0 59.5 -24.5 q24.5 -24.5 24.5 -59.5 l0 -498 q0 -34 -25 -59 q-25 -25 -59 -25 l-498 0 q-35 0 -59.5 24.5 q-24.5 24.5 -24.5 59.5 l0 498 q0 34 25 59 q25 25 59 25 ZM225 365 l0 -186 q0 -38 7 -55 q8 -19 28 -36 q22 -19 48 -27 q27 -9 64 -9 q34 0 59 7 q23 5 62 22 l0 84 q-43 -27 -80 -27 q-21 0 -40 12 q-15 8 -19 20 q-5 13 -5 59 l0 136 l126 0 l0 82 l-126 0 l0 135 l-75 0 q-5 -42 -18 -67 q-13 -26 -36 -46 q-23 -19 -53 -29 l0 -75 l58 0 Z" /><glyph glyph-name="twitter" unicode="&#xe12f;" d="M768 546 q-33 -48 -79 -82 q1 -7 1 -21 q0 -80 -30 -158 q-30 -78 -84.5 -143.5 q-54.5 -65.5 -142 -106 q-87.5 -40.5 -191.5 -40.5 q-129 0 -242 71 q36 -3 38 -3 q108 0 195 68 q-51 1 -91.5 31.5 q-40.5 30.5 -55.5 78.5 q13 -3 30 -3 q22 0 42 6 q-55 11 -91 53.5 q-36 42.5 -36 99.5 l0 2 q35 -18 71 -19 q-70 48 -70 131 q0 41 21 80 q60 -73 144.5 -117 q84.5 -44 180.5 -48 q-4 22 -4 36 q0 65 46 111.5 q46 46.5 111 46.5 q68 0 116 -51 q50 10 99 39 q-17 -58 -68 -88 q44 6 90 26 Z" /><glyph glyph-name="underline" unicode="&#xe132;" d="M0 638 l2 -37 q8 -2 18 -2 q31 0 49 -5 q17 -5 20 -27 q2 -16 2 -53 q0 0 0 -18 l0 -140 q0 -93 19 -139 q28 -64 102 -91 q56 -20 124 -20 q70 0 133 22 q69 25 104 81 q14 26 21 71 q4 35 4 72 q0 31 -2 59 q0 7 -0.5 22 q-0.5 15 -0.5 23 q-1 19 -2.5 48.5 q-1.5 29.5 -1.5 30.5 q0 3 -0.5 7 q-0.5 4 -1 6 q-0.5 2 -0.5 3 q-2 8 -2 23 q0 12 8 17 q13 8 46 10 q18 2 23 4 q2 4 2 12 q0 11 -3 22 l-4 0 l-5 0 q-22 0 -33 -2 q-22 -2 -34 -2 q-36 0 -72 3 q-41 3 -72 1 l0 -35 q4 -2 25 -2 l15 0 q5 1 11 1 q19 0 33 -14 q4 -4 7 -20 q3 -17 6 -39 q7 -71 8 -100 q3 -51 3 -73 q0 -105 -39 -151 q-42 -51 -146 -51 q-66 0 -102 38 q-36 38 -40 104 q-6 158 -6 235 q0 32 4 48 q6 22 43 19 q18 -2 46 3 l0 3 q0 12 -1 17 q-1 9 0 16 q-112 -4 -173 -4 q-21 0 -59 2 q-28 3 -61 3 l-9 0 q-1 0 -3.5 -0.5 q-2.5 -0.5 -4.5 -0.5 ZM0 -27 l666 0 l0 68 l-666 0 l0 -68 Z" /><glyph glyph-name="undo" unicode="&#xe133;" d="M248 393 q0 0 0 -26 l0 -40 q0 -11 -7 -14.5 q-7 -3.5 -15 2.5 l-217 156 q-9 6 -9 15.5 q0 9.5 9 15.5 l217 157 q8 6 15 2.5 q7 -3.5 7 -13.5 l0 -39 l0 -26 q141 0 216 -49 q33 -22 59.5 -55 q26.5 -33 42 -76 q15.5 -43 17 -90 q1.5 -47 -19.5 -97.5 q-21 -50.5 -61.5 -97.5 q-40.5 -47 -116 -92 q-75.5 -45 -177.5 -79 q12 6 32 17.5 q20 11.5 68.5 48 q48.5 36.5 83 75.5 q34.5 39 56 97.5 q21.5 58.5 6.5 115.5 q-11 46 -62.5 73 q-51.5 27 -143.5 19 Z" /><glyph glyph-name="unlock" unicode="&#xe134;" d="M468 334 l67 0 q7 0 11.5 -5 q4.5 -5 4.5 -12 l0 -352 q0 -16 -16 -16 l-519 0 q-16 0 -16 16 l0 352 q0 7 4.5 12 q4.5 5 11.5 5 l368 0 l0 1 l0 155 q0 38 -27.5 66 q-27.5 28 -66.5 28 l-31 0 q-38 0 -65.5 -28 q-27.5 -28 -27.5 -66 l0 -59 l-85 0 l0 67 q0 71 41.5 119.5 q41.5 48.5 108.5 48.5 l86 0 q67 0 109 -48.5 q42 -48.5 42 -119.5 l0 -164 ZM228 51 l94 0 l-23 101 q27 14 27 44 q0 22 -15 36.5 q-15 14.5 -36 14.5 q-21 0 -35.5 -14.5 q-14.5 -14.5 -14.5 -36.5 q0 -30 27 -44 l-24 -101 Z" /><glyph glyph-name="up" unicode="&#xe135;" d="M360 317 l-245 -245 l-115 118 l354 355 l363 -363 l-112 -112 l-245 247 Z" /><glyph glyph-name="upload" unicode="&#xe136;" d="M132 381 l129 0 l0 -211 q0 -14 9.5 -23.5 q9.5 -9.5 23.5 -9.5 l129 0 q14 0 24 10 q10 10 10 23 l0 211 l129 0 q13 0 16 6 q3 6 -6 16 l-214 213 q-9 11 -24 11 q-14 0 -23 -11 l-213 -213 q-9 -10 -6 -16 q3 -6 16 -6 ZM0 232 l0 -228 q0 -16 16 -16 l684 0 q17 0 17 16 l0 228 q0 7 -5 12.5 q-5 5.5 -12 5.5 l-65 0 q-7 0 -12 -5.5 q-5 -5.5 -5 -12.5 l0 -145 l-520 0 l0 145 q0 18 -16 18 l-66 0 q-7 0 -11.5 -5.5 q-4.5 -5.5 -4.5 -12.5 Z" /><glyph glyph-name="user" unicode="&#xe137;" d="M646 138 q35 -19 54 -50 q19 -31 17 -65 q-2 -21 -7 -25.5 q-5 -4.5 -32 -7.5 q-38 -5 -307 -5 q-324 0 -346 5 q-23 6 -25 33 q-2 27 17.5 58.5 q19.5 31.5 50.5 51.5 q36 24 97 53.5 q61 29.5 82 34.5 q29 6 30.5 28 q1.5 22 -29.5 78 q-21 36 -23 122 q-2 69 18 111 q20 42 73 62 q22 8 45 8 q37 0 69.5 -19 q32.5 -19 46.5 -50 q20 -42 14.5 -126.5 q-5.5 -84.5 -27.5 -124.5 q-24 -45 -22 -62.5 q2 -17.5 30 -25.5 q37 -9 174 -84 Z" /><glyph glyph-name="vertical" unicode="&#xe138;" d="M68 651 l237 0 q28 0 48 -20 q20 -20 20 -48 l0 -551 q0 -28 -20 -48.5 q-20 -20.5 -48 -20.5 l-237 0 q-28 0 -48 20.5 q-20 20.5 -20 48.5 l0 551 q0 28 20 48 q20 20 48 20 ZM665 372 l-52 0 q5 57 -34 96 q-32 32 -75 35 l0 -69 l-100 96 l100 92 l0 -68 q63 -3 110 -50 q56 -54 51 -132 ZM44 98 l286 0 l0 423 l-286 0 l0 -423 ZM412 337 l237 0 q28 0 48 -20.5 q20 -20.5 20 -48.5 l0 -236 q0 -28 -20 -48.5 q-20 -20.5 -48 -20.5 l-261 0 q16 19 22 44 l178 0 l0 286 l-176 0 l0 44 ZM160.5 15.5 q10.5 -11.5 25.5 -11.5 q15 0 26 11.5 q11 11.5 11 26.5 q0 15 -11 26 q-11 11 -26 11 q-15 0 -25.5 -11 q-10.5 -11 -10.5 -26 q0 -15 10.5 -26.5 Z" /><glyph glyph-name="video" unicode="&#xe139;" d="M496 396 l219 126 q22 13 37.5 4.5 q15.5 -8.5 15.5 -34.5 l0 -372 q0 -25 -15.5 -34.5 q-15.5 -9.5 -37.5 3.5 l-219 127 l0 -94 q0 -26 -18.5 -44.5 q-18.5 -18.5 -44.5 -18.5 l-372 0 q-25 0 -43 18.5 q-18 18.5 -18 44.5 l0 371 q0 26 17.5 44 q17.5 18 43.5 18 l372 0 q26 0 44.5 -18 q18.5 -18 18.5 -44 l0 -97 Z" /><glyph glyph-name="view" unicode="&#xe13a;" d="M397 376 q29 0 49 -20 q20 -20 20 -49 q0 -28 -20 -48 q-20 -20 -49 -20 q-29 0 -48.5 19.5 q-19.5 19.5 -19.5 48.5 q0 29 20 49 q20 20 48 20 ZM269.5 523 q64.5 23 127.5 23 q63 0 126.5 -22 q63.5 -22 108.5 -53 q45 -31 81.5 -62 q36.5 -31 54.5 -53 l18 -22 q8 -10 8 -26.5 q0 -16.5 -8 -26.5 q-7 -9 -19 -23 q-12 -14 -52.5 -50.5 q-40.5 -36.5 -83 -64.5 q-42.5 -28 -107 -51 q-64.5 -23 -127.5 -23 q-63 0 -126.5 22 q-63.5 22 -108.5 53 q-45 31 -81.5 62 q-36.5 31 -54.5 53 l-18 22 q-8 11 -8 27 q0 16 8 26 q7 9 19 23 q12 14 52.5 50.5 q40.5 36.5 83 64.5 q42.5 28 107 51 ZM276 186 q50 -50 121 -50 q71 0 121 50 q50 50 50 121 q0 71 -50 121 q-50 50 -121 50 q-71 0 -121 -50 q-50 -50 -50 -121 q0 -71 50 -121 Z" /><glyph glyph-name="volume" unicode="&#xe13b;" d="M0 382 l0 -150 q0 -15 15 -15 l84 0 l169 -129 q20 -21 33.5 -15 q13.5 6 13.5 35 l0 399 q0 29 -13.5 34.5 q-13.5 5.5 -33.5 -15.5 l-169 -129 l-84 0 q-15 0 -15 -15 Z" /><glyph glyph-name="volumedown" unicode="&#xe13c;" d="M0 382 l0 -150 q0 -15 15 -15 l84 0 l169 -129 q20 -21 33.5 -15 q13.5 6 13.5 35 l0 399 q0 29 -13.5 34.5 q-13.5 5.5 -33.5 -15.5 l-169 -129 l-84 0 q-6 0 -10.5 -4.5 q-4.5 -4.5 -4.5 -10.5 ZM380 145 q8 -5 15 -5 q19 0 28 17 q41 69 41 150 q0 81 -41 151 q-7 11 -19.5 14 q-12.5 3 -23.5 -3 q-11 -6 -14.5 -19 q-3.5 -13 2.5 -24 q32 -53 32 -119 q0 -66 -32 -119 q-6 -11 -2.5 -24 q3.5 -13 14.5 -19 Z" /><glyph glyph-name="volumeup" unicode="&#xe13d;" d="M582 -5 q6 -5 17 -5 q19 0 27 14 q91 138 91 301 q0 163 -91 303 q-7 10 -20 12 q-13 2 -24 -4 q-11 -7 -14 -20 q-3 -13 4 -24 q81 -124 81 -267 q0 -139 -81 -267 q-7 -10 -4 -23 q3 -13 14 -20 ZM481 70 q5 -5 17 -5 q18 0 26 14 q66 105 66 226 q0 121 -65 227 q-8 11 -20.5 14 q-12.5 3 -23.5 -4 q-11 -6 -14 -19 q-3 -13 4 -24 q56 -89 56 -193 q0 -104 -56 -193 q-7 -11 -4 -24 q3 -13 14 -19 ZM0 381 l0 -151 q0 -15 15 -15 l84 0 l169 -129 q20 -20 33.5 -14.5 q13.5 5.5 13.5 33.5 l0 401 q0 28 -13.5 33.5 q-13.5 5.5 -33.5 -14.5 l-169 -129 l-84 0 q-6 0 -10.5 -4.5 q-4.5 -4.5 -4.5 -10.5 ZM380 143 q8 -5 15 -5 q18 0 28 17 q41 70 41 150 q0 82 -41 152 q-7 11 -19.5 14 q-12.5 3 -23.5 -3 q-11 -6 -14.5 -19 q-3.5 -13 2.5 -24 q32 -54 32 -120 q0 -65 -32 -119 q-6 -11 -2.5 -24 q3.5 -13 14.5 -19 Z" /><glyph glyph-name="walking" unicode="&#xe13e;" d="M304 593 q0 30 -21.5 51.5 q-21.5 21.5 -52.5 21.5 q-30 0 -51 -21.5 q-21 -21.5 -21 -51.5 q0 -31 21 -52 q21 -21 51 -21 q31 0 52.5 21 q21.5 21 21.5 52 ZM225 -51 l-65 0 q-3 185 2 207 q2 11 25 44 q23 33 24 42 q1 8 -3.5 32.5 q-4.5 24.5 -9.5 44.5 l-4 20 q-43 -39 -57 -46 q-6 -3 -37 -9.5 q-31 -6.5 -59 -11.5 l-28 -4 l-13 56 q105 23 120 35 q4 3 36 58 q32 55 49 62 q7 3 21 4.5 q14 1.5 26 1.5 q12 0 30.5 -0.5 q18.5 -0.5 23.5 -0.5 q19 0 70 -27 q51 -27 59 -38 q4 -5 20.5 -34.5 q16.5 -29.5 30.5 -56.5 l14 -28 l-50 -28 l-40 86 q-31 26 -43 30 q-30 9 -33 -2 q-3 -7 30 -115 q6 -24 24.5 -82.5 q18.5 -58.5 26.5 -73.5 l83 -125 l-61 -40 q-87 118 -98 135 q-5 8 -16.5 35 q-11.5 27 -20.5 50 l-9 23 q-58 -71 -63 -93 l-5 -151 Z" /><glyph glyph-name="web" unicode="&#xe13f;" d="M0 318 l0 1 q14 175 124 258 q107 83 235 83 q134 2 246 -89 q112 -88 112 -261 q0 0 0 -3 l0 -2 l0 -2 q0 -172 -112 -260 q-113 -90 -247 -90 l-2 0 q0 0 -2 0 q-131 2 -241 91 q-112 89 -113 274 ZM337 475 l0 158 l-24 0 q-2 -2 -13 -19 q-8 -12 -12 -19 q-8 -12 -12 -20 q-5 -8 -10 -19 q-8 -14 -15 -29 q-7 -12 -12 -26 q14 -9 21 -12 q18 -6 27 -8 q8 -2 27 -4 q18 -2 23 -2 ZM379 633 l0 -157 q0 0 17 0 q7 0 19 2 q19 3 34 8 q18 7 28 15 q-13 32 -38 74 q-19 32 -44 57 l0 1 l-16 0 ZM271 624 l0 1 q-3 -1 -10.5 -5 q-7.5 -4 -11.5 -6 q-15 -6 -23 -11 q-21 -11 -42 -24 q-21 -15 -37 -29 q5 -5 13 -11 q4 -3 14 -11 q7 -4 14 -9 q5 -3 17 -11 q18 40 26 54 q15 26 32 50 q2 4 4 6 l1 2 q2 3 3 4 ZM577 550 l0 1 q-45 34 -69 45 q-44 20 -64 28 q25 -25 39 -55 q18 -36 28 -61 q12 6 15 8 q2 1 5 2.5 q3 1.5 7 3.5 q4 2 6 3 q3 2 8.5 6 q5.5 4 8.5 6 q2 2 8 6.5 q6 4.5 8 6.5 ZM560 327 l115 0 q0 53 -23 108 q-20 50 -59 89 l0 1 q-7 -12 -19 -20 q-12 -7 -23 -13 q-2 -1 -5 -3 q-3 -2 -5.5 -3.5 q-2.5 -1.5 -4.5 -2.5 q-3 -1 -9 -4 q-6 -3 -8 -4 q2 -4 6 -12.5 q4 -8.5 6 -12.5 q1 -2 5 -12.5 q4 -10.5 5 -15.5 q6 -16 14 -50 q5 -25 5 -45 ZM198 475 l0 1 q-3 2 -11.5 5.5 q-8.5 3.5 -12.5 5.5 q-14 10 -20 14 q-9 4 -17 11 q-5 4 -13 12 q-40 -38 -57 -86 q-20 -51 -26 -110 l123 0 q0 40 11 82 q7 33 23 65 ZM337 328 l0 115 q-13 -2 -27 0 q-11 1 -29 7 q-22 6 -26 7 q-12 3 -25 10 q-9 -14 -15 -35 q-4 -11 -11 -37 q-2 -10 -4 -36 q-2 -22 -2 -31 l139 0 ZM379 441 l0 -113 l148 0 q0 13 -1 21 q-2 6 -4 24 q-7 28 -10 37 q-8 22 -13 31 q-1 2 -2 5 q-1 3 -2 5.5 q-1 2.5 -2 4.5 q-2 3 -4.5 6.5 q-2.5 3.5 -3.5 4.5 q-14 -10 -44 -17 q-33 -8 -55 -9 l-3 0 l-4 0 ZM164 295 l-123 0 q0 -22 8 -59 q5 -24 26 -70 q5 -12 17 -36 q12 -19 23 -34 q4 2 10 5.5 q6 3.5 7 4.5 q3 2 9.5 5.5 q6.5 3.5 9.5 4.5 q14 6 22 10 q7 3 25 11 q-20 63 -23 76 q-11 41 -11 81 l0 1 ZM337 178 l0 117 l-139 0 q0 -14 3 -32 q1 -7 3.5 -21.5 q2.5 -14.5 2.5 -16.5 q1 -5 5 -19 q4 -14 6 -21 q5 -16 12 -31 q22 8 48 15 q22 7 37 8 l11 0 q4 1 11 1 ZM379 295 l0 -116 q7 -1 23 -3 q13 -1 29 -5 l15 -3 q4 -2 16 -4 q3 -1 9 -2.5 q6 -1.5 9 -2.5 q2 -1 7 -2.5 q5 -1.5 7 -2.5 q18 45 26 83 q7 31 7 57 l0 1 l-148 0 ZM675 294 l0 1 l-115 0 l0 -3 l0 -3 q-1 -26 -8 -64 q-5 -26 -25 -80 q28 -14 43 -24 q18 -12 31 -25 q26 26 45 70 q20 44 27 91 q1 3 1 9 q0 6 1 9 l0 19 ZM337 -10 l0 156 q-28 -4 -62 -13 q-24 -6 -36 -12 q8 -20 18 -40 q8 -15 19 -33 q1 -2 4.5 -6.5 q3.5 -4.5 4.5 -6.5 q1 -2 4 -6.5 q3 -4.5 4 -6.5 q3 -5 9 -17 q2 -2 5.5 -7.5 q3.5 -5.5 5.5 -7.5 l24 0 ZM379 -10 l23 0 q14 11 25 28 q16 21 23 35 q1 2 8.5 16 q7.5 14 11.5 21 q3 7 8 17.5 q5 10.5 7 13.5 q-11 4 -41 12 q-24 6 -65 12 l0 -155 ZM577 72 l0 1 q-2 3 -9 10 q-6 5 -13 10 q-6 5 -15 9 q-14 7 -21 11 q-11 -22 -21 -41 q-12 -26 -45 -67 q35 6 67 25 q30 15 57 42 ZM205 104 l0 1 q-7 -4 -29 -14 q-23 -9 -37 -19 q14 -12 20 -16 q2 -2 19 -13 q17 -11 37 -20 q20 -9 49 -18 q-3 3 -17 26 q-2 4 -7.5 12 q-5.5 8 -8.5 12 q-3 4 -13 25 q-5 8 -13 24 Z" /><glyph glyph-name="wifi" unicode="&#xe140;" d="M518 101.5 q0 44.5 -32 76.5 q-32 32 -76.5 32 q-44.5 0 -76.5 -32 q-31 -32 -31 -76.5 q0 -44.5 31 -76.5 q32 -31 76.5 -31 q44.5 0 76.5 31 q32 32 32 76.5 ZM260 251 q-41 -41 -55 -97 l-67 65 q21 50 63 91 q86 87 208.5 87 q122.5 0 208.5 -87 q43 -43 63 -91 l-67 -65 q-14 56 -55 97 q-62 62 -149.5 62 q-87.5 0 -149.5 -62 ZM127 384 q-42 -44 -66 -87 l-61 61 q27 42 68 85 q92 92 217 125 q125 33 250 0 q125 -33 217 -125 q38 -40 67 -85 l-61 -61 q-24 43 -66 87 q-117 117 -282.5 117 q-165.5 0 -282.5 -117 Z" /><glyph glyph-name="youtube" unicode="&#xe141;" d="M98 485 l0 -125 l52 0 l0 125 l70 206 l-55 0 l-41 -134 l-41 134 l-57 0 l72 -206 ZM238 477 q0 -51 10 -81 q16 -43 62 -43 q47 0 63 43 q10 30 10 81 q0 59 -10 89 q-16 43 -63 43 q-46 0 -62 -43 q-10 -32 -10 -89 ZM554 360 l0 242 l-48 0 l0 -145 q0 -24 -3 -33 q-4 -17 -19 -17 q-14 0 -18 15 q-2 12 -2 31 l0 149 l-46 0 l0 -184 q0 -65 46 -65 q30 0 43 34 l0 -27 l47 0 ZM334 482 l0 -18 q0 -29 -1 -33 q-5 -31 -23 -31 q-18 0 -23 36 l0 37 l0 16 q0 41 1 46 q4 26 22 26 q18 0 23 -30 q1 -6 1 -49 ZM102 326 l405 0 q42 0 72 -30.5 q30 -30.5 30 -72.5 l0 -197 q0 -42 -30 -72.5 q-30 -30.5 -72 -30.5 l-405 0 q-42 0 -72 30.5 q-30 30.5 -30 72.5 l0 197 q0 42 30 72.5 q30 30.5 72 30.5 ZM138 218 l42 0 l0 42 l-121 0 l0 -42 l42 0 l0 -214 l37 0 l0 214 ZM356 4 l0 21 q10 -26 31 -26 q27 0 34 37 q5 20 5 63 q0 40 -4 66 q-7 37 -35 37 q-20 0 -29 -22 l0 80 l-33 0 l0 -256 l31 0 ZM482 94 l68 0 l0 15 q0 51 -10 71 q-13 22 -40 22 q-28 0 -41 -21 q-9 -14 -10 -36 q-2 -14 -2 -39 q0 -30 2 -46 q2 -27 11 -43 q12 -18 39 -18 q26 0 38 15 q12 15 12 49 q0 0 0 4 q0 0 0 4 l-33 0 q0 -38 -16 -38 q-13 0 -16 18 q-2 6 -2 31 q0 0 0 12 ZM261 4 l34 0 l0 193 l-35 0 l0 -123 q0 -19 -2 -24 q-3 -12 -13 -12 q-10 0 -13 11 q-2 4 -2 22 l0 126 l-32 0 l0 -151 q0 -47 32 -47 q20 0 31 25 l0 -20 ZM482 130 l0 3 q-2 18 3 27 q5 8 14 8 q11 0 14 -11 q2 -5 2 -24 l0 -8 l-33 0 l0 5 ZM376 165 q12 0 15 -27 l0 -38 q0 -35 -1 -38 q-2 -26 -14 -26 q-15 0 -18 21 q-1 5 -1 35 q0 39 1 43 q3 30 18 30 Z" /><glyph glyph-name="zoomin" unicode="&#xe142;" d="M541 173 l176 -176 l-72 -73 l-184 185 q-70 -39 -151 -39 q-128 0 -219 91 q-91 91 -91 219 q0 128 91 219 q91 91 219 91 q128 0 219.5 -91 q91.5 -91 91.5 -219 q0 -119 -80 -207 ZM151.5 538 q-65.5 -65 -65.5 -158 q0 -93 65.5 -158 q65.5 -65 158.5 -65 q93 0 158.5 65 q65.5 65 65.5 158 q0 93 -65.5 158 q-65.5 65 -158.5 65 q-93 0 -158.5 -65 ZM346 415 l124 0 l0 -71 l-124 0 l0 -123 l-71 0 l0 123 l-123 0 l0 71 l123 0 l0 124 l71 0 l0 -124 Z" /><glyph glyph-name="zoomout" unicode="&#xe143;" d="M541 173 l176 -176 l-72 -73 l-184 185 q-70 -39 -151 -39 q-128 0 -219 91 q-91 91 -91 219 q0 128 91 219 q91 91 219 91 q128 0 219.5 -91 q91.5 -91 91.5 -219 q0 -119 -80 -207 ZM151.5 538 q-65.5 -65 -65.5 -158 q0 -93 65.5 -158 q65.5 -65 158.5 -65 q93 0 158.5 65 q65.5 65 65.5 158 q0 93 -65.5 158 q-65.5 65 -158.5 65 q-93 0 -158.5 -65 ZM142 415 l337 0 l0 -71 l-337 0 l0 71 Z" /><glyph glyph-name="ellipsis" unicode="&#x2026;" d="" /><glyph glyph-name="emdash" unicode="&#x2014;" d="M629 406 l0 -73 l-643 0 l0 73 l643 0 Z" /><glyph glyph-name="endash" unicode="&#x2013;" d="M475 406 l0 -73 l-336 0 l0 73 l336 0 Z" /><glyph glyph-name="guilsinglleft" unicode="&#x2039;" d="M565 98 l-505 232 l-11 6 l0 67 l11 7 l505 230 l0 -79 l-418 -191 l418 -192 l0 -80 Z" /><glyph glyph-name="guilsinglright" unicode="&#x203a;" d="M49 640 l505 -230 l11 -7 l0 -67 l-11 -6 l-505 -232 l0 80 l418 192 l-418 191 l0 79 Z" /><glyph glyph-name="quotedblbase" unicode="&#x201e;" d="" /><glyph glyph-name="quotedblleft" unicode="&#x201c;" d="" /><glyph glyph-name="quotedblright" unicode="&#x201d;" d="" /><glyph glyph-name="quoteleft" unicode="&#x2018;" d="" /><glyph glyph-name="quoteright" unicode="&#x2019;" d="" /><glyph glyph-name="quotesinglbase" unicode="&#x201a;" d="" /><glyph glyph-name="brush" unicode="&#xe022;" d="M680 626 l11 -12 q2 -2 5.5 -6 q3.5 -4 10 -16 q6.5 -12 9 -24 q2.5 -12 -1.5 -28 q-4 -16 -18 -30 q-23 -23 -73 -44 q-50 -21 -72 -35 q-49 -30 -75 -69 q-26 -39 -20 -66 q4 -19 19 -46.5 q15 -27.5 25 -46 q10 -18.5 7 -44 q-3 -25.5 -26 -49.5 q-3 -2 -10.5 -10.5 q-7.5 -8.5 -8.5 -9.5 q3 -21 -20 -21 q5 -22 -20 -22 l-152 152 l-5 5 l-151 151 q0 11 5 16 q5 5 11 5 l5 0 q0 19 20 19 q14 15 20 21 q23 24 48.5 26.5 q25.5 2.5 44.5 -7.5 q19 -10 46.5 -25 q27.5 -15 45.5 -19 q28 -7 67.5 19 q39.5 26 69.5 75 q13 20 33.5 71 q20.5 51 44.5 75 q26 22 49.5 21 q23.5 -1 39.5 -14 l16 -12 ZM629.5 611.5 q-21.5 -0.5 -35.5 -14.5 q-14 -14 -14 -35 q0 -21 14 -35 q14 -14 35.5 -14.5 q21.5 -0.5 35.5 13.5 q14 14 14 36 q0 22 -14 36 q-14 14 -35.5 13.5 ZM3 201 l-3 40 l82 82 l305 -307 l-81 -83 l-41 5 l-4 48 l-48 4 l-3 51 l-49 2 l-4 49 l-48 3 l-5 49 l-49 4 l-3 49 l-49 4 Z" /><glyph glyph-name="buffalo" unicode="&#xe144;" d="M524 520 l-41 -149 q-7 -28 -29 -45 q-22 -17 -41 -19 q23 -5 33 -22 q10 -17 3 -44 l-37 -138 q-10 -39 -38.5 -61 q-28.5 -22 -70.5 -22 l-303 0 l154 574 l314 0 q30 0 47 -23 q17 -23 9 -51 ZM716 123 l126 471 l149 0 l-131 -489 q-10 -37 -42 -61 q-32 -24 -72 -24 l-224 0 q-29 0 -46 23 q-17 23 -9 52 l134 499 l149 0 l-127 -477 q-2 -7 1.5 -11.5 q3.5 -4.5 8.5 -4.5 l54 0 q23 0 29 22 ZM1123 319 l43 159 q4 18 17 27 q13 9 26 9 l189 0 q15 58 57 80 l-321 0 q-33 0 -65.5 -22 q-32.5 -22 -43.5 -63 l-130 -489 l148 0 l59 219 l177 0 l43 80 l-199 0 ZM1553 319 l43 159 q4 18 17 27 q13 9 26 9 l212 0 q13 58 58 80 l-345 0 q-33 0 -65.5 -22 q-32.5 -22 -43.5 -63 l-130 -489 l149 0 l58 219 l177 0 l43 80 l-199 0 ZM1627 20 l331 516 q37 58 106 58 l102 0 l-57 -574 l-143 0 l13 139 l-167 0 l-89 -139 l-96 0 ZM2286 509 l-111 -414 q-8 -29 9.5 -52 q17.5 -23 44.5 -23 l296 0 q-41 30 -41 81 l-143 0 q-5 0 -9 4.5 q-4 4.5 -2 11.5 l128 477 l-61 0 q-37 0 -68.5 -22.5 q-31.5 -22.5 -42.5 -62.5 ZM2532 109 l108 400 q11 43 43.5 64 q32.5 21 66.5 21 l226 0 q31 0 47.5 -23 q16.5 -23 8.5 -50 l-111 -416 q-10 -37 -41 -61 q-31 -24 -72 -24 l-209 0 q-34 0 -55 27.5 q-21 27.5 -12 61.5 ZM334 370 l35 129 q2 6 -1.5 10.5 q-3.5 4.5 -10.5 4.5 l-75 0 l-45 -166 l69 0 q22 0 28 22 ZM2784 493 l-100 -376 q-2 -7 1.5 -11.5 q3.5 -4.5 8.5 -4.5 l54 0 q23 0 29 22 l100 376 q2 6 -1.5 10.5 q-3.5 4.5 -9.5 4.5 l-55 0 q-21 0 -27 -21 ZM2010 466 l-146 -227 l124 0 l22 227 ZM268 123 l35 129 q2 6 -1.5 10.5 q-3.5 4.5 -10.5 4.5 l-76 0 l-44 -166 l69 0 q22 0 28 22 Z" /><glyph glyph-name="dailycalendar" unicode="&#xe025;" d="M558 560 l57 0 q21 0 36 -14.5 q15 -14.5 15 -34.5 l0 -486 q0 -21 -15 -36 q-15 -15 -36 -15 l-565 0 q-21 0 -35.5 15 q-14.5 15 -14.5 36 l0 486 q0 20 14.5 34.5 q14.5 14.5 35.5 14.5 l58 0 l0 6 q0 31 18 50 q22 24 62 24 q41 0 65 -24 q17 -20 17 -50 l0 -6 l125 0 l0 6 q0 30 19 50 q22 24 63 24 q40 0 64 -24 q17 -20 17 -50 l0 -6 ZM221 479 l0 87 q0 24 -33 24 q-31 0 -31 -24 l0 -87 q0 -23 31 -23 q33 0 33 23 ZM509 479 l0 87 q0 24 -32 24 q-33 0 -33 -24 l0 -87 q0 -23 33 -23 q32 0 32 23 ZM68 42 l530 0 l0 353 l-530 0 l0 -353 ZM161 262 l50 0 q0 20 10 33 q10 13 30 13 q15 0 25 -9 q12 -10 12 -26 q0 -11 -6 -17 q-5 -6 -14 -10 q-10 -4 -17 -4 q-11 -2 -19 0 l0 -37 q14 0 21 -1 q11 0 18 -4 q10 -3 16 -12 q5 -8 5 -21 q0 -19 -12 -30 q-11 -11 -30 -11 q-13 0 -20 4 q-10 6 -14 10 q-5 9 -8 17 q-3 9 -3 20 l-50 0 q0 -25 7 -40 q6 -17 19 -29 q13 -13 30 -19 q18 -6 40 -6 q19 0 36 6 q17 5 30 15 q14 11 22 27 q8 18 8 37 q0 22 -12 38 q-12 15 -34 20 l0 1 q18 4 27 20 q9 13 9 33 q0 17 -7 30 q-7 12 -21 23 q-11 8 -27 13 q-17 5 -31 5 q-20 0 -37 -6 q-17 -9 -28 -18 q-10 -11 -18 -29 q-5 -13 -7 -36 ZM445 255 l0 -167 l53 0 l0 258 l-42 0 q-1 -14 -10 -24 q-6 -10 -16 -17 q-12 -7 -23 -8 q-8 -2 -26 -2 l0 -40 l64 0 Z" /><glyph glyph-name="coffee" unicode="&#xe146;" d="M397 347 q-3 57 -11 86.5 q-8 29.5 -36 60.5 q-41 46 -49 88 q-8 42 21 109 q1 -6 5 -27 q4 -21 5.5 -28 q1.5 -7 6 -23.5 q4.5 -16.5 9 -24.5 q4.5 -8 12 -18 q7.5 -10 17.5 -18 q22 -17 35.5 -46.5 q13.5 -29.5 11.5 -73 q-2 -43.5 -27 -85.5 ZM322 347 q-2 30 -6.5 46 q-4.5 16 -19.5 33 q-22 24 -26.5 46.5 q-4.5 22.5 11.5 58.5 q1 -4 3 -17.5 q2 -13.5 3.5 -18 q1.5 -4.5 4.5 -13.5 q3 -9 7.5 -14.5 q4.5 -5.5 10.5 -10.5 q19 -14 25 -43 q6 -29 -13 -67 ZM503 31 l182 0 q8 0 10.5 -5 q2.5 -5 -2.5 -12 q-3 -4 -8.5 -10 q-5.5 -6 -23 -21.5 q-17.5 -15.5 -36 -27.5 q-18.5 -12 -46.5 -22 q-28 -10 -55 -10 l-351 0 q-27 0 -54.5 9.5 q-27.5 9.5 -47.5 22.5 q-20 13 -35.5 26.5 q-15.5 13.5 -23.5 22.5 l-8 10 q-5 7 -3 12 q2 5 10 5 l180 0 q-22 11 -42 51.5 q-20 40.5 -20 89.5 l0 150 l438 0 l0 -12 q21 18 49 18 q23 0 47.5 -20 q24.5 -20 24.5 -51 q0 -30 -14 -54 q-14 -24 -23 -30.5 q-9 -6.5 -31 -21.5 q-47 -37 -80 -80 q-18 -31 -37 -40 ZM616 301 q-33 0 -49 -39 l0 -83 q0 -19 -3 -35 q10 10 22 19 q12 9 19 13 l7 5 q48 33 48 73 q1 20 -14 33.5 q-15 13.5 -30 13.5 ZM205 289 l-28 0 l0 -41 l28 0 l0 41 ZM205 224 l-28 0 l0 -67 q0 -29 14 -64 q14 -35 51 -53 q-37 43 -37 117 l0 67 Z" /><glyph glyph-name="dark" unicode="&#xe147;" d="M312 555 l0 -7 q0 -40 -37 -40 q-36 0 -36 40 l0 7 q0 39 36 39 q37 0 37 -39 ZM386 523 l5 6 q22 33 52 11 q31 -22 8 -55 l-6 -5 q-23 -33 -52 -10 q-29 20 -7 53 ZM160 529 l4 -6 q22 -32 -6 -53 q-31 -23 -54 10 l-4 5 q-23 34 6 55 q30 21 54 -11 ZM165.5 417.5 q45.5 45.5 109.5 45.5 q64 0 109.5 -46 q45.5 -46 45.5 -110 q0 -64 -45.5 -109 q-45.5 -45 -109.5 -45 q-64 0 -109.5 45 q-45.5 45 -45.5 109 q0 65 45.5 110.5 ZM51 419 l7 -2 q37 -11 27 -47 q-12 -35 -49 -23 l-7 2 q-37 12 -27 47 q12 35 49 23 ZM492 417 l7 2 q39 12 49 -23 q10 -36 -27 -47 l-6 -2 q-39 -12 -49 23 q-12 35 26 47 ZM275 221 q35 0 60.5 25.5 q25.5 25.5 25.5 60.5 q0 36 -25.5 61.5 q-25.5 25.5 -60.5 25.5 q-36 0 -61.5 -25.5 q-25.5 -25.5 -25.5 -61.5 q0 -35 25.5 -60.5 q25.5 -25.5 61.5 -25.5 ZM29 266 l7 2 q38 12 49 -22 q10 -36 -27 -47 l-7 -2 q-38 -12 -49 22 q-10 35 27 47 ZM515 268 l6 -2 q37 -11 27 -47 q-10 -34 -49 -22 l-7 2 q-38 12 -26 47 q10 34 49 22 ZM100 129 l4 6 q22 32 54 10 q28 -21 6 -53 l-4 -6 q-22 -32 -54 -10 q-28 21 -6 53 ZM445 135 l6 -6 q22 -32 -8 -53 q-30 -22 -52 10 l-5 6 q-22 33 7 53 q30 22 52 -10 ZM312 68 l0 -8 q0 -40 -37 -40 q-36 0 -36 40 l0 8 q0 40 36 40 q37 0 37 -40 Z" /><glyph glyph-name="eraser" unicode="&#xe148;" d="M68 378 l254 254 q17 17 40.5 17 q23.5 0 40.5 -17 l246 -246 q17 -17 17 -41 q0 -24 -17 -41 l-254 -254 q-67 -68 -163 -68 q-96 0 -164 68 q-68 68 -68 164 q0 96 68 164 ZM354 91 l-245 246 q-51 -51 -51 -123 q0 -72 51 -123 q51 -51 122.5 -51 q71.5 0 122.5 51 Z" /><glyph glyph-name="grayscale" unicode="&#xe149;" d="M0 8 l0 598 l768 0 l0 -598 l-768 0 ZM383 122 l0 -63 l64 0 l0 63 l65 0 l0 61 l-65 0 l0 63 l65 0 l0 61 l-65 0 l0 62 l65 0 l0 61 l-65 0 l0 63 l65 0 l0 62 l-65 0 l0 -62 l-64 0 l0 62 l-65 0 l0 -62 l-62 0 l0 62 l-205 0 l0 -496 l267 0 l0 63 l65 0 ZM383 493 l0 -63 l-65 0 l0 63 l65 0 ZM256 369 l0 61 l62 0 l0 -61 l-62 0 ZM447 369 l-64 0 l0 61 l64 0 l0 -61 ZM318 369 l65 0 l0 -62 l-65 0 l0 62 ZM256 246 l0 61 l62 0 l0 -61 l-62 0 ZM447 246 l-64 0 l0 61 l64 0 l0 -61 ZM318 183 l0 63 l65 0 l0 -63 l-65 0 ZM256 122 l0 61 l62 0 l0 -61 l-62 0 ZM383 183 l64 0 l0 -61 l-64 0 l0 61 Z" /><glyph glyph-name="ink" unicode="&#xe14a;" d="M500 340 q-3 4 -7.5 11 q-4.5 7 -12 18 q-7.5 11 -13.5 19 q-38 52 -52 74 q-46 74 -56 93 q-29 58 -43 104 q-5 17 -17 25 q-12 8 -28 6 q-13 2 -27 -6 q-13 -8 -18 -25 q-14 -46 -43 -104 q-15 -31 -54 -93 q-10 -15 -27.5 -39.5 q-17.5 -24.5 -24.5 -34.5 q-11 -15 -34 -48 q-22 -34 -32 -68 q-11 -39 -11 -77 q0 -54 22 -106 q19 -49 57 -87 q39 -38 87 -58 q50 -21 105 -21 q56 0 107 21 q49 21 86 58 q38 38 57 87 q22 52 22 106 q0 34 -12 77 q-11 37 -31 68 ZM186 67 q-29 0 -47 19 q-20 20 -20 48 q0 20 11 37 q1 1 3.5 4.5 q2.5 3.5 4.5 6.5 q11 14 14 19 q5 7 13 23 q8 15 10 26 q3 11 11 8 q11 2 12 -8 q8 -21 11 -26 q1 -2 13 -23 q10 -14 14 -19 q2 -2 4.5 -6 q2.5 -4 3.5 -5 q11 -16 11 -37 q0 -27 -21 -48 q-18 -19 -48 -19 Z" /><glyph glyph-name="invert" unicode="&#xe14b;" d="M0 606 l768 0 l0 -598 l-768 0 l0 598 ZM384 59 l0 71 l177 177 l-177 177 l0 71 l-333 0 l0 -496 l333 0 ZM384 130 l-177 177 l177 177 l0 -354 Z" /><glyph glyph-name="light" unicode="&#xe14c;" d="M380 627 l0 -79 q0 -40 -37 -40 q-37 0 -37 40 l0 79 q0 39 37 39 q37 0 37 -39 ZM455 523 l46 65 q24 32 53 10 q28 -21 6 -54 l-46 -64 q-22 -32 -53 -10 q-28 21 -6 53 ZM185 587 l47 -64 q22 -33 -7 -53 q-29 -23 -52 10 l-47 64 q-22 33 7 53 q29 23 52 -10 ZM232.5 417.5 q45.5 45.5 110.5 45.5 q65 0 110.5 -45.5 q45.5 -45.5 45.5 -110.5 q0 -64 -45.5 -109 q-45.5 -45 -110.5 -45 q-65 0 -110.5 45 q-45.5 45 -45.5 109 q0 65 45.5 110.5 ZM51 441 l76 -24 q38 -12 26 -47 q-10 -35 -50 -23 l-74 24 q-37 12 -27 48 q12 34 49 22 ZM560 417 l75 24 q39 12 49 -22 q12 -36 -27 -47 l-74 -25 q-37 -12 -49 23 q-10 35 26 47 ZM282 246.5 q25 -25.5 61 -25.5 q36 0 61.5 25.5 q25.5 25.5 25.5 60.5 q0 36 -25.5 61.5 q-25.5 25.5 -61.5 25.5 q-36 0 -61 -25.5 q-25 -25.5 -25 -61.5 q0 -35 25 -60.5 ZM29 244 l75 24 q39 12 49 -22 q12 -35 -26 -47 l-76 -25 q-37 -12 -49 23 q-10 35 27 47 ZM583 268 l75 -24 q38 -12 26 -47 q-10 -35 -49 -23 l-75 25 q-36 11 -26 47 q11 34 49 22 ZM126 72 l47 63 q23 33 52 10 q29 -20 7 -53 l-47 -63 q-23 -33 -53 -12 q-29 21 -6 55 ZM514 135 l46 -63 q23 -34 -6 -55 q-29 -21 -53 11 l-46 64 q-22 32 6 53 q31 22 53 -10 ZM380 68 l0 -79 q0 -40 -37 -40 q-37 0 -37 40 l0 79 q0 40 37 40 q37 0 37 -40 Z" /><glyph glyph-name="palette" unicode="&#xe033;" d="M767 506 q11 38 -65.5 84.5 q-76.5 46.5 -161.5 50.5 q-68 3 -139 -9.5 q-71 -12.5 -140 -41.5 q-69 -29 -124 -71.5 q-55 -42.5 -92 -105.5 q-37 -63 -44 -137 q-5 -59 14.5 -111 q19.5 -52 56 -88 q36.5 -36 84 -62 q47.5 -26 97.5 -38.5 q50 -12.5 98 -12.5 q109 0 208.5 65 q99.5 65 113.5 122 q5 22 -15.5 38 q-20.5 16 -48.5 25.5 q-28 9.5 -50 33.5 q-22 24 -18 60 q4 43 27 72 q23 29 53.5 43.5 q30.5 14.5 61 25 q30.5 10.5 54.5 24 q24 13.5 30 33.5 ZM518 573 q13 -13 13 -32 q0 -19 -13 -32.5 q-13 -13.5 -32 -13.5 q-20 0 -33 13.5 q-13 13.5 -13 32.5 q0 19 13.5 32 q13.5 13 32.5 13 q19 0 32 -13 ZM407 517 q0 -21 -14.5 -35.5 q-14.5 -14.5 -34.5 -14.5 q-20 0 -34.5 14.5 q-14.5 14.5 -14.5 35.5 q0 20 14.5 34 q14.5 14 34.5 14 q20 0 34.5 -14 q14.5 -14 14.5 -34 ZM288 452 q0 -22 -14.5 -37 q-14.5 -15 -36.5 -15 q-21 0 -36 15 q-15 15 -15 37 q0 20 15 34.5 q15 14.5 36 14.5 q22 0 36.5 -14.5 q14.5 -14.5 14.5 -34.5 ZM188 338 q0 -22 -15.5 -37.5 q-15.5 -15.5 -37.5 -15.5 q-23 0 -39 15.5 q-16 15.5 -16 37.5 q0 23 16 39 q16 16 39 16 q22 0 37.5 -16 q15.5 -16 15.5 -39 ZM463 146 q0 -28 -21 -48.5 q-21 -20.5 -50 -20.5 q-28 0 -48.5 20.5 q-20.5 20.5 -20.5 48.5 q0 29 20.5 50.5 q20.5 21.5 48.5 21.5 q29 0 50 -21.5 q21 -21.5 21 -50.5 Z" /><glyph glyph-name="refreshbutton" unicode="&#xe14d;" d="M105 561 q105 105 253 105 q148 0 253.5 -105 q105.5 -105 105.5 -254 q0 -148 -105 -253 q-105 -105 -254 -105 q-148 0 -253 104.5 q-105 104.5 -105 253.5 q0 149 105 254 ZM198 298 l-69 0 q0 -96 67 -165 q67 -67 162.5 -67 q95.5 0 162.5 67 q67 67 67 162.5 q0 95.5 -67 162.5 q-63 61 -148 66 l0 77 l-175 -114 l175 -113 l0 82 q58 -5 99 -46 q47 -46 47 -114 q0 -68 -47 -114 q-46 -47 -113 -47 q-67 0 -114 47 q-49 46 -47 116 Z" /><glyph glyph-name="sepia" unicode="&#xe14e;" d="M49 257 q-41 -32 -28 -64 q13 -32 54 -34 q39 -3 64 -26 q25 -23 16 -53 q-9 -28 -8.5 -49 q0.5 -21 10.5 -34 q10 -13 36.5 -10.5 q26.5 2.5 67.5 23.5 q11 6 32 20.5 q21 14.5 33 19.5 q12 5 30 5 q18 0 36.5 -18.5 q18.5 -18.5 40.5 -56.5 q21 -37 58.5 -38.5 q37.5 -1.5 63.5 28.5 q26 30 19 72 q-5 33 17 54.5 q22 21.5 84 39.5 q54 16 76.5 46 q22.5 30 15.5 61 q-7 31 -29 58 q-22 27 -51 39 q-54 23 -68.5 62.5 q-14.5 39.5 8.5 80.5 q13 27 -3 58.5 q-16 31.5 -46 40.5 q-30 9 -64 -16 q-24 -21 -52.5 -20.5 q-28.5 0.5 -46.5 12 q-18 11.5 -19 20.5 q-2 28 -33 60 q-31 32 -57 -26 q-4 -12 -7.5 -33.5 q-3.5 -21.5 -6 -35 q-2.5 -13.5 -12.5 -26.5 q-10 -13 -26.5 -13.5 q-16.5 -0.5 -49 11 q-32.5 11.5 -79.5 38.5 q-62 36 -101 -3 q-33 -34 -21 -87 q12 -59 73 -88 q30 -15 33.5 -35.5 q3.5 -20.5 -12.5 -40.5 q-16 -20 -48 -42 Z" /><glyph glyph-name="download" unicode="&#xe14f;" d="M586 383 l-129 0 l0 211 q0 14 -9.5 23.5 q-9.5 9.5 -23.5 9.5 l-129 0 q-14 0 -24 -9.5 q-10 -9.5 -10 -23.5 l0 -211 l-129 0 q-13 0 -16.5 -7 q-3.5 -7 6.5 -17 l214 -213 q9 -9 23 -9 q15 0 24 9 l213 213 q9 10 6 17 q-3 7 -16 7 ZM0 232 l0 -228 q0 -16 16 -16 l684 0 q17 0 17 16 l0 228 q0 7 -5 12 q-5 5 -12 5 l-65 0 q-7 0 -12 -5 q-5 -5 -5 -12 l0 -145 l-520 0 l0 145 q0 17 -16 17 l-66 0 q-7 0 -11.5 -5 q-4.5 -5 -4.5 -12 Z" /><glyph glyph-name="windows" unicode="&#xe151;" d="M444 572 l-73 -253 q-9 6 -24.5 15.5 q-15.5 9.5 -54 24.5 q-38.5 15 -65.5 12 q-27 -3 -62 -12 q-35 -9 -57 -17 l-22 -7 l74 255 q6 3 17 8 q11 5 44.5 14 q33.5 9 66 10 q32.5 1 76 -10.5 q43.5 -11.5 80.5 -39.5 ZM410 295 l73 251 q62 -42 124 -50 q28 -3 68.5 5 q40.5 8 66.5 18 l26 10 l-73 -253 q-1 0 -10.5 -4.5 q-9.5 -4.5 -20.5 -8.5 q-11 -4 -27 -8.5 q-16 -4.5 -37.5 -8.5 q-21.5 -4 -45.5 -5 q-38 -2 -74 11.5 q-36 13.5 -53 27.5 l-17 15 ZM0 36 l73 255 q9 4 24.5 10.5 q15.5 6.5 55.5 15.5 q40 9 71 7 q77 -5 134 -51 l-73 -255 q-9 6 -25 15 q-16 9 -53.5 23 q-37.5 14 -63.5 12 q-95 -8 -143 -32 ZM324 -4 l73 253 q9 -6 23 -14.5 q14 -8.5 48.5 -22 q34.5 -13.5 57.5 -12.5 q80 2 155 31 l1 0 l-73 -251 q-9 -4 -24.5 -10.5 q-15.5 -6.5 -56 -16 q-40.5 -9.5 -73.5 -7.5 q-32 1 -61 12 q-29 11 -48.5 24 q-19.5 13 -21.5 14 Z" /><glyph glyph-name="emphasis" unicode="&#xe152;" d="M525 111 q34 -4 35 -4 q-3 -30 -16 -72 q-13 -42 -24 -60 q-102 2 -222 2 l-125 0 q-29 0 -173 -2 l0 29 l53 5 q34 5 41.5 18 q7.5 13 7.5 69 l0 308 q0 55 -7.5 68.5 q-7.5 13.5 -41.5 19.5 l-30 4 l0 29 q68 -3 147 -3 l203 0 q110 0 129 3 q0 -5 2 -24.5 q2 -19.5 5 -49.5 q3 -30 5 -53 l-36 -4 q-16 47 -36 65 q-30 25 -94 25 l-77 0 q-23 0 -27 -4 q-4 -4 -4 -28 l0 -144 q0 -18 4 -21.5 q4 -3.5 23 -3.5 l66 0 q38 0 51 8 q13 8 20 37 l5 21 q35 0 35 -1 q-3 -39 -3 -87 q0 -49 3 -88 q0 -1 -35 -1 l-5 21 q-7 29 -20 37.5 q-13 8.5 -51 8.5 l-66 0 q-19 0 -23 -3.5 q-4 -3.5 -4 -22.5 l0 -98 q0 -59 15 -78 q10 -12 30.5 -17 q20.5 -5 70.5 -5 q69 0 100.5 15.5 q31.5 15.5 68.5 80.5 ZM319.5 585.5 q20.5 20.5 20.5 49.5 q0 29 -20.5 49.5 q-20.5 20.5 -49.5 20.5 q-29 0 -49.5 -20.5 q-20.5 -20.5 -20.5 -49.5 q0 -29 21 -49.5 q21 -20.5 49 -20.5 q29 0 49.5 20.5 Z" /><glyph glyph-name="gree" unicode="&#xe153;" d="M0 122 l309 -172 l309 172 l0 356 l-309 172 l-309 -172 l0 -356 Z" /><glyph glyph-name="gumroad" unicode="&#xe154;" d="M85 88 l0 382 q0 15 14 29 q14 14 28 14 l310 0 q24 -43 73 -43 q35 0 60 25 q25 25 25 60 q0 36 -25 60.5 q-25 24.5 -60 24.5 q-49 0 -73 -42 l-310 0 q-47 0 -88 -39 q-39 -39 -39 -89 l0 -382 q0 -50 39 -89 q41 -39 88 -39 l341 0 q47 0 88 39 q39 39 39 89 l0 212 q0 55 -40 92 q-38 36 -87 36 l-170 0 q-53 0 -91 -40 q-37 -39 -37 -88 l0 -42 q0 -51 39 -88 q40 -40 89 -40 l11 0 q25 -42 74 -42 q35 0 60 25 q25 25 25 60 q0 35 -25 60 q-25 25 -60 25 q-49 0 -74 -43 l-11 0 q-15 0 -29 14.5 q-14 14.5 -14 28.5 l0 42 q0 16 13 29.5 q13 13.5 30 13.5 l170 0 q15 0 28.5 -13 q13.5 -13 13.5 -30 l0 -212 q0 -14 -14 -28.5 q-14 -14.5 -28 -14.5 l-341 0 q-14 0 -28 14.5 q-14 14.5 -14 28.5 Z" /><glyph glyph-name="instagram" unicode="&#xe155;" d="M680 365 l0 207 q0 28 -20 48 q-20 20 -48 20 l-544 0 q-28 0 -48 -20 q-20 -20 -20 -48 l0 -207 l165 0 q20 54 68 88 q48 34 107 34 q59 0 107 -34 q48 -34 68 -88 l165 0 ZM680 305 l-153 0 l0 -5 q0 -77 -55 -132 q-55 -55 -132 -55 q-77 0 -132 55 q-55 55 -55 132 l0 5 l-153 0 l0 -277 q0 -28 20 -48 q20 -20 48 -20 l544 0 q28 0 48 20 q20 20 20 48 l0 277 ZM59 580 l34 0 l0 -156 l-34 0 l0 156 ZM127 580 l34 0 l0 -156 l-34 0 l0 156 ZM195 580 l34 0 l0 -98 q-20 -15 -34 -26 l0 124 ZM249.5 209.5 q37.5 -37.5 90.5 -37.5 q53 0 90 37.5 q37 37.5 37 90.5 q0 53 -37 90 q-37 37 -90 37 q-53 0 -90.5 -37 q-37.5 -37 -37.5 -90 q0 -53 37.5 -90.5 ZM459 580 l161 0 l0 -156 l-108 0 q-19 28 -53 52 l0 104 Z" /><glyph glyph-name="jpa" unicode="&#xe156;" d="M162 386 q-2 0 -6 2 q-1 2 -1 7 q0 6 1 7 q3 3 6 3 q4 0 5 -3 q2 -2 2 -7 q0 -3 -2 -7 q-2 -2 -5 -2 ZM269 500 q-3 0 -4 1 q-3 1 -3 7 q0 1 0.5 3 q0.5 2 0.5 3 q2 4 6 4 q3 0 5 -3 q2 -4 2 -6 q0 -3 -2 -7 q-1 -2 -5 -2 ZM234 385 q-2 0 -3 1 q-1 1 -1 3 q0 1 2 3 q1 1 4 1 l2 1 q0 0 2 0 l1 1 l0 -3 q0 -4 -2 -6 q-1 -1 -5 -1 ZM73 396 l-11 0 l5 16 l6 -16 ZM237 507 l1 0 q0 0 1 1 q1 0 2 0 l1 0 l0 -2 q0 -4 -2 -6 q-2 -1 -5 -1 l-3 0 q0 1 0 1 l-1 2 q0 2 2 4 l1 0 q2 1 3 1 ZM272 460 q-1 -1 -4 -1 l-8 0 l0 12 l8 0 q2 0 4 -2 q2 0 2 -4 q0 -4 -2 -5 ZM299 461 q3 0 5 -1 q2 -2 2 -5 l-14 0 q0 3 2 5 q1 1 5 1 ZM299 405 q3 0 5 -3 q2 -2 2 -7 q0 -3 -2 -7 q-2 -2 -5 -2 q-4 0 -6 2 q-2 4 -2 7 q0 5 2 7 q1 3 6 3 ZM374 542 l868 0 q127 0 216 -78.5 q89 -78.5 89 -188.5 l0 -325 l-1122 0 q-126 0 -215.5 78 q-89.5 78 -89.5 188 l0 98 q-53 20 -86.5 63.5 q-33.5 43.5 -33.5 97.5 q0 73 57 124 q57 51 137 51 q60 0 109 -30 q49 -30 71 -78 ZM325 524 l-7 0 l0 -30 l8 0 l0 16 l0 5 q2 3 6 3 q2 0 4 -2 q1 -1 1 -4 l0 -18 l8 0 l0 20 q0 6 -3 8 q-3 3 -8 3 q-2 0 -6 -2 l-3 -3 l0 4 ZM336 402 q1 -1 1 -3 l0 -19 l8 0 l0 21 q0 5 -3 8 q-4 2 -8 2 q-4 0 -6 -2 l-3 -3 l0 4 l-7 0 l0 -30 l8 0 l0 17 l0 4 q2 4 6 4 q2 0 4 -3 ZM337 478 l0 -41 l8 0 l0 41 l-8 0 ZM324 467 l-7 0 l0 -30 l8 0 l0 14 q0 5 1 6 q2 3 6 3 l1 0 l1 0 l0 8 l-1 0 q-2 0 -6 -2 l-1 -2 q-2 -1 -2 -2 l0 5 ZM303 518 q2 -2 2 -3 q0 -2 -2 -2 q-1 0 -3 -1 l-3 0 q-1 0 -3.5 -0.5 q-2.5 -0.5 -3.5 -1.5 q-4 -3 -4 -8 q0 -4 3 -7 q2 -2 6 -2 q5 0 6 1 q2 1 4 3 l0 -2 q0 -1 1 -1 l8 0 l0 1 q-1 0 -1 1 l0 2 l0 3 l0 14 q0 4 -4 8 q-6 2 -9 2 q-7 0 -11 -4 q-2 -4 -2 -7 l8 0 q0 2 1 3 q0 1 4 1 l3 0 ZM295 443 q-3 3 -3 7 l22 0 l0 6 q0 0 -3 6 q-2 3 -5 5 q-2 1 -7 1 q-7 0 -11 -4 q-4 -4 -4 -12 q0 -9 5 -12 q4 -4 10 -4 q8 0 12 4 l3 6 l-8 0 l-2 -2 q-2 -2 -4 -2 q-1 0 -3 0 l-2 1 ZM310 384 q4 4 4 11 q0 7 -4 12 q-3 4 -11 4 q-9 0 -12 -4 q-4 -5 -4 -12 q0 -7 4 -11 q3 -5 12 -5 q8 0 11 5 ZM262 524 l-7 0 l0 -42 l8 0 l0 16 q0 -3 2 -3 q4 -2 6 -2 q6 0 10 4 q3 5 3 12 q0 8 -4 12 q-4 4 -9 4 q-2 0 -6 -2 l-3 -3 l0 4 ZM269 478 l-17 0 l0 -41 l8 0 l0 15 l9 0 q7 0 10 3 q4 4 4 10 q0 6 -4 10 q-3 3 -10 3 ZM271 421 l0 -7 l8 0 l0 7 l-8 0 ZM279 380 l0 30 l-8 0 l0 -30 l8 0 ZM264 386 q-1 1 -1 3 l0 15 l5 0 l0 6 l-5 0 l0 9 l-8 0 l0 -9 l-4 0 l0 -6 l4 0 l0 -18 q0 -2 2 -4 q1 -2 7 -2 l4 0 l0 6 l-1 0 l-1 0 l-2 0 ZM241 518 q1 -1 1 -3 q0 -2 -2 -2 q-1 -1 -3 -1 l-2 0 l-7 -2 q-5 -3 -5 -8 q0 -4 3 -7 q4 -2 7 -2 q4 0 6 1 l3 3 q0 -1 1 -2 l0 -1 l9 0 l0 1 q-1 0 -1 1 q-1 0 -1 2 l0 3 l0 14 q0 5 -4 8 q-4 2 -9 2 q-5 0 -11 -4 q-2 -4 -2 -7 l8 0 q0 2 1 3 q1 1 4 1 l4 0 ZM227 396 q-5 -2 -5 -8 q0 -4 3 -6 q3 -3 7 -3 q2 0 6 2 q2 2 4 3 l0 -2 l0 -2 l9 0 l0 1 l-1 1 q-1 1 -1 2 l0 4 l0 14 q0 6 -4 7 q-4 2 -9 2 q-7 0 -10 -4 l-3 -6 l8 0 l1 2 q2 2 4 2 q3 0 4 -1 q1 0 1 -3 q0 -1 -1 -2 l-4 0 l-2 -1 q-5 0 -7 -2 ZM202 509 l-9 0 l0 -1 q0 -6 3 -11 q3 -4 11 -4 q7 0 10 5 q2 2 2 8 l0 29 l-8 0 l0 -29 q0 -1 -1 -2 l0 -2 q-1 -2 -4 -2 q-3 0 -3 2 q-1 1 -1 6 l0 1 ZM211 421 l0 -7 l8 0 l0 7 l-8 0 ZM219 380 l0 30 l-8 0 l0 -30 l8 0 ZM183 407 q-4 -6 -4 -12 q0 -6 4 -12 q4 -4 11 -4 q6 0 11 5 q2 4 2 7 l-8 0 q0 -1 -0.5 -2 q-0.5 -1 -0.5 -2 q-1 -1 -4 -1 q-5 0 -6 4 l0 5 l0 5 q1 4 6 4 q3 0 4 -1 q1 -1 1 -3 l8 0 q0 5 -4 9 q-4 2 -9 2 q-7 0 -11 -4 ZM150 407 q-4 -8 -4 -12 q0 -5 4 -11 q5 -5 12 -5 q8 0 11 5 q4 4 4 11 q0 7 -4 12 q-3 4 -11 4 q-8 0 -12 -4 ZM75 389 l2 -9 l10 0 l-15 41 l-9 0 l-15 -41 l9 0 l3 9 l15 0 ZM112 382 q3 3 3 7 q0 2 -2 6 q-6 3 -7 3 q-8 2 -9 3 q-1 0 -1 2 q0 1 1 1 q1 1 4 1 q3 0 4 -1 q1 -1 1 -3 l8 0 q0 4 -4 8 q-2 2 -9 2 q-5 0 -10 -3 q-3 -3 -3 -7 q0 -3 2 -5 q3 -3 8 -4 l8 -2 q1 0 1 -2 l-1 -2 q-1 -1 -4 -1 q-4 0 -6 2 q-1 1 -1 3 l-8 0 q0 -5 4 -8 q3 -3 10 -3 q6 0 11 3 ZM141 382 q4 4 4 7 q0 3 -3 6 q-3 3 -7 3 q-6 1 -8 3 q-1 0 -1 2 q0 1 1 1 q1 1 3 1 q4 0 5 -1 l1 -1 q0 -1 0 -2 l8 0 q-1 5 -4 8 q-3 2 -10 2 q-6 0 -9 -3 q-3 -3 -3 -7 q0 -3 2 -5 q1 -2 7 -4 l8 -2 q2 0 2 -2 q0 -2 -2 -2 q-1 -1 -4 -1 q-3 0 -5 2 q-1 0 -1 3 l-8 0 q0 -5 3 -8 q4 -3 11 -3 q7 0 10 3 ZM425 -25 l1097 0 l0 300 q0 100 -82 171 q-82 71 -198 71 l-859 0 q6 -19 6 -42 q0 -72 -57 -123.5 q-57 -51.5 -138 -51.5 q-25 0 -49 6 l0 -90 q0 -100 82 -170.5 q82 -70.5 198 -70.5 ZM299 507 l2 0 l2 1 l2 0 l0 -2 q0 -4 -3 -6 q-1 -1 -4 -1 l-3 0 q-1 1 -1 3 q0 3 2 4 q2 1 3 1 ZM1153 475 l69 0 q104 0 177.5 -60.5 q73.5 -60.5 73.5 -146.5 l0 -254 l-64 0 l0 244 q0 64 -59.5 110 q-59.5 46 -142.5 46 l-54 0 l0 -166 l192 0 l0 -64 l-192 0 l0 -170 l-64 0 l0 461 l64 0 ZM459 75 l55 0 l0 400 l64 0 l0 -461 l-64 0 l-70 0 q-104 0 -177.5 61 q-73.5 61 -73.5 147 l0 22 l67 0 l0 -17 q0 -63 58.5 -107.5 q58.5 -44.5 140.5 -44.5 ZM704 475 l144 0 q85 0 141 -64 q41 -49 41 -110 q0 -61 -41 -110 q-56 -64 -141 -64 l-80 0 l0 18 l0 46 l62 0 l26 0 q44 5 73.5 36 q29.5 31 29.5 74 q0 43 -29.5 74 q-29.5 31 -73.5 36 l-26 0 l-123 0 l-3 0 l0 -4 l0 -212 l0 -4 l0 -64 l0 -113 l-64 0 l0 113 l0 64 l0 220 l0 64 l64 0 Z" /><glyph glyph-name="mobage" unicode="&#xe158;" d="M654 418 q32 40 41.5 80.5 q9.5 40.5 0.5 70 q-9 29.5 -23 53.5 q-14 24 -27 36 l-14 12 q1 -4 3 -11.5 q2 -7.5 3 -28 q1 -20.5 -3 -38.5 q-4 -18 -18.5 -38 q-14.5 -20 -39.5 -31 q-97 91 -234 91 q-142 0 -242.5 -100 q-100.5 -100 -100.5 -241 q0 -142 100.5 -242.5 q100.5 -100.5 242.5 -100.5 q143 0 243.5 100.5 q100.5 100.5 100.5 242.5 q0 76 -33 145 ZM556 212 q-21 -70 -79.5 -114.5 q-58.5 -44.5 -133.5 -44.5 q-91 0 -155.5 64.5 q-64.5 64.5 -64.5 155.5 q0 73 44 131 q44 58 113 79 q-9 -30 -9 -62 q0 -91 64.5 -155 q64.5 -64 155.5 -64 q35 0 65 10 Z" /><glyph glyph-name="strike" unicode="&#xe159;" d="M0 331 l700 0 l0 -62 l-700 0 l0 62 ZM370 395 l64 -34 l-255 0 q-29 43 -29 97 q-1 88 63 141.5 q64 53.5 174 53.5 q61 0 116 -16 q15 -5 35 -8 q18 -52 18 -146 q-39 -3 -40 -3 q-16 49 -50.5 87.5 q-34.5 38.5 -83.5 38.5 q-49 0 -76.5 -27.5 q-27.5 -27.5 -27.5 -67.5 q0 -67 92 -116 ZM443 97 q0 81 -102 142 l223 0 q18 -39 18 -85 q0 -94 -70.5 -150.5 q-70.5 -56.5 -187.5 -56.5 q-106 0 -173 38 q-15 17 -24 64.5 q-9 47.5 -9 101.5 l39 3 q17 -58 66.5 -109 q49.5 -51 109.5 -51 q53 0 81.5 30.5 q28.5 30.5 28.5 72.5 Z" /><glyph glyph-name="yapcasia" unicode="&#xe15a;" d="M65 -47 l6 0 l0 45 l12 0 l0 6 l-30 0 l0 -6 l12 0 l0 -45 ZM162.5 -40.5 q7.5 7.5 7.5 18.5 q0 11 -7.5 19 q-7.5 8 -18.5 8 q-11 0 -18.5 -8 q-7.5 -8 -7.5 -19 q0 -11 7.5 -18.5 q7.5 -7.5 18.5 -7.5 q11 0 18.5 7.5 ZM164 -22 q0 -8 -6 -14 q-6 -6 -14 -6 q-8 0 -14 6 q-6 6 -6 14 q0 9 5.5 15 q5.5 6 14.5 6 q9 0 14.5 -6 q5.5 -6 5.5 -15 ZM245 4 l-8 0 l-21 -22 l0 22 l-7 0 l0 -51 l7 0 l0 21 l2 3 l19 -24 l8 0 l-22 28 l22 23 ZM285 4 l-8 0 l17 -29 l0 -22 l6 0 l0 22 l16 29 l-7 0 l-12 -22 l-12 22 ZM395.5 -40.5 q7.5 7.5 7.5 18.5 q0 11 -7.5 19 q-7.5 8 -18.5 8 q-11 0 -19 -8 q-8 -8 -8 -19 q0 -11 8 -18.5 q8 -7.5 19 -7.5 q11 0 18.5 7.5 ZM391 -7.5 q6 -6.5 6 -14.5 q0 -8 -6 -14 q-6 -6 -14 -6 q-8 0 -14 6 q-6 6 -6 14 q0 9 5.5 15 q5.5 6 14.5 6 q8 0 14 -6.5 ZM506 -47 l0 6 l-20 0 l17 20 q3 5 3 10 q0 7 -4.5 11.5 q-4.5 4.5 -10.5 4.5 q-14 0 -16 -15 l6 0 q0 9 10 9 q9 0 9 -10 q0 -3 -4 -9 l-22 -27 l32 0 ZM588.5 -40.5 q7.5 7.5 7.5 18.5 q0 11 -7.5 19 q-7.5 8 -18.5 8 q-11 0 -18.5 -8 q-7.5 -8 -7.5 -19 q0 -11 7.5 -18.5 q7.5 -7.5 18.5 -7.5 q11 0 18.5 7.5 ZM590 -22 q0 -8 -6 -14 q-6 -6 -14 -6 q-8 0 -14 6 q-6 6 -6 14 q0 9 5.5 15 q5.5 6 14.5 6 q9 0 14.5 -6 q5.5 -6 5.5 -15 ZM639 4 l-4 -6 l9 0 l0 -45 l6 0 l0 51 l-11 0 ZM731 -47 l0 6 l-20 0 l17 20 q3 5 3 10 q0 16 -16 16 q-13 0 -15 -15 l6 0 q0 9 9 9 q10 0 10 -10 q0 -3 -4 -9 l-22 -27 l32 0 ZM497 97 l-22 0 l11 33 l11 -33 ZM795 78 q5 -5 5 -14 q0 -9 -6 -14 q-5 -5 -14 -5 l-23 0 q-11 2 -14 5 q-3 2 -3 3 l-3 -3 q-6 -5 -14 -5 l-20 0 q-6 0 -13 4 q-5 -4 -12 -4 l-45 0 q-9 0 -15 5 l-1 1 q-1 1 -1 2 q-13 -10 -33 -10 q-10 0 -14 1 q-2 0 -4 0.5 q-2 0.5 -3 0.5 q-4 -2 -10 -2 q-8 0 -14 5 q-6 -3 -12 -3 l-23 0 q-11 3 -14 5 l-3 3 l-3 -3 q-5 -5 -14 -5 l-20 0 q-11 2 -14 5 q-5 5 -6 10 q-6 -2 -9 -2 q-9 0 -18 7 l-1 0 q-9 -7 -18 -7 l-1 0 q-8 0 -15 5 q0 0 -1 -2 q-2 -2 -3 -3 q-5 -5 -12 -8 q-13 -7 -31 -7 l-1 0 q-24 0 -39 17 q-11 11 -14 27 q-10 -7 -26 -9 q6 -5 6 -14 q0 -9 -6 -14 q-5 -5 -14 -5 l-26 0 q-6 0 -13 4 q-5 -4 -12 -4 l-23 0 q-11 2 -14 5 q-3 2 -3 3 q0 0 -3 -3 q-6 -5 -15 -5 l-19 0 q-11 2 -14 4 q-5 -4 -13 -4 l-40 0 q-8 0 -14 5 q-5 5 -5 14 q0 9 5 14 q6 5 14 5 l0 4 l-18 33 q-6 2 -8 5 q-5 5 -5 13 q0 9 6 14 q5 5 14 5 l20 0 q7 0 12 -4 q5 4 13 4 l17 0 q9 0 14 -5 l1 0 l1 0 q5 5 14 5 l29 0 q7 0 12 -4 q6 -6 7 -10 q0 -1 1 -1 l21 -60 q5 -2 5 -3 q1 1 1 1 q2 0 2 1 l0 41 q-2 0 -5 3 q-5 5 -5 13 q0 9 6 14 q5 5 14 5 l32 0 q22 0 34 -9 q6 -4 9 -11 q1 1 2.5 3 q1.5 2 2.5 3 q15 17 39 17 q4 0 14 -2 q2 0 6 -2 l0 1 q5 3 10 3 q7 0 13 -6 q4 -5 4 -11 q8 6 17 6 q11 0 18 -7 l1 0 q7 7 18 7 q12 0 19 -7 q1 -1 5 -7 l0 3 q0 9 5 14 q6 5 15 5 l28 0 q8 0 12 -4 q5 -4 8 -10 l0 -1 l21 -58 q0 6 5 11 q1 1 4 3 q-7 8 -7 22 q0 18 13 29 q14 11 32 11 q5 0 13 -2 q1 0 2.5 -0.5 q1.5 -0.5 2.5 -0.5 q6 3 10 3 q9 -2 13 -6 q6 3 12 3 l45 0 q9 0 15 -5 q3 -2 5 -9 q0 6 5 9 q6 5 14 5 l29 0 q8 0 12 -4 q6 -4 7 -10 l1 -1 l21 -60 q6 -2 8 -4 ZM71 56 q6 0 8 2 q2 2 2 6 q0 3 -2 7 q-2 1 -8 1 l-10 0 l0 19 l21 39 l1 0 q4 0 6 2 q3 2 3 6 q0 6 -3 7 q-2 2 -7 2 l-17 0 q-5 0 -7 -2 q-2 -2 -2 -7 q0 -4 2 -6 q2 -2 5 -2 l1 0 l-12 -25 l-12 25 l1 0 q2 0 6 2 q1 1 1 6 q0 6 -2 7 q-2 2 -6 2 l-20 0 q-4 0 -8 -2 q-2 -2 -2 -7 q0 -4 2 -6 q4 -2 6 -2 l2 0 l22 -41 l0 -17 l-11 0 q-6 0 -7 -1 q-2 -4 -2 -7 q0 -4 2 -6 q2 -2 7 -2 l40 0 ZM72 89 l0 -6 q7 0 12 -4 l6 3 l14 39 q-3 0 -6 3 l-1 1 q-2 -2 -8 -5 l-17 -31 ZM182 58 q3 2 3 6 q0 4 -2 6 q-2 2 -7 2 l-1 0 l-24 67 q-3 8 -10 8 l-29 0 q-5 0 -7 -2 q-3 -1 -3 -7 q0 -4 3 -6 q2 -2 7 -2 l6 0 l-20 -58 l-2 0 q-5 0 -6 -2 q-2 -2 -2 -6 q0 -4 2 -6 q2 -2 8 -2 l19 0 q6 0 8 2 q2 2 2 6 q0 3 -2 7 q-2 1 -8 1 l-2 0 l3 9 l33 0 l3 -9 l-2 0 q-6 0 -8 -1 q-2 -4 -2 -7 q0 -4 2 -6 q2 -2 8 -2 l23 0 q6 0 7 2 ZM260 96 q10 7 10 22 q0 15 -10 22 q-11 7 -28 7 l-32 0 q-5 0 -7 -2 q-3 -3 -3 -7 q0 -4 3 -6 q2 -2 6 -2 l1 0 l0 -58 l-1 0 q-5 0 -7 -2 q-2 -2 -2 -6 q0 -4 3 -6 q1 -2 7 -2 l26 0 q6 0 8 2 q2 2 2 6 q0 3 -2 7 q-2 1 -8 1 l-7 0 l0 16 l13 0 q18 0 28 8 ZM409 135 q-5 -5 -5 -11 q0 -7 5 -10 q4 -4 11 -4 q8 0 12 4 q4 3 4 10 q0 7 -4 11 q-6 4 -12 4 q-5 0 -11 -4 ZM371 135 q-4 -4 -4 -11 q0 -7 4 -10 q4 -4 12 -4 q7 0 11 4 q5 3 5 10 q0 6 -5 11 q-6 4 -11 4 q-6 0 -12 -4 ZM320 53 q15 0 27 6 q12 6 12 13 q0 4 -2 6 q-3 3 -5 3 q-2 0 -13 -6 q-10 -5 -17 -5 q-11 0 -19 8 q-6 9 -6 23 q0 15 6 23 q5 8 18 8 q9 0 13 -3 q5 -5 6 -10 q2 -5 3 -6 q1 -1 5 -1 q5 0 6 1 q2 4 2 8 l0 20 q0 4 -2 6 q-1 2 -5 2 q-3 0 -4 -1 q-2 -2 -3 -4 q-4 2 -12 4 q-3 1 -11 1 q-19 0 -32 -13 q-12 -14 -12 -35 q0 -22 12 -34 q14 -14 33 -14 ZM364 101 q2 2 4 3 q-2 0 -4 2 l0 1 l-1 1 q-1 -1 -1 -2 q-6 -5 -14 -5 q-7 0 -12 4 q-4 4 -6 11 q-1 5 -3 5 q-2 1 -6 1 q-6 0 -10 -4 q-4 -6 -4 -17 q0 -12 4 -16 q5 -5 11 -5 q5 0 12 4 q2 1 5 3 q3 2 4 2 q6 2 9 2 q4 0 6 -1 q2 7 6 11 ZM394 73 q5 3 5 10 q0 6 -5 11 q-6 4 -11 4 q-6 0 -12 -4 q-4 -4 -4 -11 q0 -6 4 -10 q4 -4 12 -4 q7 0 11 4 ZM402 101 l3 3 q-1 0 -3 2 l-1 0 q-2 -2 -3 -2 l3 -3 l1 0 ZM432 73 q4 3 4 10 q0 7 -4 11 q-6 4 -12 4 q-5 0 -11 -4 q-5 -5 -5 -11 q0 -5 5 -10 q4 -4 11 -4 q8 0 12 4 ZM435 104 q2 -1 4 -3 q4 -3 6 -10 l11 30 q-4 0 -7 3 q-1 1 -3 4 l0 -4 q0 -11 -7 -18 q-2 -2 -4 -2 ZM526 56 q6 0 8 2 q2 2 2 6 q0 4 -2 6 q-1 2 -6 2 l-2 0 l-24 67 q-3 8 -10 8 l-28 0 q-4 0 -8 -2 q-2 -2 -2 -7 q0 -4 2 -6 q4 -2 8 -2 l6 0 l-21 -58 l-1 0 q-5 0 -7 -2 q-2 -2 -2 -6 q0 -4 3 -6 q1 -2 7 -2 l20 0 q6 0 7 2 q3 2 3 6 q0 4 -3 7 q-1 1 -7 1 l-3 0 l4 9 l33 0 l3 -9 l-3 0 q-6 0 -7 -1 q-3 -3 -3 -7 q0 -4 3 -6 q1 -2 7 -2 l23 0 ZM610 61 q10 7 10 22 q0 11 -7 18 q-5 5 -21 10 q-3 0 -5 1 q-20 3 -20 11 q0 4 4 8 q5 3 12 3 q3 0 9 -2 q4 -3 7 -7 l0 -2 q3 -6 8 -6 q3 0 7 2 q1 1 1 7 l0 15 q0 2 -1 5 l0 2 q-1 1 -6 1 q-4 0 -5 -1 q-1 0 -2 -3 q-6 3 -10 3 q-4 1 -11 1 q-17 0 -25 -8 q-10 -9 -10 -21 q0 -11 6 -17 q6 -6 20 -9 q6 -2 9 -2 q18 -4 18 -13 q0 -4 -4 -8 q-4 -3 -11 -3 q-9 0 -13 3 q-6 3 -9 9 q0 1 -1 2 q-3 8 -8 8 q-5 0 -7 -2 q-2 -4 -2 -7 l0 -1 l0 -18 q2 -6 3 -7 q2 -2 6 -2 q1 0 3 1 l2 0 l3 3 q2 -1 5.5 -2 q3.5 -1 4.5 -1 q2 0 6 -0.5 q4 -0.5 7 -0.5 q17 0 27 8 ZM571 83 l3 -3 q4 -2 9 -2 q3 0 3 1 l-2 1 q-1 0 -2.5 1 q-1.5 1 -3.5 1 q-2 0 -4 0.5 q-2 0.5 -3 0.5 ZM588 122 l-1 1 q-1 1 -4 1 l-3 0 q6 -2 8 -2 ZM618 110 l2 -2 q10 -10 10 -25 l3 0 l2 0 l0 37 l-2 0 q-5 0 -8 1 q0 -3 -4 -9 q-1 0 -1 -1 l-2 -1 ZM678 56 q6 0 8 2 q2 2 2 6 q0 3 -2 7 q-2 1 -8 1 l-13 0 l0 58 l13 0 q4 0 8 2 q2 2 2 6 q0 3 -2 7 q-4 2 -8 2 l-45 0 q-4 0 -8 -2 q-2 -4 -2 -7 q0 -4 2 -6 q4 -2 8 -2 l13 0 l0 -58 l-13 0 q-6 0 -8 -1 q-2 -4 -2 -7 q0 -4 2 -6 q2 -2 8 -2 l45 0 ZM676 83 l2 0 q6 0 13 -3 l2 1 q1 1 2 1 l14 39 q-3 0 -6 3 q-5 5 -5 9 q-2 -6 -5 -9 q-5 -4 -15 -4 l-2 0 l0 -37 ZM780 56 q6 0 8 2 q2 2 2 6 q0 4 -2 6 q-2 2 -7 2 l-1 0 l-24 67 q-3 8 -10 8 l-29 0 q-5 0 -7 -2 q-3 -1 -3 -7 q0 -4 3 -6 q2 -2 7 -2 l6 0 l-20 -58 l-2 0 q-4 0 -6 -2 q-2 -2 -2 -6 q0 -4 2 -6 q2 -2 8 -2 l20 0 q6 0 7 2 q2 1 2 6 q0 5 -2 7 q-1 1 -7 1 l-3 0 l3 9 l33 0 l4 -9 l-3 0 q-6 0 -8 -1 q-2 -4 -2 -7 q0 -4 2 -6 q2 -2 8 -2 l23 0 ZM751 97 l-22 0 l11 33 l11 -33 ZM229 130 q9 0 14 -3 q5 -3 5 -9 q0 -6 -5 -9 q-5 -3 -14 -3 l-10 0 l0 24 l10 0 ZM237 117 l0 1 l0 0 q0 2 -8 2 l0 -4 l8 1 ZM146 97 l-23 0 l12 33 l11 -33 ZM573 406 q0 -47 -23 -86.5 q-23 -39.5 -62 -62.5 l10 -40 q1 -7 -4 -16 q-7 -7 -15 -7 l-43 0 q-4 0 -6 1 q-2 -1 -7 -1 l-46 0 q-4 0 -7 1 q-2 -1 -6 -1 l-43 0 q-8 0 -15 7 q-6 9 -3 16 l9 40 q-39 23 -62 62.5 q-23 39.5 -23 86.5 q0 64 41.5 112.5 q41.5 48.5 103.5 58.5 l8 55 q4 16 19 16 q17 0 19 -16 l9 -55 q63 -9 104.5 -57.5 q41.5 -48.5 41.5 -113.5 ZM481 457 l-162 0 l29 -51 l104 0 l29 51 ZM407 579 l-8 50 l-8 -50 l-4 -27 l24 0 l-4 27 ZM424 512 l14 27 l-76 0 l14 -27 l-6 -42 l60 0 l-6 42 ZM321 213 l43 0 l2 23 l13 156 l-17 0 l-33 -144 l-8 -35 ZM379 234 l-2 -21 l46 0 l-2 21 l-13 158 l-16 0 l-13 -158 ZM436 213 l43 0 l-8 35 l-33 144 l-17 0 l13 -156 l2 -23 Z" /></font>
</defs>
</svg>
